<svg xmlns="http://www.w3.org/2000/svg" xmlns:xlink="http://www.w3.org/1999/xlink" viewBox="0 0 62 62"><defs><style>.cls-1{fill:url(#linear-gradient);}.cls-2{fill:#fff;fill-rule:evenodd;}</style><linearGradient id="linear-gradient" x1="31" x2="31" y2="62" gradientTransform="translate(14.22 -9.5) rotate(22.5)" gradientUnits="userSpaceOnUse"><stop offset="0.5" stop-color="#4a26ff"/><stop offset="1" stop-color="#6e26ff"/></linearGradient></defs><title>icon</title><g id="Layer_2" data-name="Layer 2"><g id="Layer_1-2" data-name="Layer 1"><circle class="cls-1" cx="31" cy="31" r="31" transform="translate(-9.5 14.22) rotate(-22.5)"/><path class="cls-2" d="M46,41.85a4.22,4.22,0,0,1,.24-3.25,16.87,16.87,0,0,0,1.68-9.75,17,17,0,1,0-19,19,16.87,16.87,0,0,0,9.75-1.68A4.22,4.22,0,0,1,41.85,46l3.46,1.15a1.41,1.41,0,0,0,1.79-1.79ZM25.54,34.51c-1.44,0-2-1-2-3.58s.6-3.58,2-3.58,2,1,2,3.58S27,34.51,25.54,34.51Zm10.92,0c-1.43,0-2-1-2-3.58s.6-3.58,2-3.58,2,1,2,3.58S37.9,34.51,36.46,34.51Z"/></g></g></svg>