<svg width="22" height="22" viewBox="0 0 22 22" fill="none" xmlns="http://www.w3.org/2000/svg">
  <path fill-rule="evenodd" clip-rule="evenodd" d="M11 0C4.959 0 0.054 4.872 0 10.9V11.1C0.054 17.128 4.959 22 11 22C17.075 22 22 17.075 22 11C22 4.925 17.075 0 11 0ZM16.804 15.212C16.7357 15.0062 16.7088 14.7889 16.725 14.5726C16.7411 14.3563 16.7999 14.1454 16.898 13.952C17.4874 12.7834 17.7138 11.4653 17.548 10.167C17.18 7.206 14.792 4.812 11.83 4.451C10.8309 4.32476 9.81623 4.42867 8.86348 4.75478C7.91074 5.08089 7.04519 5.62057 6.33303 6.33254C5.62087 7.04451 5.08096 7.90991 4.75459 8.86257C4.42822 9.81522 4.32403 10.8299 4.45 11.829C4.812 14.791 7.205 17.179 10.166 17.548C11.4646 17.7137 12.783 17.4873 13.952 16.898C14.1454 16.7998 14.3563 16.741 14.5726 16.7249C14.7889 16.7087 15.0062 16.7356 15.212 16.804L16.556 17.252C16.6528 17.2843 16.7568 17.289 16.8561 17.2656C16.9555 17.2422 17.0464 17.1916 17.1186 17.1194C17.1909 17.0473 17.2416 16.9565 17.2652 16.8572C17.2887 16.7578 17.2842 16.6539 17.252 16.557L16.804 15.212V15.212ZM7.972 10.945C7.972 12.076 8.239 12.539 8.879 12.539C9.519 12.539 9.787 12.076 9.787 10.945C9.787 9.813 9.52 9.35 8.879 9.35C8.239 9.35 7.972 9.813 7.972 10.945ZM12.214 10.945C12.214 12.077 12.481 12.54 13.122 12.54C13.762 12.54 14.029 12.077 14.029 10.945C14.029 9.813 13.762 9.35 13.122 9.35C12.481 9.35 12.214 9.813 12.214 10.945Z" fill="var(--fill, #6BA9F5)" />
</svg>
