<svg width="22" height="28" viewBox="0 0 22 28" fill="none" xmlns="http://www.w3.org/2000/svg">
<path fill-rule="evenodd" clip-rule="evenodd" d="M20.0799 8.86349V25.1996C20.0799 25.8844 19.5248 26.4396 18.8399 26.4396H3.15992C2.47509 26.4396 1.91992 25.8844 1.91992 25.1996V2.79957C1.91992 2.11474 2.47509 1.55957 3.15992 1.55957H12.776C12.8078 1.55957 12.8384 1.57221 12.8609 1.59472L20.0448 8.77864C20.0673 8.80114 20.0799 8.83166 20.0799 8.86349ZM0.919922 2.79957C0.919922 1.56245 1.9228 0.55957 3.15992 0.55957H12.776C13.073 0.55957 13.3579 0.67757 13.568 0.887611L20.7519 8.07153C20.9619 8.28157 21.0799 8.56645 21.0799 8.86349V25.1996C21.0799 26.4367 20.077 27.4396 18.8399 27.4396H3.15992C1.9228 27.4396 0.919922 26.4367 0.919922 25.1996V2.79957ZM10.9995 15.4468V10.2221C10.9995 9.54996 11.5996 9 12.333 9H13.6665C14.3999 9 15 9.54996 15 10.2221C15 10.8943 14.3999 11.4443 13.6665 11.4443H12.333V17.4633C12.333 18.6793 11.4062 19.7793 10.0994 19.9687C8.27916 20.2315 6.7323 18.8016 7.03901 17.1272C7.19903 16.2717 7.88578 15.5446 8.77922 15.2512C9.59933 14.9885 10.3728 15.1168 10.9995 15.4468Z" fill="var(--fill, #6BA9F5)"/>
</svg>
