<svg width="30" height="30" viewBox="0 0 30 30" fill="none" xmlns="http://www.w3.org/2000/svg">
<g clip-path="url(#clip0)">
<g filter="url(#filter0_d)">
<path d="M26.5 20.5L14.5 8.50001V25.5L19.5 20.5H26.5Z" fill="white"/>
<path d="M26.5 20.5L14.5 8.50001V25.5L19.5 20.5H26.5Z" stroke="white"/>
</g>
<path d="M19.5 19.75H19.1893L18.9697 19.9697L15.25 23.6893V10.3107L24.6893 19.75H19.5Z" fill="white" stroke="black" stroke-width="1.5"/>
<path d="M26.5 20.5L14.5 8.5V25.5L19.5 20.5H26.5Z" stroke="white"/>
<g filter="url(#filter1_d)">
<path d="M21.5 20.5L9.5 8.50001V25.5L14.5 20.5H21.5Z" fill="black"/>
<path d="M21.5 20.5L9.5 8.50001V25.5L14.5 20.5H21.5Z" stroke="white"/>
</g>
</g>
<defs>
<filter id="filter0_d" x="10" y="5.2929" width="21.7071" height="27.4142" filterUnits="userSpaceOnUse" color-interpolation-filters="sRGB">
<feFlood flood-opacity="0" result="BackgroundImageFix"/>
<feColorMatrix in="SourceAlpha" type="matrix" values="0 0 0 0 0 0 0 0 0 0 0 0 0 0 0 0 0 0 127 0"/>
<feOffset dy="2"/>
<feGaussianBlur stdDeviation="2"/>
<feColorMatrix type="matrix" values="0 0 0 0 0 0 0 0 0 0 0 0 0 0 0 0 0 0 0.5 0"/>
<feBlend mode="normal" in2="BackgroundImageFix" result="effect1_dropShadow"/>
<feBlend mode="normal" in="SourceGraphic" in2="effect1_dropShadow" result="shape"/>
</filter>
<filter id="filter1_d" x="5" y="5.2929" width="21.7071" height="27.4142" filterUnits="userSpaceOnUse" color-interpolation-filters="sRGB">
<feFlood flood-opacity="0" result="BackgroundImageFix"/>
<feColorMatrix in="SourceAlpha" type="matrix" values="0 0 0 0 0 0 0 0 0 0 0 0 0 0 0 0 0 0 127 0"/>
<feOffset dy="2"/>
<feGaussianBlur stdDeviation="2"/>
<feColorMatrix type="matrix" values="0 0 0 0 0 0 0 0 0 0 0 0 0 0 0 0 0 0 0.5 0"/>
<feBlend mode="normal" in2="BackgroundImageFix" result="effect1_dropShadow"/>
<feBlend mode="normal" in="SourceGraphic" in2="effect1_dropShadow" result="shape"/>
</filter>
<clipPath id="clip0">
<rect width="30" height="30" fill="white"/>
</clipPath>
</defs>
</svg>
