<svg width="30" height="30" viewBox="0 0 30 30" fill="none" xmlns="http://www.w3.org/2000/svg">
<g clip-path="url(#clip0_5511_494)">
<g filter="url(#filter0_dd_5511_494)">
<path d="M7 15C7 10.5817 10.5817 7 15 7V7C19.4183 7 23 10.5817 23 15V15C23 19.4183 19.4183 23 15 23H9C7.89543 23 7 22.1046 7 21V15Z" fill="black"/>
<path d="M15 22.5H9C8.17157 22.5 7.5 21.8284 7.5 21V15C7.5 10.8579 10.8579 7.5 15 7.5C19.1421 7.5 22.5 10.8579 22.5 15C22.5 19.1421 19.1421 22.5 15 22.5Z" stroke="white"/>
</g>
</g>
<defs>
<filter id="filter0_dd_5511_494" x="0" y="3" width="30" height="30" filterUnits="userSpaceOnUse" color-interpolation-filters="sRGB">
<feFlood flood-opacity="0" result="BackgroundImageFix"/>
<feColorMatrix in="SourceAlpha" type="matrix" values="0 0 0 0 0 0 0 0 0 0 0 0 0 0 0 0 0 0 127 0" result="hardAlpha"/>
<feMorphology radius="1" operator="dilate" in="SourceAlpha" result="effect1_dropShadow_5511_494"/>
<feOffset/>
<feComposite in2="hardAlpha" operator="out"/>
<feColorMatrix type="matrix" values="0 0 0 0 0 0 0 0 0 0 0 0 0 0 0 0 0 0 0.05 0"/>
<feBlend mode="normal" in2="BackgroundImageFix" result="effect1_dropShadow_5511_494"/>
<feColorMatrix in="SourceAlpha" type="matrix" values="0 0 0 0 0 0 0 0 0 0 0 0 0 0 0 0 0 0 127 0" result="hardAlpha"/>
<feOffset dy="3"/>
<feGaussianBlur stdDeviation="3.5"/>
<feComposite in2="hardAlpha" operator="out"/>
<feColorMatrix type="matrix" values="0 0 0 0 0 0 0 0 0 0 0 0 0 0 0 0 0 0 0.25 0"/>
<feBlend mode="normal" in2="effect1_dropShadow_5511_494" result="effect2_dropShadow_5511_494"/>
<feBlend mode="normal" in="SourceGraphic" in2="effect2_dropShadow_5511_494" result="shape"/>
</filter>
<clipPath id="clip0_5511_494">
<rect width="30" height="30" fill="white"/>
</clipPath>
</defs>
</svg>
