<svg width="80" height="80" viewBox="0 0 80 80" fill="none" xmlns="http://www.w3.org/2000/svg">
<g clip-path="url(#clip0_2552_8250)">
<rect width="80" height="80" fill="#506CF0"/>
<path d="M80 40C80 17.9086 62.0914 0 40 0C17.9086 0 0 17.9086 0 40C0 62.0914 17.9086 80 40 80C62.0914 80 80 62.0914 80 40Z" fill="#506CF0"/>
<path d="M41.3509 57.5C46.9073 57.5 50.5952 55.7596 53.8406 52.9558C54.3814 52.4724 54.8241 51.7472 54.8241 50.8287C54.8241 49.3301 53.4965 48.0732 51.9721 48.0732C51.2345 48.0732 50.5952 48.3633 50.1527 48.75C47.6449 50.8288 45.1863 51.989 41.5477 51.989C34.9586 51.989 30.1889 46.6229 30.1889 40V39.9034C30.1889 33.2804 35.0078 27.9627 41.5477 27.9627C44.8422 27.9627 47.3991 29.1229 49.7593 31.0083C50.1527 31.2984 50.7428 31.5884 51.5787 31.5884C53.2506 31.5884 54.5782 30.3315 54.5782 28.6879C54.5782 27.6243 54.0373 26.8025 53.3981 26.319C50.3986 24.047 46.9073 22.5 41.5968 22.5C31.1723 22.5 23.8458 30.3799 23.8458 40V40.0966C23.8458 49.8135 31.3199 57.5 41.3509 57.5Z" fill="white"/>
</g>
<defs>
<clipPath id="clip0_2552_8250">
<rect width="80" height="80" fill="white"/>
</clipPath>
</defs>
</svg>
