<svg width="60" height="60" viewBox="0 0 60 60" fill="none" xmlns="http://www.w3.org/2000/svg">
<path d="M53.25 8.82568L52.3462 9.01611L38.2397 11.9854L21.7397 8.98535L6.75 12.1421V51.1743L21.7603 48.0146L38.2603 51.0146L53.25 47.8579V8.82568ZM21.7603 10.5146L38.2603 13.5146L51.75 10.6743V46.6421L38.2397 49.4854L21.7397 46.4854L8.25 49.3257V13.3579L21.7603 10.5146ZM21.75 11.25C21.5511 11.25 21.3603 11.329 21.2197 11.4697C21.079 11.6103 21 11.8011 21 12C21 12.1989 21.079 12.3897 21.2197 12.5303C21.3603 12.671 21.5511 12.75 21.75 12.75C21.9489 12.75 22.1397 12.671 22.2803 12.5303C22.421 12.3897 22.5 12.1989 22.5 12C22.5 11.8011 22.421 11.6103 22.2803 11.4697C22.1397 11.329 21.9489 11.25 21.75 11.25ZM21.75 14.25C21.5511 14.25 21.3603 14.329 21.2197 14.4697C21.079 14.6103 21 14.8011 21 15C21 15.1989 21.079 15.3897 21.2197 15.5303C21.3603 15.671 21.5511 15.75 21.75 15.75C21.9489 15.75 22.1397 15.671 22.2803 15.5303C22.421 15.3897 22.5 15.1989 22.5 15C22.5 14.8011 22.421 14.6103 22.2803 14.4697C22.1397 14.329 21.9489 14.25 21.75 14.25ZM38.25 14.25C38.0511 14.25 37.8603 14.329 37.7197 14.4697C37.579 14.6103 37.5 14.8011 37.5 15C37.5 15.1989 37.579 15.3897 37.7197 15.5303C37.8603 15.671 38.0511 15.75 38.25 15.75C38.4489 15.75 38.6397 15.671 38.7803 15.5303C38.921 15.3897 39 15.1989 39 15C39 14.8011 38.921 14.6103 38.7803 14.4697C38.6397 14.329 38.4489 14.25 38.25 14.25ZM21.75 17.25C21.5511 17.25 21.3603 17.329 21.2197 17.4697C21.079 17.6103 21 17.8011 21 18C21 18.1989 21.079 18.3897 21.2197 18.5303C21.3603 18.671 21.5511 18.75 21.75 18.75C21.9489 18.75 22.1397 18.671 22.2803 18.5303C22.421 18.3897 22.5 18.1989 22.5 18C22.5 17.8011 22.421 17.6103 22.2803 17.4697C22.1397 17.329 21.9489 17.25 21.75 17.25ZM38.25 17.25C38.0511 17.25 37.8603 17.329 37.7197 17.4697C37.579 17.6103 37.5 17.8011 37.5 18C37.5 18.1989 37.579 18.3897 37.7197 18.5303C37.8603 18.671 38.0511 18.75 38.25 18.75C38.4489 18.75 38.6397 18.671 38.7803 18.5303C38.921 18.3897 39 18.1989 39 18C39 17.8011 38.921 17.6103 38.7803 17.4697C38.6397 17.329 38.4489 17.25 38.25 17.25ZM21.75 20.25C21.5511 20.25 21.3603 20.329 21.2197 20.4697C21.079 20.6103 21 20.8011 21 21C21 21.1989 21.079 21.3897 21.2197 21.5303C21.3603 21.671 21.5511 21.75 21.75 21.75C21.9489 21.75 22.1397 21.671 22.2803 21.5303C22.421 21.3897 22.5 21.1989 22.5 21C22.5 20.8011 22.421 20.6103 22.2803 20.4697C22.1397 20.329 21.9489 20.25 21.75 20.25ZM38.25 20.25C38.0511 20.25 37.8603 20.329 37.7197 20.4697C37.579 20.6103 37.5 20.8011 37.5 21C37.5 21.1989 37.579 21.3897 37.7197 21.5303C37.8603 21.671 38.0511 21.75 38.25 21.75C38.4489 21.75 38.6397 21.671 38.7803 21.5303C38.921 21.3897 39 21.1989 39 21C39 20.8011 38.921 20.6103 38.7803 20.4697C38.6397 20.329 38.4489 20.25 38.25 20.25ZM21.75 23.25C21.5511 23.25 21.3603 23.329 21.2197 23.4697C21.079 23.6103 21 23.8011 21 24C21 24.1989 21.079 24.3897 21.2197 24.5303C21.3603 24.671 21.5511 24.75 21.75 24.75C21.9489 24.75 22.1397 24.671 22.2803 24.5303C22.421 24.3897 22.5 24.1989 22.5 24C22.5 23.8011 22.421 23.6103 22.2803 23.4697C22.1397 23.329 21.9489 23.25 21.75 23.25ZM38.3364 24.8804C35.6387 24.8804 34.1092 26.3928 34.0649 28.5806H36.4468C36.5 27.6138 37.1672 26.9897 38.1782 26.9897C39.1802 26.9897 39.8496 27.5697 39.8496 28.3872C39.8496 29.2047 39.5056 29.6267 38.3716 30.3032C37.1588 31.015 36.677 31.8062 36.791 33.2124L36.8071 33.6958H39.1362V33.23C39.1362 32.3862 39.4611 31.9553 40.6304 31.2788C41.8701 30.5491 42.5112 29.6266 42.5112 28.3081C42.5112 26.2779 40.8504 24.8804 38.3364 24.8804ZM21.75 26.25C21.5511 26.25 21.3603 26.329 21.2197 26.4697C21.079 26.6103 21 26.8011 21 27C21 27.1989 21.079 27.3897 21.2197 27.5303C21.3603 27.671 21.5511 27.75 21.75 27.75C21.9489 27.75 22.1397 27.671 22.2803 27.5303C22.421 27.3897 22.5 27.1989 22.5 27C22.5 26.8011 22.421 26.6103 22.2803 26.4697C22.1397 26.329 21.9489 26.25 21.75 26.25ZM21.75 29.25C21.5511 29.25 21.3603 29.329 21.2197 29.4697C21.079 29.6103 21 29.8011 21 30C21 30.1989 21.079 30.3897 21.2197 30.5303C21.3603 30.671 21.5511 30.75 21.75 30.75C21.9489 30.75 22.1397 30.671 22.2803 30.5303C22.421 30.3897 22.5 30.1989 22.5 30C22.5 29.8011 22.421 29.6103 22.2803 29.4697C22.1397 29.329 21.9489 29.25 21.75 29.25ZM21.75 32.25C21.5511 32.25 21.3603 32.329 21.2197 32.4697C21.079 32.6103 21 32.8011 21 33C21 33.1989 21.079 33.3897 21.2197 33.5303C21.3603 33.671 21.5511 33.75 21.75 33.75C21.9489 33.75 22.1397 33.671 22.2803 33.5303C22.421 33.3897 22.5 33.1989 22.5 33C22.5 32.8011 22.421 32.6103 22.2803 32.4697C22.1397 32.329 21.9489 32.25 21.75 32.25ZM21.75 35.25C21.5511 35.25 21.3603 35.329 21.2197 35.4697C21.079 35.6103 21 35.8011 21 36C21 36.1989 21.079 36.3897 21.2197 36.5303C21.3603 36.671 21.5511 36.75 21.75 36.75C21.9489 36.75 22.1397 36.671 22.2803 36.5303C22.421 36.3897 22.5 36.1989 22.5 36C22.5 35.8011 22.421 35.6103 22.2803 35.4697C22.1397 35.329 21.9489 35.25 21.75 35.25ZM38.0654 35.3833C37.0807 35.3833 36.4644 35.9547 36.4644 36.8862C36.4644 37.8087 37.0814 38.3804 38.0654 38.3804C39.0494 38.3804 39.6548 37.8087 39.6548 36.8862C39.6548 35.9547 39.0502 35.3833 38.0654 35.3833ZM21.75 38.25C21.5511 38.25 21.3603 38.329 21.2197 38.4697C21.079 38.6103 21 38.8011 21 39C21 39.1989 21.079 39.3897 21.2197 39.5303C21.3603 39.671 21.5511 39.75 21.75 39.75C21.9489 39.75 22.1397 39.671 22.2803 39.5303C22.421 39.3897 22.5 39.1989 22.5 39C22.5 38.8011 22.421 38.6103 22.2803 38.4697C22.1397 38.329 21.9489 38.25 21.75 38.25ZM21.75 41.25C21.5511 41.25 21.3603 41.329 21.2197 41.4697C21.079 41.6103 21 41.8011 21 42C21 42.1989 21.079 42.3897 21.2197 42.5303C21.3603 42.671 21.5511 42.75 21.75 42.75C21.9489 42.75 22.1397 42.671 22.2803 42.5303C22.421 42.3897 22.5 42.1989 22.5 42C22.5 41.8011 22.421 41.6103 22.2803 41.4697C22.1397 41.329 21.9489 41.25 21.75 41.25ZM38.25 41.25C38.0511 41.25 37.8603 41.329 37.7197 41.4697C37.579 41.6103 37.5 41.8011 37.5 42C37.5 42.1989 37.579 42.3897 37.7197 42.5303C37.8603 42.671 38.0511 42.75 38.25 42.75C38.4489 42.75 38.6397 42.671 38.7803 42.5303C38.921 42.3897 39 42.1989 39 42C39 41.8011 38.921 41.6103 38.7803 41.4697C38.6397 41.329 38.4489 41.25 38.25 41.25ZM21.75 44.25C21.5511 44.25 21.3603 44.329 21.2197 44.4697C21.079 44.6103 21 44.8011 21 45C21 45.1989 21.079 45.3897 21.2197 45.5303C21.3603 45.671 21.5511 45.75 21.75 45.75C21.9489 45.75 22.1397 45.671 22.2803 45.5303C22.421 45.3897 22.5 45.1989 22.5 45C22.5 44.8011 22.421 44.6103 22.2803 44.4697C22.1397 44.329 21.9489 44.25 21.75 44.25ZM38.25 44.25C38.0511 44.25 37.8603 44.329 37.7197 44.4697C37.579 44.6103 37.5 44.8011 37.5 45C37.5 45.1989 37.579 45.3897 37.7197 45.5303C37.8603 45.671 38.0511 45.75 38.25 45.75C38.4489 45.75 38.6397 45.671 38.7803 45.5303C38.921 45.3897 39 45.1989 39 45C39 44.8011 38.921 44.6103 38.7803 44.4697C38.6397 44.329 38.4489 44.25 38.25 44.25ZM38.25 47.25C38.0511 47.25 37.8603 47.329 37.7197 47.4697C37.579 47.6103 37.5 47.8011 37.5 48C37.5 48.1989 37.579 48.3897 37.7197 48.5303C37.8603 48.671 38.0511 48.75 38.25 48.75C38.4489 48.75 38.6397 48.671 38.7803 48.5303C38.921 48.3897 39 48.1989 39 48C39 47.8011 38.921 47.6103 38.7803 47.4697C38.6397 47.329 38.4489 47.25 38.25 47.25Z" fill="#ADADAD"/>
</svg>
