<svg width="45" height="44" viewBox="0 0 45 44" fill="none" xmlns="http://www.w3.org/2000/svg">
<path d="M8.69457 38.5007H36.3046C39.1279 38.5007 40.8879 35.4391 39.4762 33.0007L25.6712 9.14906C24.2596 6.71073 20.7396 6.71073 19.3279 9.14906L5.5229 33.0007C4.11124 35.4391 5.87124 38.5007 8.69457 38.5007ZM22.4996 25.6674C21.4912 25.6674 20.6662 24.8424 20.6662 23.8341V20.1674C20.6662 19.1591 21.4912 18.3341 22.4996 18.3341C23.5079 18.3341 24.3329 19.1591 24.3329 20.1674V23.8341C24.3329 24.8424 23.5079 25.6674 22.4996 25.6674ZM24.3329 33.0007H20.6662V29.3341H24.3329V33.0007Z" fill="#F5BE0A"/>
</svg>
