<svg width="112" height="139" viewBox="0 0 112 139" fill="none" xmlns="http://www.w3.org/2000/svg">
<path d="M44.099 45.6577C47.6789 27.5809 57.3295 12.6281 57.4392 11.6909C57.7516 13.1938 66.161 36.1761 65.8824 45.7337C65.7557 50.6645 62.1758 57.3599 55.1849 57.7821C48.194 58.2043 42.8495 51.9226 44.099 45.6577Z" fill="#7FE0EA"/>
<path d="M75.7595 43.2092C85.9419 27.8595 102.423 18.3694 102.879 17.542C102.6 19.0533 103.85 51.8381 99.966 60.6021C97.965 65.1192 91.4638 65.7271 84.8359 63.4643C78.208 61.2016 72.2218 48.5368 75.7595 43.2092Z" fill="#7FE0EA"/>
<path d="M44.2753 45.8435C48.9106 34.6986 60.0218 33.6685 69.8243 33.9725C85.2078 34.4453 98.7928 42.4156 100.22 59.8761C100.465 68.6232 97.9232 105.064 95.6857 111.599C93.0177 119.367 90.2399 122.491 87.9687 124.492C80.6316 130.959 67.9668 132.479 58.5274 132.394C50.3544 132.327 38.7873 128.249 36.6934 116.994C33.8312 101.703 41.869 92.416 44.1909 80.7476C44.2247 80.7476 41.2696 53.0709 44.2753 45.8435Z" fill="#7FE0EA"/>
<path d="M76.824 121.621C75.5491 123.554 71.4458 129.219 70.1962 130.199C68.9466 131.178 65.7213 133.897 66.4643 136.54C66.8865 138.043 67.3508 138.921 68.6173 138.988C77.0605 139.427 87.4877 127.556 89.2355 123.25C91.6587 117.298 80.1422 116.58 76.824 121.621Z" fill="#7FE0EA"/>
<path d="M45.0689 116.943C43.8025 118.877 39.6907 124.542 38.4411 125.521C37.1915 126.501 33.9662 129.22 34.7176 131.862C35.1313 133.365 35.6042 134.252 36.8622 134.311C45.3054 134.75 55.7326 122.879 57.4804 118.581C59.9036 112.629 48.3871 111.903 45.0689 116.943Z" fill="#7FE0EA"/>
<path d="M48.0915 83.5845C47.8551 83.1116 47.2978 82.909 46.8841 82.6219C45.8456 81.8958 40.6699 77.4885 38.9729 76.3318C36.7185 74.7782 34.5993 76.0954 34.3122 78.7127C33.9492 81.9549 36.8452 85.4673 39.4372 87.1559C40.7206 88.0002 44.5707 90.0519 45.9976 88.397L48.0915 83.5845Z" fill="#7FE0EA"/>
<path d="M51.0474 47.4052C48.3193 49.4022 46.1599 52.0768 44.7826 55.1645C42.6803 59.5381 42.6212 63.8272 42.8154 68.6313C42.9082 71.063 41.1267 72.8529 41.6502 75.3859C43.094 82.9087 56.1049 82.5541 61.9982 82.7567C68.8456 82.9931 76.0223 83.01 80.8518 77.7753C86.4749 71.6962 83.9842 59.2003 80.2692 52.8257C76.8413 46.8733 61.4494 40.3299 51.0474 47.4052Z" fill="#FFEDE1"/>
<path d="M48.5437 70.3488C46.1699 70.4421 45.2429 68.9885 48.7577 68.5581C49.6272 68.3825 50.5306 68.5027 51.324 68.8996C51.8361 69.3644 51.3247 70.2349 48.5437 70.3488Z" fill="#474747"/>
<path d="M71.8536 70.3997C74.1927 70.8144 75.3084 69.5001 71.8846 68.5965C71.047 68.3045 70.1357 68.301 69.2958 68.5864C68.7254 68.9774 69.1138 69.9092 71.8536 70.3997Z" fill="#474747"/>
<path d="M55.3362 9.91775C54.2328 9.2312 53.4068 8.17747 53.0038 6.94198C52.6007 5.70648 52.6463 4.3684 53.1325 3.16322C53.4982 2.27848 54.1071 1.51545 54.8886 0.962557C55.6702 0.409661 56.5923 0.0895277 57.5484 0.0392538C59.8955 -0.188711 62.2258 0.562726 63.3234 2.64819C64.3535 4.59856 65.0881 7.87451 63.3234 9.7911C61.5588 11.7077 57.8017 11.4882 55.3362 9.91775Z" fill="#F4B042"/>
<path d="M100.743 16.2079C98.1175 12.8307 99.1391 9.90933 101.495 7.76477C102.465 6.93153 103.669 6.41921 104.942 6.29826C106.215 6.17731 107.494 6.45365 108.604 7.08932C111.559 8.62597 112.226 12.6027 110.867 15.4734C109.431 18.5382 103.378 19.5852 100.743 16.2079Z" fill="#E84F8E"/>
<path d="M15.0889 129.364V132.792C15.0889 134.683 19.4371 136.22 24.7985 136.22C30.1599 136.22 34.5081 134.683 34.5081 132.792V129.364H15.0889Z" fill="#E5A342"/>
<path d="M49.6036 105.621C49.6034 105.465 49.5864 105.31 49.5529 105.157C48.7846 101.062 38.0026 97.8115 24.7975 97.8115C11.5925 97.8115 0.810533 101.062 0.0422055 105.157C0.0156014 105.31 0.00149353 105.466 0 105.621C0 105.706 0 105.79 0 105.875C0 106.153 0 106.432 0 106.719C0 121.072 11.1027 132.783 24.7975 132.783C38.4924 132.783 49.6036 121.115 49.6036 106.719C49.6036 106.432 49.6036 106.153 49.6036 105.875C49.5867 105.79 49.6036 105.706 49.6036 105.621Z" fill="#F4B042"/>
<path d="M24.7982 113.887C37.8127 113.887 48.3631 110.564 48.3631 106.465C48.3631 102.367 37.8127 99.0439 24.7982 99.0439C11.7837 99.0439 1.2334 102.367 1.2334 106.465C1.2334 110.564 11.7837 113.887 24.7982 113.887Z" fill="#D18F30"/>
<path d="M38.4162 110.349C36.2632 110.231 34.6083 103.89 38.3064 105.621C40.1217 106.482 40.5945 110.484 38.4162 110.349Z" fill="white"/>
<path d="M7.32093 109.564C5.81805 108.027 8.89136 102.235 10.4365 106.018C11.1963 107.875 8.82382 111.109 7.32093 109.564Z" fill="white"/>
<path d="M15.2655 107.2C17.1399 108.264 21.944 103.823 17.8998 103.283C15.9072 103.021 13.3827 106.136 15.2655 107.2Z" fill="white"/>
<path opacity="0.6" d="M86.8547 91.9599C87.2261 90.7525 89.8267 84.4708 90.4177 82.5035C91.2029 79.8777 89.2947 78.282 86.7196 78.797C83.5196 79.4471 80.8093 84.2682 80.041 87.2402" stroke="white" stroke-miterlimit="10" stroke-linecap="round"/>
<path d="M107.734 61.9948C105.614 64.7811 102.068 65.6507 99.8224 63.9452C97.5765 62.2397 97.4667 58.5838 99.5775 55.806C101.688 53.0282 105.234 52.1501 107.489 53.8556C109.743 55.5611 109.828 59.217 107.734 61.9948Z" fill="#DDDDDD"/>
<path d="M91.3795 78.5269C91.2127 78.7483 91.0036 78.9345 90.7645 79.0748C90.5254 79.2151 90.2609 79.3067 89.9863 79.3443C89.7116 79.382 89.4322 79.365 89.1642 79.2942C88.8961 79.2235 88.6447 79.1004 88.4244 78.9321V78.9321C87.9792 78.5937 87.6864 78.0925 87.6104 77.5384C87.5344 76.9844 87.6814 76.4228 88.0191 75.977L99.4174 60.982C99.7558 60.5367 100.257 60.244 100.811 60.168C101.365 60.092 101.927 60.239 102.372 60.5767C102.594 60.7444 102.781 60.9541 102.921 61.1939C103.061 61.4338 103.153 61.699 103.191 61.9743C103.228 62.2497 103.211 62.5297 103.14 62.7985C103.07 63.0672 102.946 63.3193 102.778 63.5403L91.3795 78.5269Z" fill="#DDDDDD"/>
<path d="M36.9806 60.3067C36.7442 59.8001 33.7131 57.7146 32.2271 56.2962C31.7205 56.2286 30.9353 58.179 28.453 58.2803C27.9331 58.3024 27.4155 58.198 26.9448 57.9761C26.4741 57.7542 26.0642 57.4214 25.7504 57.0063C25.4365 56.5912 25.2281 56.1061 25.143 55.5927C25.0578 55.0793 25.0985 54.5529 25.2615 54.0587C25.4414 53.4703 25.8083 52.9565 26.3065 52.5954C26.8048 52.2343 27.4072 52.0455 28.0224 52.0577C27.5454 51.6733 27.1875 51.1613 26.9902 50.5813C26.7928 50.0014 26.7643 49.3773 26.9079 48.7818C26.9492 48.1545 27.1995 47.5591 27.6189 47.0908C28.0382 46.6225 28.6024 46.3082 29.2214 46.1981C31.5348 45.9195 32.1934 47.7264 32.8097 49.1701C33.7469 46.1728 38.7621 46.6372 38.7706 50.1495C38.7706 52.9189 36.5838 53.5268 34.5997 54.6075L36.9806 60.3067Z" fill="white"/>
</svg>
