<svg width="420" height="190" viewBox="0 0 420 190" fill="none" xmlns="http://www.w3.org/2000/svg">
<rect width="420" height="190" fill="white"/>
<g clip-path="url(#clip0_10873_53627)">
<path d="M178.381 108.71C178.201 108.037 177.49 107.572 177.015 107.05C175.811 105.75 170.052 98.255 168.088 96.1583C165.47 93.312 162.169 94.1469 160.983 97.2588C159.513 101.12 162.378 106.604 165.442 109.735C166.96 111.262 171.608 115.342 174.056 113.853L178.381 108.71Z" fill="#7FE0EA"/>
<path d="M220.644 107.019C221.099 106.497 221.943 106.383 222.598 106.127C224.258 105.482 232.71 101.279 235.405 100.245C238.991 98.8788 241.599 101.032 241.305 104.353C240.935 108.461 235.955 112.142 231.819 113.603C229.779 114.315 223.822 115.937 222.266 113.528L220.644 107.019Z" fill="#7FE0EA"/>
<path d="M182.176 66.8288C193.693 49.6658 210.142 38.2808 210.664 37.332C210.342 39.0303 209.165 66.4778 204.773 76.3069C202.506 81.3732 195.913 86.7432 188.475 84.2005C181.038 81.6579 178.192 72.7965 182.176 66.8288Z" fill="#7FE0EA"/>
<path d="M209.241 34.5923C208.394 33.4044 207.993 31.9555 208.11 30.5011C208.226 29.0466 208.852 27.6799 209.877 26.6417C210.636 25.8847 211.593 25.3576 212.639 25.1209C213.685 24.8842 214.776 24.9477 215.787 25.3039C218.329 26.0724 220.426 27.8466 220.663 30.5031C220.891 32.9699 220.246 36.6795 217.618 37.9319C214.99 39.1842 211.129 37.3342 209.241 34.5923Z" fill="#F4B042"/>
<path d="M219.875 65.5138C238.402 56.2729 259.775 56.2634 260.667 55.7227C259.548 57.0319 242.396 89.6596 233.697 96.0258C229.229 99.299 222.55 96.2535 217.371 90.3332C212.191 84.413 213.453 68.7206 219.875 65.5138Z" fill="#7FE0EA"/>
<path d="M259.349 53.2242C258.685 48.4804 261.313 46.1844 264.804 45.4349C266.215 45.1688 267.674 45.3461 268.98 45.9423C270.286 46.5386 271.376 47.5246 272.099 48.765C274.12 51.9149 272.526 56.1653 269.595 58.2526C266.531 60.3493 260.013 57.9774 259.349 53.2242Z" fill="#E84F8E"/>
<path d="M233.754 77.8926C230.13 64.8472 217.409 61.4696 206.48 60.1034C189.319 57.9592 179.045 66.4885 174.388 85.6154C172.614 95.2832 165.907 114.998 171.75 140.748C177.357 165.624 197.516 174.125 208.093 173.366C220.103 172.502 230.766 172.872 236.429 163.413C245.404 148.414 230.794 138.034 230.301 122.086C229.817 106.289 238.118 93.6134 233.754 77.8926Z" fill="#7FE0EA"/>
<path d="M200.124 161.798C201.377 164.085 205.465 170.783 206.765 172.007C208.065 173.231 211.451 176.551 210.379 179.445C209.772 181.086 209.175 182.035 207.752 181.997C198.227 181.731 187.612 167.5 186.037 162.567C183.855 155.641 196.823 155.868 200.124 161.798Z" fill="#7FE0EA"/>
<path d="M231.078 153.743C232.587 155.869 237.415 162.055 238.857 163.117C240.299 164.18 244.027 167.092 243.287 170.1C242.88 171.798 242.339 172.804 240.973 172.946C231.486 173.772 219.344 160.85 217.256 156.077C214.249 149.474 227.16 148.222 231.078 153.743Z" fill="#7FE0EA"/>
<path d="M187.849 69.173C184.39 70.7445 181.404 73.1945 179.187 76.2792C175.886 80.615 174.852 85.3208 173.97 90.6528C173.524 93.3473 171.2 94.8843 171.124 97.7875C171.001 106.393 185.401 108.954 191.833 110.52C199.318 112.341 207.211 113.983 213.718 109.334C221.308 103.916 221.374 89.6376 218.746 81.7345C216.356 74.4481 200.912 63.7461 187.849 69.173Z" fill="#FFEDE1"/>
<path d="M177.812 90.4629C179.33 91.6109 180.753 92.7114 182.119 93.7171C180.117 93.8594 179.197 93.7171 177.195 93.8974" stroke="#474747" stroke-width="0.857143" stroke-linecap="round" stroke-linejoin="round"/>
<path d="M207.097 97.001C205.199 97.2761 203.444 97.5607 201.756 97.7979C203.444 98.8795 204.308 99.2305 205.987 100.312" stroke="#474747" stroke-width="0.857143" stroke-linecap="round" stroke-linejoin="round"/>
<path d="M161.922 62.1137C158.706 60.7 150.538 52.37 155.281 49.3909C159.124 47 160.347 50.2163 161.675 52.1897C162.88 47.9772 168.098 49.0019 169.208 52.5313C170.507 56.5635 161.922 62.1137 161.922 62.1137Z" fill="#E84F8E"/>
<path d="M155.718 76.8386C152.872 77.4364 149.267 77.5312 147.18 73.5654C146.052 71.3548 149.846 68.1006 152.265 71.1556C151.924 67.6642 156.06 66.0513 157.957 68.8786C159.541 71.222 155.718 76.8386 155.718 76.8386Z" fill="#E84F8E"/>
</g>
<path d="M76 16.5C65.7366 17.1183 65.1183 17.7366 64.5 28C63.8817 17.7366 63.2634 17.1183 53 16.5C63.2634 15.8817 63.8817 15.2634 64.5 5C65.1183 15.2634 65.6129 15.8817 76 16.5Z" fill="#7FE0EA"/>
<path d="M32 127C18.1667 127.86 17.3334 128.72 16.5 143C15.6667 128.72 14.8333 127.86 1 127C14.8333 126.14 15.6667 125.28 16.5 111C17.3334 125.28 18 126.14 32 127Z" fill="#7FE0EA"/>
<path d="M302 151C292.183 151.591 291.591 152.183 291 162C290.409 152.183 289.817 151.591 280 151C289.817 150.409 290.409 149.817 291 140C291.591 149.817 292.065 150.409 302 151Z" fill="#7FE0EA"/>
<path d="M419 167.5C399.812 168.656 398.656 169.812 397.5 189C396.344 169.812 395.188 168.656 376 167.5C395.188 166.344 396.344 165.188 397.5 146C398.656 165.188 399.581 166.344 419 167.5Z" fill="#7FE0EA"/>
<path d="M130 105C123.724 105.362 123.362 105.724 123 112C122.638 105.724 122.276 105.362 116 105C122.276 104.638 122.638 104.276 123 98C123.362 104.276 123.603 104.638 130 105Z" fill="#7FE0EA"/>
<path d="M331 55.5C321.586 56.0431 321.043 56.5862 320.5 66C319.957 56.5862 319.414 56.0431 310 55.5C319.414 54.9569 319.957 54.4138 320.5 45C321.043 54.4138 321.586 54.9569 331 55.5Z" fill="#7FE0EA"/>
<path d="M383 32C375.828 32.4138 375.414 32.8276 375 40C374.586 32.8276 374.172 32.4138 367 32C374.172 31.5862 374.586 31.1724 375 24C375.414 31.1724 375.828 31.5862 383 32Z" fill="#7FE0EA"/>
<path d="M95 9C87.8276 9.41379 87.4138 9.82759 87 17C86.5863 9.82759 86.1724 9.41379 79 9C86.1724 8.58621 86.5863 8.17241 87 1C87.4138 8.17241 87.8276 8.58621 95 9Z" fill="#7FE0EA"/>
<path d="M35 152C26.4828 152.517 25.9914 153.034 25.5 162C25.0087 153.034 24.5172 152.517 16 152C24.5172 151.483 25.0087 150.966 25.5 142C25.9914 150.966 26.4828 151.483 35 152Z" fill="#7FE0EA"/>
<path d="M313 136C306.724 136.362 306.362 136.724 306 143C305.638 136.724 305.276 136.362 299 136C305.276 135.638 305.638 135.276 306 129C306.362 135.276 306.603 135.638 313 136Z" fill="#7FE0EA"/>
<defs>
<clipPath id="clip0_10873_53627">
<rect width="126" height="157" fill="white" transform="translate(147 25)"/>
</clipPath>
</defs>
</svg>
