<svg width="88" height="142" viewBox="0 0 88 142" fill="none" xmlns="http://www.w3.org/2000/svg">
<path d="M14.1764 41.3817C20.8481 24.686 32.7665 12.0674 33.0466 11.186C33.0466 12.6851 37.0332 36.2009 35.0811 45.3518C34.068 50.0632 29.4389 55.8371 22.6601 54.9887C15.8814 54.1403 11.8701 47.1639 14.1764 41.3817Z" fill="#7FE0EA"/>
<path d="M31.3423 9.11866C30.41 8.26118 29.8093 7.103 29.6451 5.84706C29.481 4.59113 29.764 3.31751 30.4445 2.24925C30.9526 1.46727 31.6716 0.845024 32.5185 0.454409C33.3653 0.0637948 34.3053 -0.0792388 35.23 0.0418213C37.528 0.239502 39.6284 1.37615 40.3038 3.57534C40.9462 5.63451 41.0616 8.90449 39.0601 10.4365C37.0586 11.9685 33.4344 11.0625 31.3423 9.11866Z" fill="#F4B042"/>
<path d="M43.7713 40.4674C58.4573 30.0892 76.7921 27.2887 77.5417 26.6792C76.718 27.9559 66.3315 58.2093 59.7092 64.8151C56.2993 68.2168 50.1629 66.4624 44.9409 62.0805C39.7188 57.6986 38.7057 44.0998 43.7713 40.4674Z" fill="#7FE0EA"/>
<path d="M76.0495 24.7107C74.8469 20.7077 76.8073 18.4097 79.6983 17.2977C80.8748 16.8833 82.1507 16.8428 83.351 17.182C84.5513 17.5212 85.6174 18.2233 86.403 19.1921C88.5528 21.6632 87.7456 25.485 85.5052 27.6183C83.133 29.8916 77.2521 28.7138 76.0495 24.7107Z" fill="#E84F8E"/>
<path d="M58.597 47.7569C55.4423 36.4068 46.382 33.631 36.8934 32.4449C21.9932 30.5916 13.0729 37.9882 9.02865 54.6016C7.48016 62.9865 1.66503 80.1353 6.73883 102.498C11.6149 124.053 22.2238 131.433 31.4489 130.774C41.8765 130.025 47.7575 129.045 54.3881 122.142C65.2028 110.866 59.2724 99.961 58.8441 86.1151C58.3911 72.4093 62.3941 61.3969 58.597 47.7569Z" fill="#7FE0EA"/>
<path d="M30.0158 124.696C29.1262 126.78 26.7211 133.163 26.5976 134.712C26.474 136.26 25.9963 140.337 23.4429 141.161C21.9933 141.622 21.0296 141.721 20.2965 140.724C15.3545 134.069 19.4728 119.218 22.0097 115.479C25.5515 110.306 32.3303 119.293 30.0158 124.696Z" fill="#7FE0EA"/>
<path d="M55.2112 122.225C54.3875 124.342 52.3037 130.824 52.2378 132.372C52.1719 133.921 51.8836 138.023 49.3631 138.962C47.9382 139.489 46.9745 139.629 46.2003 138.665C41.0029 132.232 44.4212 117.25 46.818 113.37C50.1292 108.041 57.2951 116.723 55.2112 122.225Z" fill="#7FE0EA"/>
<path d="M20.7075 40.3192C17.7066 41.6861 15.1145 43.8126 13.1874 46.4885C10.321 50.2609 9.42325 54.3463 8.65723 58.9671C8.27011 61.3145 6.25212 62.6406 6.18623 65.1611C6.07915 72.6317 18.5824 74.8639 24.1669 76.2229C30.6657 77.7961 37.5186 79.2211 43.169 75.1851C49.7583 70.4819 49.8159 58.094 47.5344 51.2328C45.4752 44.9235 32.0659 35.6078 20.7075 40.3192Z" fill="#FFEDE1"/>
<path d="M31.8914 86.4998C31.6647 85.9121 31.3128 85.3808 30.8602 84.9427C29.9345 83.7156 25.6333 76.7331 24.1273 74.7405C22.1185 72.081 19.1939 72.4639 17.8907 75.0472C16.2763 78.2511 18.2544 83.2467 20.6366 86.2496C21.804 87.7104 25.4903 91.6344 27.6983 90.5823L31.8914 86.4998Z" fill="#7FE0EA"/>
<path d="M30.4845 85.2749L30.5125 85.302C30.8351 85.6142 31.0998 85.98 31.2954 86.3822L27.4139 90.1613C27.0399 90.3121 26.569 90.2901 25.9969 90.0841C25.391 89.866 24.7334 89.4624 24.0818 88.9618C22.7809 87.9624 21.5961 86.6493 21.0277 85.9382C19.8739 84.4835 18.8159 82.5414 18.2449 80.5838C17.6706 78.6143 17.6119 76.7119 18.3371 75.2724L30.4845 85.2749ZM30.4845 85.2749L30.461 85.2439M30.4845 85.2749L30.461 85.2439M30.461 85.2439C30.0429 84.6895 28.9773 83.0282 27.8003 81.1932C27.6322 80.9311 27.4617 80.6653 27.2906 80.3988C25.9058 78.2421 24.4668 76.0191 23.7284 75.042L23.7283 75.0419M30.461 85.2439L23.7283 75.0419M23.7283 75.0419C22.8015 73.8149 21.72 73.3558 20.7819 73.4264M23.7283 75.0419L20.7819 73.4264M20.7819 73.4264C19.8427 73.4971 18.925 74.1072 18.3372 75.2722L20.7819 73.4264Z" stroke="url(#paint0_linear_698_6322)" stroke-opacity="0.6"/>
<path d="M3.97549 84.6069C2.86442 82.8568 2.98517 80.9173 4.49805 79.5C5.71241 78.519 10.5123 73.7552 12.4384 72.1589C15.0022 70.0347 17.7594 71.0833 18.4294 73.8902C19.2696 77.3845 16.1899 81.7888 13.2062 84.1416C11.7316 85.2936 7.28042 88.2775 5.32455 86.7319L3.97549 84.6069Z" fill="#7FE0EA"/>
<path d="M17.9432 74.0071L17.943 74.0063C17.6411 72.7411 16.8897 71.9369 15.9927 71.6519C15.0969 71.3672 13.94 71.5642 12.7575 72.5439C11.8107 73.3285 10.1442 74.9039 8.54572 76.4227C8.42109 76.5411 8.2968 76.6592 8.17326 76.7767C6.74305 78.1362 5.41327 79.4002 4.82719 79.8768C4.16112 80.5058 3.81868 81.2297 3.75072 81.9741C3.68194 82.7274 3.89112 83.5411 4.39761 84.3389L5.69737 86.3862C6.0399 86.6251 6.5123 86.7124 7.11799 86.6443C7.76058 86.5721 8.49271 86.3304 9.23991 85.9927C10.7317 85.3185 12.1777 84.3105 12.8976 83.7482C14.3422 82.6089 15.8134 80.9685 16.8167 79.1975C17.8262 77.4156 18.3207 75.5771 17.9432 74.0071Z" stroke="url(#paint1_linear_698_6322)" stroke-opacity="0.6"/>
<path d="M12.01 58.8353C13.3279 59.832 14.5634 60.7874 15.7494 61.6687C14.0115 61.7923 13.2125 61.6687 11.4746 61.817" stroke="#474747" stroke-width="1.5" stroke-linecap="round" stroke-linejoin="round"/>
<path d="M37.4361 64.4774C35.7887 64.7245 34.265 64.9634 32.7988 65.1693C34.265 66.1083 35.0145 66.413 36.4724 67.352" stroke="#474747" stroke-width="1.5" stroke-linecap="round" stroke-linejoin="round"/>
<path d="M75.5409 82.8179C74.8284 84.0518 73.2506 84.4746 72.0166 83.7622C70.7826 83.0498 68.0001 78.4642 68.0001 78.4642C68.0001 78.4642 73.3626 78.5811 74.5965 79.2936C75.8305 80.006 76.2533 81.5839 75.5409 82.8179Z" fill="#7FE0EA"/>
<path d="M75.5409 82.8179C74.8284 84.0518 73.2506 84.4746 72.0166 83.7622C70.7826 83.0498 68.0001 78.4642 68.0001 78.4642C68.0001 78.4642 73.3626 78.5811 74.5965 79.2936C75.8305 80.006 76.2533 81.5839 75.5409 82.8179Z" fill="#7FE0EA"/>
<path d="M75.5409 82.8179C74.8284 84.0518 73.2506 84.4746 72.0166 83.7622C70.7826 83.0498 68.0001 78.4642 68.0001 78.4642C68.0001 78.4642 73.3626 78.5811 74.5965 79.2936C75.8305 80.006 76.2533 81.5839 75.5409 82.8179Z" fill="#7FE0EA"/>
<path d="M74.6127 70.966C75.1525 72.0519 74.7097 73.3696 73.6239 73.9094C72.5381 74.4491 67.9773 74.2643 67.9773 74.2643C67.9773 74.2643 70.5836 70.517 71.6694 69.9772C72.7552 69.4375 74.073 69.8802 74.6127 70.966Z" fill="#7FE0EA"/>
<path d="M74.6127 70.966C75.1525 72.0519 74.7097 73.3696 73.6239 73.9094C72.5381 74.4491 67.9773 74.2643 67.9773 74.2643C67.9773 74.2643 70.5836 70.517 71.6694 69.9772C72.7552 69.4375 74.073 69.8802 74.6127 70.966Z" fill="#7FE0EA"/>
<path d="M74.6127 70.966C75.1525 72.0519 74.7097 73.3696 73.6239 73.9094C72.5381 74.4491 67.9773 74.2643 67.9773 74.2643C67.9773 74.2643 70.5836 70.517 71.6694 69.9772C72.7552 69.4375 74.073 69.8802 74.6127 70.966Z" fill="#7FE0EA"/>
<defs>
<linearGradient id="paint0_linear_698_6322" x1="16.999" y1="75.5" x2="25.499" y2="89.5" gradientUnits="userSpaceOnUse">
<stop stop-color="white"/>
<stop offset="0.708333" stop-color="white"/>
<stop offset="0.708433" stop-color="white" stop-opacity="0"/>
<stop offset="1" stop-color="white" stop-opacity="0"/>
</linearGradient>
<linearGradient id="paint1_linear_698_6322" x1="18.998" y1="75" x2="6.99805" y2="86.5" gradientUnits="userSpaceOnUse">
<stop stop-color="white"/>
<stop offset="0.713442" stop-color="white"/>
<stop offset="0.713542" stop-color="white" stop-opacity="0"/>
</linearGradient>
</defs>
</svg>
