<svg width="20" height="20" viewBox="0 0 20 20" fill="none" xmlns="http://www.w3.org/2000/svg">
<path d="M20 10.0001C20 4.47761 15.5224 0 10 0C4.47757 0 0 4.47761 0 10.0001C0 14.991 3.65631 19.1283 8.43763 19.8792V12.8914H5.8979V10.0001H8.43763V7.79644C8.43763 5.29044 9.93109 3.90525 12.2149 3.90525C13.309 3.90525 14.4537 4.10073 14.4537 4.10073V6.56173H13.1922C11.9505 6.56173 11.5624 7.33237 11.5624 8.12411V10.0001H14.3355L13.8926 12.8914H11.5624V19.8792C16.3437 19.1297 20 14.9924 20 10.0001Z" fill="white"/>
<path d="M13.8926 12.8912L14.3356 9.99987H11.5624V8.12388C11.5624 7.33355 11.9491 6.5615 13.1923 6.5615H14.4537V4.1005C14.4537 4.1005 13.309 3.90503 12.2149 3.90503C9.93114 3.90503 8.43768 5.28881 8.43768 7.79622V9.99987H5.89795V12.8912H8.43768V19.879C8.94675 19.9592 9.46847 20 10 20C10.5316 20 11.0533 19.9578 11.5624 19.879V12.8912H13.8926Z" fill="#1977F3"/>
</svg>
