<svg width="22" height="28" viewBox="0 0 22 28" fill="none" xmlns="http://www.w3.org/2000/svg">
<path fill-rule="evenodd" clip-rule="evenodd" d="M20.0799 25.1996V8.86349C20.0799 8.83166 20.0673 8.80114 20.0448 8.77864L12.8609 1.59472C12.8384 1.57221 12.8078 1.55957 12.776 1.55957H3.15992C2.47509 1.55957 1.91992 2.11474 1.91992 2.79957V25.1996C1.91992 25.8844 2.47509 26.4396 3.15992 26.4396H18.8399C19.5248 26.4396 20.0799 25.8844 20.0799 25.1996ZM3.15992 0.55957C1.9228 0.55957 0.919922 1.56245 0.919922 2.79957V25.1996C0.919922 26.4367 1.9228 27.4396 3.15992 27.4396H18.8399C20.077 27.4396 21.0799 26.4367 21.0799 25.1996V8.86349C21.0799 8.56645 20.9619 8.28157 20.7519 8.07153L13.568 0.887611C13.3579 0.67757 13.073 0.55957 12.776 0.55957H3.15992Z" fill="var(--fill, #6BA9F5)" />
</svg>
