<svg width="100" height="20" viewBox="0 0 100 20" fill="none" xmlns="http://www.w3.org/2000/svg">
<g clip-path="url(#clip0)">
<rect width="100" height="20" fill="white"/>
<path d="M55.3766 12.5321L55.1294 13.2738C56.9756 14.3513 60.2786 14.4945 61.2559 12.1612C61.3787 11.8683 61.4297 11.5503 61.4335 11.2341C61.4377 10.8769 61.4282 10.5284 61.3243 10.1834C60.9173 8.83243 59.5305 8.40404 58.3434 7.96144C57.7064 7.72398 57.068 7.48843 56.6622 6.90763C55.9063 5.82562 56.7541 4.38758 57.9107 4.07432C58.8598 3.81727 59.7242 4.16665 60.5684 4.55895C60.6792 4.30139 60.753 4.02872 60.8157 3.75546C59.8154 3.22275 58.5036 3.01666 57.4163 3.38948C55.9052 3.90755 55.021 5.66976 55.7708 7.15486C56.6303 8.85758 58.8996 8.47265 60.0538 9.75632C61.2737 11.1129 60.1886 12.895 58.5906 13.1832C57.8747 13.3123 57.1082 13.2315 56.4273 12.9836C56.0685 12.8529 55.7486 12.6172 55.3766 12.5321Z" fill="black"/>
<path d="M22 3.44629V4.18798H25.6466V13.8299H26.5119V4.18798H30.0967V3.44629H22Z" fill="black"/>
<path d="M89.1848 7.09296V6.04223H88.3813V13.8299H89.1848V12.2848V11.0486C89.1848 9.50542 88.9376 7.32084 90.7918 6.70666C91.1182 6.59862 91.4414 6.5985 91.7807 6.5985V5.85681C91.0489 5.85681 90.387 5.94198 89.8029 6.43323C89.5718 6.62779 89.3888 6.8715 89.1848 7.09296Z" fill="black"/>
<path d="M30.7148 6.04233C30.872 6.72135 31.1982 7.37428 31.4565 8.02016C31.8845 9.09023 32.3018 10.1642 32.7298 11.2341L33.2737 12.5939C33.358 12.8047 33.4926 13.0419 33.4926 13.2738C33.4926 13.6825 33.1893 14.1953 33.0388 14.5717C32.6704 15.4935 32.2691 16.4128 31.951 17.3531H32.8163C33.0809 16.3856 33.5562 15.4414 33.9288 14.5099L36.1044 9.07088L36.8708 7.15486C37.0157 6.79273 37.2 6.42789 37.2664 6.04233C37.0325 6.04233 36.5815 5.95487 36.4057 6.14141C36.2573 6.29902 36.1958 6.58648 36.1168 6.78402C35.9439 7.21611 35.7637 7.64611 35.6007 8.08197C35.0887 9.45081 34.5166 10.7977 33.9906 12.1612C33.3279 10.7444 32.8134 9.23171 32.2483 7.77293C32.0885 7.36031 31.9303 6.9475 31.7656 6.53679C31.7047 6.38524 31.6525 6.15766 31.4925 6.0796C31.285 5.97836 30.9412 6.04233 30.7148 6.04233Z" fill="black"/>
<path d="M72.1874 6.04236V10.3071C72.1874 11.1239 72.1169 12.035 72.5162 12.7793C73.3988 14.424 76.3767 14.4732 77.2556 12.7793C77.3551 13.1154 77.3174 13.4814 77.3174 13.8301H78.1827V6.04236H77.3174V9.87441C77.3174 10.6035 77.4052 11.375 77.0387 12.0377C76.3149 13.3438 74.1893 13.8438 73.2993 12.4085C72.9378 11.8244 72.9909 10.9083 72.9909 10.2452V6.04236H72.1874Z" fill="black"/>
<path fill-rule="evenodd" clip-rule="evenodd" d="M39.5525 6.04223V7.27838C39.571 7.25829 39.5895 7.23824 39.6078 7.21825C40.0507 6.73662 40.4645 6.28666 41.0977 6.04631C41.5023 5.8927 41.9054 5.85681 42.3338 5.85681C42.7853 5.85681 43.2088 5.89939 43.6318 6.07023C46.8845 7.38388 46.475 13.4283 42.8901 13.9882C42.3816 14.0677 41.8388 14.018 41.3449 13.882C40.7222 13.7105 40.3365 13.3391 39.9201 12.9381C39.8021 12.8244 39.6816 12.7084 39.5525 12.5938V17.353H38.749V6.04223H39.5525ZM39.7855 11.4194C39.1861 9.59197 39.6888 6.94273 41.9024 6.62486C43.361 6.41545 44.5227 7.44838 44.8383 8.82346C45.1461 10.1649 44.9295 12.0139 43.6949 12.8344C43.3222 13.0822 42.8965 13.1864 42.4587 13.2471C41.2272 13.4175 40.1548 12.5452 39.7855 11.4194Z" fill="black"/>
<path fill-rule="evenodd" clip-rule="evenodd" d="M48.4211 11.9139C49.4822 13.7462 51.7622 13.3888 53.3988 12.7174C53.3988 12.7718 53.4034 12.8369 53.4083 12.907C53.4238 13.1268 53.4427 13.3961 53.3353 13.5393C53.1934 13.7284 52.8043 13.8026 52.5354 13.8539C52.4894 13.8627 52.447 13.8708 52.4099 13.8787C51.5179 14.0683 50.572 14.0882 49.6904 13.8355C47.8488 13.3076 47.0806 11.4733 47.1587 9.68881C47.204 8.65509 47.5576 7.54886 48.2867 6.79444C49.3733 5.67003 51.4302 5.48298 52.6571 6.49517C53.7537 7.39978 54.0169 8.83427 54.0169 10.1833H47.9598C47.9822 10.304 48.0017 10.4248 48.0211 10.5451C48.0975 11.0183 48.1728 11.485 48.4211 11.9139ZM53.1511 9.44171H48.0211C48.0709 8.8109 48.2538 8.16898 48.6261 7.6493C49.4081 6.55741 51.0316 6.22773 52.1003 7.11337C52.7711 7.66926 53.1142 8.58556 53.1511 9.44171Z" fill="black"/>
<path fill-rule="evenodd" clip-rule="evenodd" d="M69.0961 17.353V12.5939C68.648 13.1068 68.2104 13.5775 67.551 13.8087C67.0695 13.9775 66.5763 14.0353 66.0676 14.013C61.7215 13.8224 61.7936 5.86395 66.1912 5.85688C66.5979 5.85622 66.9737 5.8578 67.3655 5.98229C68.1146 6.22037 68.5912 6.70061 69.0961 7.27845V6.0423H69.9614V17.353H69.0961ZM63.8516 11.0485C63.4233 9.26191 63.9944 6.95205 66.0686 6.62552C66.356 6.58034 66.6496 6.59177 66.9339 6.64833C68.9006 7.0392 69.3178 9.22903 69.0094 10.9249C68.8141 11.9969 68.1293 12.9993 66.9957 13.1941C66.5915 13.2635 66.2244 13.2634 65.8214 13.1831C64.7521 12.9701 64.0939 12.0581 63.8516 11.0485Z" fill="black"/>
<path fill-rule="evenodd" clip-rule="evenodd" d="M98.6497 12.9878C98.8693 12.911 99.0892 12.834 99.3202 12.7791C99.3202 12.8313 99.3241 12.8917 99.3283 12.956C99.3415 13.1619 99.3573 13.4079 99.2566 13.5511C99.1177 13.7488 98.7285 13.819 98.4578 13.8678C98.4116 13.8761 98.3688 13.8838 98.3313 13.8914C97.3974 14.081 96.4005 14.0838 95.4882 13.7836C93.7149 13.1998 93.0672 11.3391 93.142 9.62698C93.1871 8.59022 93.5579 7.46595 94.3194 6.73279C95.4913 5.60383 97.5402 5.52111 98.764 6.6098C99.7554 7.49203 100 8.91978 100 10.1832H93.943C93.9776 10.6182 94.0481 11.0691 94.1958 11.4812C94.7199 12.9406 96.283 13.452 97.7132 13.2471C98.0438 13.1998 98.3464 13.0939 98.6497 12.9878ZM99.1354 9.44188H94.0054C94.0388 8.66317 94.3262 7.85065 94.8886 7.29717C95.6996 6.49918 97.1069 6.35634 98.0229 7.06409C98.7522 7.62796 99.065 8.55272 99.1354 9.44188Z" fill="black"/>
<path fill-rule="evenodd" clip-rule="evenodd" d="M81.3301 6.9845C81.1504 7.07238 80.9709 7.16012 80.7787 7.21652C80.7774 7.15168 80.7656 7.07401 80.753 6.99194C80.7236 6.80013 80.6906 6.58434 80.7806 6.45239C80.9685 6.17712 81.5068 6.05791 81.8537 5.98107C81.889 5.97325 81.9223 5.96586 81.9531 5.9588C83.1639 5.68101 84.8691 5.78506 85.6906 6.84574C86.1801 7.47775 86.1692 8.28684 86.1589 9.05462C86.1574 9.16406 86.156 9.27265 86.156 9.37977C86.156 9.73793 86.1456 10.1016 86.1352 10.467C86.1132 11.2415 86.0909 12.024 86.1665 12.7792C86.1871 12.984 86.241 13.1803 86.2947 13.3764C86.3359 13.5264 86.377 13.6763 86.4032 13.8299H85.5379C85.4365 13.3872 85.3525 12.9889 85.3525 12.5319C84.6219 13.2955 83.8635 13.9322 82.7566 14.0097C82.162 14.0515 81.5532 13.9929 81.026 13.6955C80.0488 13.1444 79.7237 11.8855 80.1131 10.8631C80.6232 9.52423 82.1179 9.32969 83.3652 9.16735C83.4099 9.16153 83.4543 9.15576 83.4983 9.14997C83.5893 9.13799 83.6877 9.12855 83.7901 9.11873C84.2265 9.07685 84.7337 9.02817 85.0366 8.74761C85.7443 8.09245 84.9823 7.07034 84.3018 6.78968C83.5601 6.48379 82.5841 6.5218 81.8295 6.76835C81.6563 6.82497 81.4931 6.90479 81.3301 6.9845ZM83.3603 9.9563C84.0155 9.88735 84.6696 9.81851 85.229 9.50371C85.3133 9.70454 85.3044 9.94336 85.2959 10.1707C85.2933 10.2382 85.2908 10.3048 85.2908 10.369C85.2908 10.4498 85.2943 10.5345 85.2978 10.621C85.3088 10.8915 85.3205 11.1793 85.2296 11.4197C84.7278 12.7433 82.8451 13.7356 81.5206 13.0375C80.3685 12.4304 80.7332 10.6674 81.8296 10.2495C82.3083 10.067 82.8346 10.0116 83.3603 9.9563Z" fill="black"/>
<path d="M1 7H6V12H11V17L1 17.0001V7Z" fill="black"/>
<path d="M6 2H16V12H11V10H14V4H8V7H6V2Z" fill="black"/>
<path d="M11.0001 7H8V10H11.0001V7Z" fill="black"/>
</g>
<defs>
<clipPath id="clip0">
<rect width="100" height="20" fill="white"/>
</clipPath>
</defs>
</svg>
