<svg width="100" height="20" viewBox="0 0 100 20" fill="none" xmlns="http://www.w3.org/2000/svg">
<g clip-path="url(#clip0)">
<rect width="100" height="20" fill="white"/>
<path d="M55.3766 13.1063L55.1294 13.848C56.9756 14.9255 60.2786 15.0687 61.2559 12.7355C61.3787 12.4425 61.4297 12.1245 61.4335 11.8084C61.4377 11.4512 61.4282 11.1026 61.3243 10.7576C60.9173 9.40665 59.5305 8.97826 58.3434 8.53566C57.7064 8.2982 57.068 8.06265 56.6622 7.48185C55.9063 6.39984 56.7541 4.9618 57.9107 4.64854C58.8598 4.39149 59.7242 4.74087 60.5684 5.13317C60.6792 4.87561 60.753 4.60294 60.8157 4.32968C59.8154 3.79697 58.5036 3.59088 57.4163 3.9637C55.9052 4.48177 55.021 6.24398 55.7708 7.72907C56.6303 9.4318 58.8996 9.04687 60.0538 10.3305C61.2737 11.6871 60.1886 13.4692 58.5906 13.7574C57.8747 13.8866 57.1082 13.8057 56.4273 13.5578C56.0685 13.4271 55.7486 13.1914 55.3766 13.1063Z" fill="black"/>
<path d="M22 4.02051V4.76219H25.6466V14.4041H26.5119V4.76219H30.0967V4.02051H22Z" fill="black"/>
<path d="M89.1848 7.66717V6.61645H88.3813V14.4042H89.1848V12.859V11.6228C89.1848 10.0796 88.9376 7.89506 90.7918 7.28088C91.1182 7.17284 91.4414 7.17272 91.7807 7.17272V6.43103C91.0489 6.43103 90.387 6.5162 89.8029 7.00744C89.5718 7.20201 89.3888 7.44572 89.1848 7.66717Z" fill="black"/>
<path d="M30.7148 6.61655C30.872 7.29556 31.1982 7.9485 31.4565 8.59438C31.8845 9.66445 32.3018 10.7384 32.7298 11.8084L33.2737 13.1681C33.358 13.3789 33.4926 13.6161 33.4926 13.848C33.4926 14.2567 33.1893 14.7695 33.0388 15.1459C32.6704 16.0677 32.2691 16.987 31.951 17.9273H32.8163C33.0809 16.9598 33.5562 16.0156 33.9288 15.0841L36.1044 9.6451L36.8708 7.72908C37.0157 7.36695 37.2 7.0021 37.2664 6.61655C37.0325 6.61655 36.5815 6.52909 36.4057 6.71563C36.2573 6.87324 36.1958 7.1607 36.1168 7.35824C35.9439 7.79033 35.7637 8.22032 35.6007 8.65619C35.0887 10.025 34.5166 11.3719 33.9906 12.7355C33.3279 11.3187 32.8134 9.80593 32.2483 8.34715C32.0885 7.93453 31.9303 7.52172 31.7656 7.11101C31.7047 6.95946 31.6525 6.73188 31.4925 6.65382C31.285 6.55258 30.9412 6.61655 30.7148 6.61655Z" fill="black"/>
<path d="M72.1874 6.61658V10.8813C72.1874 11.6981 72.1169 12.6092 72.5162 13.3536C73.3988 14.9983 76.3767 15.0475 77.2556 13.3536C77.3551 13.6896 77.3174 14.0556 77.3174 14.4043H78.1827V6.61658H77.3174V10.4486C77.3174 11.1777 77.4052 11.9492 77.0387 12.6119C76.3149 13.918 74.1893 14.4181 73.2993 12.9827C72.9378 12.3986 72.9909 11.4825 72.9909 10.8195V6.61658H72.1874Z" fill="black"/>
<path fill-rule="evenodd" clip-rule="evenodd" d="M39.5525 6.61645V7.8526C39.571 7.83251 39.5895 7.81246 39.6078 7.79247C40.0507 7.31084 40.4645 6.86087 41.0977 6.62053C41.5023 6.46692 41.9054 6.43103 42.3338 6.43103C42.7853 6.43103 43.2088 6.47361 43.6318 6.64445C46.8845 7.9581 46.475 14.0025 42.8901 14.5624C42.3816 14.6419 41.8388 14.5922 41.3449 14.4562C40.7222 14.2847 40.3365 13.9133 39.9201 13.5123C39.8021 13.3986 39.6816 13.2826 39.5525 13.168V17.9272H38.749V6.61645H39.5525ZM39.7855 11.9936C39.1861 10.1662 39.6888 7.51695 41.9024 7.19908C43.361 6.98967 44.5227 8.0226 44.8383 9.39768C45.1461 10.7391 44.9295 12.5881 43.6949 13.4087C43.3222 13.6564 42.8965 13.7607 42.4587 13.8213C41.2272 13.9918 40.1548 13.1194 39.7855 11.9936Z" fill="black"/>
<path fill-rule="evenodd" clip-rule="evenodd" d="M48.4211 12.4881C49.4822 14.3204 51.7622 13.9631 53.3988 13.2916C53.3988 13.346 53.4034 13.4111 53.4083 13.4813C53.4238 13.7011 53.4427 13.9703 53.3353 14.1135C53.1934 14.3026 52.8043 14.3769 52.5354 14.4281C52.4894 14.4369 52.447 14.445 52.4099 14.4529C51.5179 14.6426 50.572 14.6624 49.6904 14.4097C47.8488 13.8818 47.0806 12.0475 47.1587 10.263C47.204 9.22931 47.5576 8.12308 48.2867 7.36866C49.3733 6.24425 51.4302 6.0572 52.6571 7.06939C53.7537 7.974 54.0169 9.40849 54.0169 10.7575H47.9598C47.9822 10.8782 48.0017 10.999 48.0211 11.1194C48.0975 11.5925 48.1728 12.0592 48.4211 12.4881ZM53.1511 10.0159H48.0211C48.0709 9.38512 48.2538 8.74319 48.6261 8.22352C49.4081 7.13163 51.0316 6.80195 52.1003 7.68759C52.7711 8.24348 53.1142 9.15977 53.1511 10.0159Z" fill="black"/>
<path fill-rule="evenodd" clip-rule="evenodd" d="M69.0961 17.9272V13.1681C68.648 13.681 68.2104 14.1517 67.551 14.3829C67.0695 14.5517 66.5763 14.6096 66.0676 14.5872C61.7215 14.3966 61.7936 6.43817 66.1912 6.4311C66.5979 6.43044 66.9737 6.43202 67.3655 6.5565C68.1146 6.79459 68.5912 7.27483 69.0961 7.85266V6.61652H69.9614V17.9272H69.0961ZM63.8516 11.6227C63.4233 9.83613 63.9944 7.52627 66.0686 7.19974C66.356 7.15456 66.6496 7.16599 66.9339 7.22255C68.9006 7.61341 69.3178 9.80324 69.0094 11.4991C68.8141 12.5712 68.1293 13.5735 66.9957 13.7683C66.5915 13.8377 66.2244 13.8376 65.8214 13.7573C64.7521 13.5443 64.0939 12.6323 63.8516 11.6227Z" fill="black"/>
<path fill-rule="evenodd" clip-rule="evenodd" d="M98.6497 13.562C98.8693 13.4852 99.0892 13.4083 99.3202 13.3534C99.3202 13.4055 99.3241 13.4659 99.3283 13.5302C99.3415 13.7361 99.3573 13.9821 99.2566 14.1253C99.1177 14.3231 98.7285 14.3932 98.4578 14.442C98.4116 14.4503 98.3688 14.458 98.3313 14.4656C97.3974 14.6552 96.4005 14.658 95.4882 14.3578C93.7149 13.774 93.0672 11.9133 93.142 10.2012C93.1871 9.16444 93.5579 8.04017 94.3194 7.30701C95.4913 6.17805 97.5402 6.09533 98.764 7.18401C99.7554 8.06625 100 9.494 100 10.7575H93.943C93.9776 11.1924 94.0481 11.6433 94.1958 12.0554C94.7199 13.5148 96.283 14.0263 97.7132 13.8214C98.0438 13.774 98.3464 13.6681 98.6497 13.562ZM99.1354 10.0161H94.0054C94.0388 9.23739 94.3262 8.42487 94.8886 7.87139C95.6996 7.0734 97.1069 6.93056 98.0229 7.63831C98.7522 8.20218 99.065 9.12694 99.1354 10.0161Z" fill="black"/>
<path fill-rule="evenodd" clip-rule="evenodd" d="M81.3301 7.55872C81.1504 7.6466 80.9709 7.73434 80.7787 7.79074C80.7774 7.7259 80.7656 7.64823 80.753 7.56616C80.7236 7.37435 80.6906 7.15855 80.7806 7.02661C80.9685 6.75134 81.5068 6.63213 81.8537 6.55529C81.889 6.54747 81.9223 6.54008 81.9531 6.53302C83.1639 6.25523 84.8691 6.35927 85.6906 7.41995C86.1801 8.05197 86.1692 8.86106 86.1589 9.62884C86.1574 9.73827 86.156 9.84687 86.156 9.95399C86.156 10.3121 86.1456 10.6758 86.1352 11.0412C86.1132 11.8157 86.0909 12.5982 86.1665 13.3534C86.1871 13.5582 86.241 13.7545 86.2947 13.9506C86.3359 14.1006 86.377 14.2505 86.4032 14.4041H85.5379C85.4365 13.9614 85.3525 13.5631 85.3525 13.1062C84.6219 13.8697 83.8635 14.5064 82.7566 14.584C82.162 14.6257 81.5532 14.5672 81.026 14.2697C80.0488 13.7186 79.7237 12.4597 80.1131 11.4374C80.6232 10.0984 82.1179 9.90391 83.3652 9.74157C83.4099 9.73575 83.4543 9.72998 83.4983 9.72419C83.5893 9.71221 83.6877 9.70277 83.7901 9.69294C84.2265 9.65107 84.7337 9.60239 85.0366 9.32182C85.7443 8.66667 84.9823 7.64456 84.3018 7.3639C83.5601 7.05801 82.5841 7.09602 81.8295 7.34257C81.6563 7.39919 81.4931 7.47901 81.3301 7.55872ZM83.3603 10.5305C84.0155 10.4616 84.6696 10.3927 85.229 10.0779C85.3133 10.2788 85.3044 10.5176 85.2959 10.7449C85.2933 10.8125 85.2908 10.879 85.2908 10.9432C85.2908 11.024 85.2943 11.1087 85.2978 11.1952C85.3088 11.4657 85.3205 11.7535 85.2296 11.9939C84.7278 13.3176 82.8451 14.3099 81.5206 13.6118C80.3685 13.0046 80.7332 11.2416 81.8296 10.8237C82.3083 10.6412 82.8346 10.5858 83.3603 10.5305Z" fill="black"/>
<path d="M1 7.33337H6.18096V12.6667H11.2857V18.0001H1V7.33337Z" fill="black"/>
<path d="M6.18066 2H16.3902V12.6667H11.2854V10.381H14.1045V4.36191H8.314V7.33334H6.18066V2Z" fill="black"/>
<path d="M11.2859 7.33337H8.31445V10.381H11.2859V7.33337Z" fill="black"/>
</g>
<defs>
<clipPath id="clip0">
<rect width="100" height="20" fill="white"/>
</clipPath>
</defs>
</svg>
