<svg width="100" height="20" viewBox="0 0 100 20" fill="none" xmlns="http://www.w3.org/2000/svg">
<rect width="100" height="20" fill="white" fill-opacity="0.01"/>
<path d="M61.2102 14.5688H59.7847V3.505H66.2607V4.865H61.2102V8.49604H65.7652V9.82491H61.2102V14.5688Z" fill="black" fill-opacity="0.8"/>
<path d="M68.2819 7.90192C69.0154 7.13422 69.9502 6.75037 71.0863 6.75036C72.2225 6.75037 73.1572 7.13415 73.8905 7.90169C74.6239 8.66924 74.9905 9.6299 74.9905 10.7837C74.9905 11.9374 74.6239 12.898 73.8905 13.6654C73.1572 14.4328 72.2225 14.8165 71.0863 14.8165C69.9502 14.8165 69.0154 14.4328 68.2821 13.6654C67.5488 12.898 67.1821 11.9374 67.1821 10.7837C67.1821 9.6299 67.5487 8.66932 68.2819 7.90192ZM69.3429 12.7694C69.8336 13.2689 70.4147 13.5187 71.0861 13.5187C71.7575 13.5187 72.3385 13.2689 72.8291 12.7692C73.3197 12.2695 73.565 11.6076 73.565 10.7834C73.565 9.95928 73.3197 9.29745 72.8291 8.7979C72.3385 8.29836 71.7575 8.04858 71.0861 8.04858C70.4147 8.04858 69.8337 8.29836 69.3431 8.7979C68.8525 9.29745 68.6072 9.95928 68.6072 10.7834C68.6072 11.6076 68.8524 12.2696 69.3429 12.7694Z" fill="black" fill-opacity="0.8"/>
<path d="M77.6644 6.99794V8.04858H77.7263C77.9327 7.688 78.258 7.38148 78.7022 7.12903C79.1463 6.87659 79.6214 6.75037 80.1277 6.75036C81.0676 6.75037 81.7854 7.03881 82.2811 7.61568C82.7767 8.19257 83.0245 8.96531 83.0246 9.93389V14.5694H81.5995V10.1499C81.5995 8.74902 80.9746 8.04858 79.7248 8.04858C79.136 8.04858 78.6557 8.28296 78.284 8.75168C77.9122 9.22043 77.7263 9.76382 77.7263 10.3819V14.5694H76.3008V6.99794H77.6644Z" fill="black" fill-opacity="0.8"/>
<path d="M87.9983 14.693C87.2031 14.693 86.5962 14.4818 86.1778 14.0594C85.7594 13.6371 85.5501 13.0397 85.5501 12.2673V8.29576H84.2178V6.99802H85.5501V4.67981H86.9757V6.99802H88.8347V8.29576H86.9757V12.1588C86.9757 12.9831 87.3165 13.3953 87.9983 13.3953C88.2565 13.3953 88.4733 13.3539 88.6489 13.2712L89.1449 14.4921C88.835 14.626 88.4529 14.693 87.9983 14.693Z" fill="black" fill-opacity="0.8"/>
<path d="M93.0096 14.8165C92.1627 14.8165 91.4629 14.6105 90.9104 14.1985C90.3578 13.7865 89.9523 13.2715 89.6938 12.6534L90.9643 12.1281C91.3671 13.0756 92.0541 13.5494 93.0252 13.5494C93.4694 13.5494 93.8334 13.4515 94.1174 13.2558C94.4014 13.0601 94.5434 12.8026 94.5434 12.4832C94.5434 11.9887 94.1973 11.6538 93.5051 11.4787L91.9714 11.1081C91.4859 10.9845 91.0264 10.7502 90.5927 10.405C90.1589 10.0598 89.9421 9.59374 89.9421 9.0068C89.9421 8.33718 90.239 7.79371 90.8328 7.37637C91.4267 6.95904 92.1316 6.75037 92.9477 6.75036C93.6191 6.75037 94.2181 6.90237 94.7448 7.20637C95.2715 7.51038 95.6485 7.94563 95.8758 8.51213L94.6361 9.02189C94.3574 8.35227 93.779 8.01746 92.9009 8.01746C92.4776 8.01746 92.1213 8.10502 91.8321 8.28012C91.5429 8.45523 91.3983 8.69227 91.3983 8.99124C91.3983 9.42382 91.734 9.71745 92.4054 9.87212L93.908 10.2272C94.6206 10.3919 95.1474 10.6752 95.4883 11.077C95.8292 11.4787 95.9997 11.9321 95.9997 12.437C95.9997 13.117 95.7208 13.6835 95.163 14.1367C94.6053 14.5899 93.8875 14.8165 93.0096 14.8165Z" fill="black" fill-opacity="0.8"/>
<path d="M16.4723 7.85872H10.5525V9.61068H14.7508C14.5434 12.0674 12.4941 13.1151 10.5596 13.1151C8.0847 13.1151 5.9251 11.173 5.9251 8.45083C5.9251 5.79904 7.98377 3.75678 10.5651 3.75678C12.5566 3.75678 13.7301 5.023 13.7301 5.023L14.9601 3.7527C14.9601 3.7527 13.3814 1.99988 10.5022 1.99988C6.8363 1.99988 4 5.08609 4 8.4196C4 11.6861 6.66805 14.8714 10.5958 14.8714C14.0506 14.8714 16.5794 12.5109 16.5794 9.02067C16.5794 8.28429 16.4723 7.85872 16.4723 7.85872Z" fill="black" fill-opacity="0.8"/>
<path d="M21.3211 6.59058C18.8921 6.59058 17.1514 8.48456 17.1514 10.6935C17.1514 12.9351 18.8398 14.8643 21.3496 14.8643C23.6217 14.8643 25.4831 13.1323 25.4831 10.7417C25.4831 8.00173 23.3179 6.59058 21.3211 6.59058ZM21.3452 8.21555C22.5398 8.21555 23.6716 9.17869 23.6716 10.7307C23.6716 12.2498 22.5445 13.2404 21.3398 13.2404C20.016 13.2404 18.9717 12.183 18.9717 10.7187C18.9717 9.28578 20.003 8.21555 21.3452 8.21555Z" fill="black" fill-opacity="0.8"/>
<path d="M30.3914 6.59058C27.9624 6.59058 26.2217 8.48456 26.2217 10.6935C26.2217 12.9351 27.9101 14.8643 30.4199 14.8643C32.692 14.8643 34.5534 13.1323 34.5534 10.7417C34.5534 8.00173 32.3882 6.59058 30.3914 6.59058ZM30.4156 8.21555C31.6101 8.21555 32.7419 9.17869 32.7419 10.7307C32.7419 12.2498 31.6148 13.2404 30.4101 13.2404C29.0863 13.2404 28.042 12.183 28.042 10.7187C28.042 9.28578 29.0733 8.21555 30.4156 8.21555Z" fill="black" fill-opacity="0.8"/>
<path d="M39.2842 6.59338C37.0547 6.59338 35.3022 8.54099 35.3022 10.727C35.3022 13.217 37.334 14.8682 39.2458 14.8682C40.4279 14.8682 41.0565 14.4002 41.5206 13.863V14.6788C41.5206 16.1061 40.6517 16.9607 39.3402 16.9607C38.0733 16.9607 37.4378 16.0211 37.2169 15.488L35.6228 16.1526C36.1884 17.3452 37.3267 18.589 39.3534 18.589C41.5701 18.589 43.2596 17.1964 43.2596 14.2758V6.84195H41.5206V7.54274C40.9863 6.96808 40.255 6.59338 39.2842 6.59338ZM39.4456 8.21507C40.5387 8.21507 41.6611 9.14594 41.6611 10.7357C41.6611 12.3516 40.5411 13.2422 39.4215 13.2422C38.2328 13.2422 37.1269 12.2796 37.1269 10.7511C37.1269 9.1628 38.2755 8.21507 39.4456 8.21507Z" fill="black" fill-opacity="0.8"/>
<path d="M50.9929 6.58509C48.8898 6.58509 47.124 8.25393 47.124 10.7165C47.124 13.3222 49.0923 14.8676 51.1949 14.8676C52.9499 14.8676 54.0269 13.91 54.6697 13.0521L53.2359 12.1005C52.8638 12.6764 52.2418 13.2393 51.2037 13.2393C50.0377 13.2393 49.5015 12.6025 49.1694 11.9856L54.7312 9.6839L54.4424 9.00938C53.9049 7.68842 52.6515 6.58509 50.9929 6.58509ZM51.0654 8.17609C51.8232 8.17609 52.3686 8.57795 52.6002 9.05975L48.8861 10.6081C48.726 9.40935 49.8646 8.17609 51.0654 8.17609Z" fill="black" fill-opacity="0.8"/>
<path d="M44.4722 14.6218H46.299V2.42797H44.4722V14.6218Z" fill="black" fill-opacity="0.8"/>
</svg>
