<?xml version="1.0" encoding="UTF-8"?>
<svg width="11px" height="11px" viewBox="0 0 11 11" version="1.1" xmlns="http://www.w3.org/2000/svg" xmlns:xlink="http://www.w3.org/1999/xlink">
    <!-- Generator: Sketch 47.1 (45422) - http://www.bohemiancoding.com/sketch -->
    <title>Combined Shape</title>
    <desc>Created with Sketch.</desc>
    <defs></defs>
    <g id="Pages" stroke="none" stroke-width="1" fill="none" fill-rule="evenodd">
        <g id="Artboard-10" transform="translate(-8.000000, -17.000000)" fill="#000000">
            <path d="M14,22 L14,17.5 C14,17.2238576 13.7761424,17 13.5,17 C13.2238576,17 13,17.2238576 13,17.5 L13,17.5 L13,22 L8.5,22 L8.5,22 C8.22385763,22 8,22.2238576 8,22.5 C8,22.7761424 8.22385763,23 8.5,23 L13,23 L13,27.5 C13,27.7761424 13.2238576,28 13.5,28 C13.7761424,28 14,27.7761424 14,27.5 L14,25.7083333 L14,23 L18.5,23 C18.7761424,23 19,22.7761424 19,22.5 C19,22.2238576 18.7761424,22 18.5,22 L14,22 Z" id="Combined-Shape"></path>
        </g>
    </g>
</svg>