<svg width="13" height="13" viewBox="0 0 13 13" fill="none" xmlns="http://www.w3.org/2000/svg">
<circle cx="0.5" cy="0.5" r="0.5" transform="translate(2 2)" fill="white"/>
<circle cx="0.5" cy="0.5" r="0.5" transform="translate(2 4)" fill="white"/>
<circle cx="0.5" cy="0.5" r="0.5" transform="translate(2 6)" fill="white"/>
<circle cx="0.5" cy="0.5" r="0.5" transform="translate(2 8)" fill="white"/>
<circle cx="0.5" cy="0.5" r="0.5" transform="translate(10 8)" fill="white"/>
<circle cx="0.5" cy="0.5" r="0.5" transform="translate(10 6)" fill="white"/>
<circle cx="0.5" cy="0.5" r="0.5" transform="translate(10 4)" fill="white"/>
<circle cx="0.5" cy="0.5" r="0.5" transform="translate(10 2)" fill="white"/>
<circle cx="0.5" cy="0.5" r="0.5" transform="translate(6 2)" fill="white"/>
<circle cx="0.5" cy="0.5" r="0.5" transform="translate(4 2)" fill="white"/>
<circle cx="0.5" cy="0.5" r="0.5" transform="translate(2 10)" fill="white"/>
<circle cx="0.5" cy="0.5" r="0.5" transform="translate(10 10)" fill="white"/>
<circle cx="0.5" cy="0.5" r="0.5" transform="translate(6 10)" fill="white"/>
<circle cx="0.5" cy="0.5" r="0.5" transform="translate(8 2)" fill="white"/>
<circle cx="0.5" cy="0.5" r="0.5" transform="translate(8 10)" fill="white"/>
<circle cx="0.5" cy="0.5" r="0.5" transform="translate(4 10)" fill="white"/>
<path d="M0 0L4 4" transform="translate(4.5 4.5)" stroke="white" stroke-linecap="round"/>
<path d="M4 0L0 4" transform="translate(4.5 4.5)" stroke="white" stroke-linecap="round"/>
</svg>
