<?xml version="1.0" encoding="UTF-8"?>
<svg width="15px" height="15px" viewBox="0 0 15 15" version="1.1" xmlns="http://www.w3.org/2000/svg" xmlns:xlink="http://www.w3.org/1999/xlink">
    <!-- Generator: Sketch 47.1 (45422) - http://www.bohemiancoding.com/sketch -->
    <title>i-15-delete</title>
    <desc>Created with Sketch.</desc>
    <defs></defs>
    <g id="Symbols" stroke="none" stroke-width="1" fill="none" fill-rule="evenodd">
        <g id="i-15-delete" fill="#FFFFFF">
            <g id="Group">
                <rect id="Rectangle-4" fill-opacity="0" x="0" y="0" width="15" height="15"></rect>
                <path d="M2.67225107,4.64834045 L3.87225107,12.6483405 L3.87225107,12.6483405 C3.94567906,13.1378604 4.366191,13.5 4.86118742,13.5 L10.1388126,13.5 L10.1388126,13.5 C10.633809,13.5 11.0543209,13.1378604 11.1277489,12.6483405 L12.3277489,4.64834045 L12.3277489,4.64834045 C12.4096751,4.10216599 12.0333275,3.59298982 11.487153,3.51106365 C11.4380495,3.50369811 11.3884655,3.5 11.3388126,3.5 L3.66118742,3.5 L3.66118742,3.5 C3.10890267,3.5 2.66118742,3.94771525 2.66118742,4.5 C2.66118742,4.54965292 2.66488553,4.59923688 2.67225107,4.64834045 Z" id="Line" stroke="#000000" stroke-linecap="square"></path>
                <path d="M5.5,2.5 L5.5,3.5 L9.5,3.5 L9.5,2.5 L9.5,2.5 C9.5,1.94771525 9.05228475,1.5 8.5,1.5 L6.5,1.5 L6.5,1.5 C5.94771525,1.5 5.5,1.94771525 5.5,2.5 Z" id="Line" stroke="#000000" stroke-linecap="square"></path>
                <path d="M3.5,5.5 L11.5,5.5" id="Line" stroke="#000000" stroke-linecap="square"></path>
                <path d="M5,7 L6,11.5" id="Line" stroke="#000000" stroke-linecap="round" stroke-linejoin="round"></path>
                <path d="M10,7 L9,11.5" id="Line" stroke="#000000" stroke-linecap="round" stroke-linejoin="round"></path>
                <path d="M7.5,7.5 L7.5,11.5" id="Line" stroke="#000000" stroke-linecap="round" stroke-linejoin="round"></path>
            </g>
        </g>
    </g>
</svg>