<?xml version="1.0" encoding="UTF-8"?>
<svg width="15px" height="15px" viewBox="0 0 15 15" version="1.1" xmlns="http://www.w3.org/2000/svg" xmlns:xlink="http://www.w3.org/1999/xlink">
    <!-- Generator: Sketch 42 (36781) - http://www.bohemiancoding.com/sketch -->
    <title>i-15-radius-4</title>
    <desc>Created with Sketch.</desc>
    <defs></defs>
    <g id="Symbols" stroke="none" stroke-width="1" fill="none" fill-rule="evenodd">
        <g id="i-15-radius-4">
            <g id="Group-2">
                <rect id="Rectangle" fill-opacity="0" fill="#FFFFFF" x="0" y="0" width="15" height="15"></rect>
                <path d="M3,6.5 C3,4.77614237 4.77614237,3 6.5,3 C6.77614237,3 7,2.77614237 7,2.5 C7,2.22385763 6.77614237,2 6.5,2 C4.22385763,2 2,4.22385763 2,6.5 C2,6.77614237 2.22385763,7 2.5,7 C2.77614237,7 3,6.77614237 3,6.5 Z" id="Line" fill="#0F76FF" fill-rule="nonzero"></path>
                <path d="M2,8.5 C2,10.7761424 4.22385763,13 6.5,13 C6.77614237,13 7,12.7761424 7,12.5 C7,12.2238576 6.77614237,12 6.5,12 C4.77614237,12 3,10.2238576 3,8.5 C3,8.22385763 2.77614237,8 2.5,8 C2.22385763,8 2,8.22385763 2,8.5 Z" id="Line" fill="#0F76FF" fill-rule="nonzero"></path>
                <path d="M13,6.5 C13,4.22385763 10.7761424,2 8.5,2 C8.22385763,2 8,2.22385763 8,2.5 C8,2.77614237 8.22385763,3 8.5,3 C10.2238576,3 12,4.77614237 12,6.5 C12,6.77614237 12.2238576,7 12.5,7 C12.7761424,7 13,6.77614237 13,6.5 Z" id="Line" fill="#0F76FF" fill-rule="nonzero"></path>
                <path d="M12,8.5 C12,10.2238576 10.2238576,12 8.5,12 C8.22385763,12 8,12.2238576 8,12.5 C8,12.7761424 8.22385763,13 8.5,13 C10.7761424,13 13,10.7761424 13,8.5 C13,8.22385763 12.7761424,8 12.5,8 C12.2238576,8 12,8.22385763 12,8.5 Z" id="Line" fill="#0F76FF" fill-rule="nonzero"></path>
            </g>
        </g>
    </g>
</svg>