<?xml version="1.0" encoding="UTF-8"?>
<svg width="15px" height="15px" viewBox="0 0 15 15" version="1.1" xmlns="http://www.w3.org/2000/svg" xmlns:xlink="http://www.w3.org/1999/xlink">
    <!-- Generator: Sketch 47.1 (45422) - http://www.bohemiancoding.com/sketch -->
    <title>i-15-copy</title>
    <desc>Created with Sketch.</desc>
    <defs></defs>
    <g id="Symbols" stroke="none" stroke-width="1" fill="none" fill-rule="evenodd">
        <g id="i-15-copy" fill="#FFFFFF">
            <g id="Group-2">
                <rect id="Rectangle-4-Copy" fill-opacity="0" x="0" y="0" width="15" height="15"></rect>
                <path d="M5.5,2.5 L5.5,9.5 L5.5,9.5 C5.5,10.0522847 5.94771525,10.5 6.5,10.5 L11.5,10.5 L11.5,10.5 C12.0522847,10.5 12.5,10.0522847 12.5,9.5 L12.5,2.5 L12.5,2.5 C12.5,1.94771525 12.0522847,1.5 11.5,1.5 L6.5,1.5 L6.5,1.5 C5.94771525,1.5 5.5,1.94771525 5.5,2.5 Z" id="Line" stroke="#000000" stroke-linecap="square"></path>
                <path d="M2.5,5.5 L2.5,12.5 L2.5,12.5 C2.5,13.0522847 2.94771525,13.5 3.5,13.5 L8.5,13.5 L8.5,13.5 C9.05228475,13.5 9.5,13.0522847 9.5,12.5 L9.5,5.5 L9.5,5.5 C9.5,4.94771525 9.05228475,4.5 8.5,4.5 L3.5,4.5 L3.5,4.5 C2.94771525,4.5 2.5,4.94771525 2.5,5.5 Z" id="Line" stroke="#000000" stroke-linecap="square"></path>
            </g>
        </g>
    </g>
</svg>