<svg width="16" height="16" viewBox="0 0 16 16" fill="none" xmlns="http://www.w3.org/2000/svg">
<path fill-rule="evenodd" clip-rule="evenodd" d="M8 15C11.866 15 15 11.866 15 8C15 4.13401 11.866 1 8 1C4.13401 1 1 4.13401 1 8C1 11.866 4.13401 15 8 15ZM8.66659 10.6667V12H7.33325V10.6667H8.66659ZM5.33325 6.66667C5.33325 5.19333 6.52659 4 7.99992 4C9.47325 4 10.6666 5.19333 10.6666 6.66667C10.6666 7.52194 10.1399 7.98221 9.62709 8.43036C9.1406 8.85551 8.66659 9.26975 8.66659 10H7.33325C7.33325 8.78582 7.96133 8.30439 8.51355 7.88112C8.94674 7.54907 9.33325 7.25281 9.33325 6.66667C9.33325 5.93333 8.73325 5.33333 7.99992 5.33333C7.26659 5.33333 6.66659 5.93333 6.66659 6.66667H5.33325Z" fill="black" fill-opacity="0.2"/>
</svg>
