<svg width="16" height="16" viewBox="0 0 16 16" fill="none" xmlns="http://www.w3.org/2000/svg">
<g id="Icons / 16px / Restore">
<path id="Subtract" fill-rule="evenodd" clip-rule="evenodd" d="M11.1801 2.91178C10.9973 3.20433 11.0888 3.58706 11.358 3.80275C12.5876 4.78778 13.375 6.30191 13.375 7.99994C13.375 10.9685 10.9685 13.3749 8 13.3749C5.03147 13.3749 2.625 10.9685 2.625 7.99994C2.625 5.24245 4.70147 2.96995 7.37606 2.66077C7.71896 2.62113 8 2.34512 8 1.99994V1.99994C8 1.65477 7.71929 1.37185 7.37561 1.40398C4.00954 1.71864 1.375 4.55163 1.375 7.99994C1.375 11.6588 4.34111 14.6249 8 14.6249C11.6589 14.6249 14.625 11.6588 14.625 7.99994C14.625 5.85527 13.6059 3.94862 12.0256 2.73782C11.7513 2.52772 11.3632 2.61883 11.1801 2.91178V2.91178Z" fill="#666666"/>
<path id="Vector 143" d="M13.8 2.59998L10.9774 2.78137L11.1588 5.60398" stroke="#666666" stroke-linecap="round" stroke-linejoin="round"/>
<path id="Vector 52" d="M8 5V8L5.5 9.5" stroke="#666666" stroke-width="1.25" stroke-linecap="round" stroke-linejoin="round"/>
</g>
</svg>
