<svg width="16" height="16" viewBox="0 0 16 16" fill="none" xmlns="http://www.w3.org/2000/svg">
<g clip-path="url(#clip0)">
<path d="M7.99945 11.2667C9.4133 11.2667 10.5595 10.1524 10.5595 8.77778C10.5595 7.40321 9.4133 6.28889 7.99945 6.28889C6.5856 6.28889 5.43945 7.40321 5.43945 8.77778C5.43945 10.1524 6.5856 11.2667 7.99945 11.2667Z" fill="black"/>
<path d="M5.6 1L4 3H1.5C0.62 3 0 3.64444 0 4.5V13.4444C0 14.3 0.72 15 1.6 15H14.4C15.28 15 16 14.3 16 13.4444V4.5C16 3.64444 15.38 3 14.5 3H12L10.4 1H5.6ZM8 12.6667C5.792 12.6667 4 10.9244 4 8.77778C4 6.63111 5.792 4.88889 8 4.88889C10.208 4.88889 12 6.63111 12 8.77778C12 10.9244 10.208 12.6667 8 12.6667Z" fill="black"/>
</g>
<defs>
<clipPath id="clip0">
<rect width="16" height="16" fill="white"/>
</clipPath>
</defs>
</svg>
