<svg width="16" height="16" viewBox="0 0 16 16" fill="none" xmlns="http://www.w3.org/2000/svg">
<rect width="16" height="16" fill="white"/>
<path d="M14.2223 7.45894H8.30252V9.2109H12.5008C12.2934 11.6676 10.2441 12.7154 8.30962 12.7154C5.8347 12.7154 3.6751 10.7732 3.6751 8.05105C3.6751 5.39926 5.73377 3.357 8.31509 3.357C10.3066 3.357 11.4801 4.62322 11.4801 4.62322L12.7101 3.35292C12.7101 3.35292 11.1314 1.6001 8.25223 1.6001C4.5863 1.6001 1.75 4.68631 1.75 8.01982C1.75 11.2863 4.41805 14.4716 8.34585 14.4716C11.8006 14.4716 14.3294 12.1112 14.3294 8.62089C14.3294 7.88451 14.2223 7.45894 14.2223 7.45894Z" fill="black" fill-opacity="0.8"/>
</svg>
