<svg width="16" height="16" viewBox="0 0 16 16" fill="none" xmlns="http://www.w3.org/2000/svg">
<g clip-path="url(#clip0)">
<path d="M5 10C5 10.5523 5.44772 11 6 11H10C10.5523 11 11 10.5523 11 10V7H14.5172C14.6953 7 14.7846 6.78457 14.6586 6.65858L8.70711 0.707106C8.31658 0.316582 7.68342 0.316583 7.29289 0.707107L1.34142 6.65858C1.21543 6.78457 1.30466 7 1.48284 7H5V10ZM2 14C2 13.4477 2.44772 13 3 13H13C13.5523 13 14 13.4477 14 14V14C14 14.5523 13.5523 15 13 15H3C2.44772 15 2 14.5523 2 14V14Z" fill="black"/>
</g>
<defs>
<clipPath id="clip0">
<rect width="16" height="16" fill="white"/>
</clipPath>
</defs>
</svg>
