<?xml version="1.0" encoding="UTF-8"?>
<svg width="12px" height="15px" viewBox="0 0 12 15" version="1.1" xmlns="http://www.w3.org/2000/svg" xmlns:xlink="http://www.w3.org/1999/xlink">
    <!-- Generator: Sketch 49.2 (51160) - http://www.bohemiancoding.com/sketch -->
    <title>i-18-copy</title>
    <desc>Created with Sketch.</desc>
    <defs></defs>
    <g id="Tool" stroke="none" stroke-width="1" fill="none" fill-rule="evenodd">
        <g id="Artboard-7-Copy-4" transform="translate(-521.000000, -536.000000)">
            <g id="Group-7" transform="translate(506.000000, 525.000000)">
                <g id="i-18-copy" transform="translate(12.000000, 9.000000)">
                    <polygon id="Stroke-1" fill-opacity="0" fill="#000000" points="0 0 18 0 18 18 0 18"></polygon>
                    <path d="M12.5,2.5 L4.5,2.5 C3.94771525,2.5 3.5,2.94771525 3.5,3.5 L3.5,14.5" id="Line-4" stroke-opacity="0.6" stroke="#000000" stroke-linecap="square"></path>
                    <path d="M13.5,4.5 L6.5,4.5 C5.94771525,4.5 5.5,4.94771525 5.5,5.5 L5.5,15.5 C5.5,16.0522847 5.94771525,16.5 6.5,16.5 L13.5,16.5 C14.0522847,16.5 14.5,16.0522847 14.5,15.5 L14.5,5.5 C14.5,4.94771525 14.0522847,4.5 13.5,4.5 Z" id="Line-4" stroke-opacity="0.6" stroke="#000000" stroke-linecap="square"></path>
                </g>
            </g>
        </g>
    </g>
</svg>