<?xml version="1.0" encoding="UTF-8"?>
<svg width="18px" height="18px" viewBox="0 0 18 18" version="1.1" xmlns="http://www.w3.org/2000/svg" xmlns:xlink="http://www.w3.org/1999/xlink">
    <!-- Generator: Sketch 49.1 (51147) - http://www.bohemiancoding.com/sketch -->
    <title>i-18-question</title>
    <desc>Created with Sketch.</desc>
    <defs></defs>
    <g id="i-18-question" stroke="none" stroke-width="1" fill="none" fill-rule="evenodd">
        <g id="Group-9-Copy-3" transform="translate(5.000000, 3.000000)" fill="#000000">
            <path d="M3.024,7.108 C3.024,6.8279986 3.06133296,6.59000098 3.136,6.394 C3.21066704,6.19799902 3.33666578,6.01600084 3.514,5.848 C3.77533464,5.59599874 4.01566557,5.3766676 4.235,5.19 C4.45433443,5.0033324 4.64333254,4.82833415 4.802,4.665 C4.96066746,4.50166585 5.08433289,4.34766739 5.173,4.203 C5.26166711,4.05833261 5.306,3.90666746 5.306,3.748 C5.306,3.43999846 5.21033429,3.19966753 5.019,3.027 C4.82766571,2.85433247 4.58733478,2.768 4.298,2.768 C3.85933114,2.768 3.52566781,2.88933212 3.297,3.132 C3.06833219,3.37466788 2.94000014,3.66866494 2.912,4.014 L0.756,3.874 C0.85866718,2.88466172 1.22266354,2.13100259 1.848,1.613 C2.47333646,1.09499741 3.2759951,0.836 4.256,0.836 C4.68533548,0.836 5.08899811,0.89433275 5.467,1.011 C5.84500189,1.12766725 6.17866522,1.3026655 6.468,1.536 C6.75733478,1.7693345 6.98599916,2.05866494 7.154,2.404 C7.32200084,2.74933506 7.406,3.14599776 7.406,3.594 C7.406,3.86466802 7.37800028,4.10966557 7.322,4.329 C7.26599972,4.54833443 7.17033401,4.76533226 7.035,4.98 C6.89966599,5.19466774 6.72233443,5.41166557 6.503,5.631 C6.28366557,5.85033443 6.00600168,6.09066536 5.67,6.352 C5.45533226,6.52000084 5.31066704,6.68333254 5.236,6.842 C5.16133296,7.00066746 5.124,7.15933254 5.124,7.318 L5.124,7.724 L3.024,7.724 L3.024,7.108 Z M2.786,9.796 C2.786,9.61866578 2.81866634,9.45066746 2.884,9.292 C2.94933366,9.13333254 3.04033275,8.99566725 3.157,8.879 C3.27366725,8.76233275 3.41133254,8.67133366 3.57,8.606 C3.72866746,8.54066634 3.89666578,8.508 4.074,8.508 C4.25133422,8.508 4.41933254,8.54066634 4.578,8.606 C4.73666746,8.67133366 4.87433275,8.76233275 4.991,8.879 C5.10766725,8.99566725 5.19866634,9.13333254 5.264,9.292 C5.32933366,9.45066746 5.362,9.61866578 5.362,9.796 C5.362,9.97333422 5.32933366,10.1413325 5.264,10.3 C5.19866634,10.4586675 5.10766725,10.5963328 4.991,10.713 C4.87433275,10.8296673 4.73666746,10.9206663 4.578,10.986 C4.41933254,11.0513337 4.25133422,11.084 4.074,11.084 C3.89666578,11.084 3.72866746,11.0513337 3.57,10.986 C3.41133254,10.9206663 3.27366725,10.8296673 3.157,10.713 C3.04033275,10.5963328 2.94933366,10.4586675 2.884,10.3 C2.81866634,10.1413325 2.786,9.97333422 2.786,9.796 Z" id="?"></path>
        </g>
    </g>
</svg>