<svg width="19" height="19" viewBox="0 0 19 19" fill="none" xmlns="http://www.w3.org/2000/svg">
<circle cx="0.5" cy="0.5" r="0.5" transform="translate(4 4)" fill="black"/>
<circle cx="0.5" cy="0.5" r="0.5" transform="translate(4 6)" fill="black"/>
<circle cx="0.5" cy="0.5" r="0.5" transform="translate(4 8)" fill="black"/>
<circle cx="0.5" cy="0.5" r="0.5" transform="translate(4 10)" fill="black"/>
<rect x="0.5" y="0.5" width="6" height="4" rx="1" transform="translate(6 7)" fill="white" stroke="black"/>
<circle cx="0.5" cy="0.5" r="0.5" transform="translate(4 12)" fill="black"/>
<circle cx="0.5" cy="0.5" r="0.5" transform="translate(4 14)" fill="black"/>
<circle cx="0.5" cy="0.5" r="0.5" transform="translate(12 4)" fill="black"/>
<circle cx="0.5" cy="0.5" r="0.5" transform="translate(14 6)" fill="black"/>
<circle cx="0.5" cy="0.5" r="0.5" transform="translate(14 8)" fill="black"/>
<circle cx="0.5" cy="0.5" r="0.5" transform="translate(14 10)" fill="black"/>
<circle cx="0.5" cy="0.5" r="0.5" transform="translate(14 12)" fill="black"/>
<circle cx="0.5" cy="0.5" r="0.5" transform="translate(14 14)" fill="black"/>
<circle cx="0.5" cy="0.5" r="0.5" transform="translate(10 2)" fill="black"/>
<circle cx="0.5" cy="0.5" r="0.5" transform="translate(8 2)" fill="black"/>
<circle cx="0.5" cy="0.5" r="0.5" transform="translate(6 2)" fill="black"/>
<circle cx="0.5" cy="0.5" r="0.5" transform="translate(12 16)" fill="black"/>
<circle cx="0.5" cy="0.5" r="0.5" transform="translate(10 16)" fill="black"/>
<circle cx="0.5" cy="0.5" r="0.5" transform="translate(8 16)" fill="black"/>
<circle cx="0.5" cy="0.5" r="0.5" transform="translate(6 16)" fill="black"/>
</svg>
