<svg width="19" height="19" viewBox="0 0 19 19" fill="none" xmlns="http://www.w3.org/2000/svg">
<path d="M0 2C0 0.895431 0.895431 0 2 0H5.67157C6.20201 0 6.71071 0.210714 7.08579 0.585786L9.41421 2.91421C9.78929 3.28929 10 3.79799 10 4.32843V12C10 13.1046 9.10457 14 8 14H2C0.895431 14 0 13.1046 0 12V2Z" transform="translate(4.5 2.5)" fill="white"/>
<circle cx="0.5" cy="0.5" r="0.5" transform="translate(4 4)" fill="black"/>
<circle cx="0.5" cy="0.5" r="0.5" transform="translate(4 6)" fill="black"/>
<circle cx="0.5" cy="0.5" r="0.5" transform="translate(4 8)" fill="black"/>
<circle cx="0.5" cy="0.5" r="0.5" transform="translate(4 10)" fill="black"/>
<path d="M0 0L4 4" transform="translate(7.5 7.5)" stroke="black" stroke-linecap="round"/>
<path d="M4 0L0 4" transform="translate(7.5 7.5)" stroke="black" stroke-linecap="round"/>
<circle cx="0.5" cy="0.5" r="0.5" transform="translate(4 12)" fill="black"/>
<circle cx="0.5" cy="0.5" r="0.5" transform="translate(4 14)" fill="black"/>
<circle cx="0.5" cy="0.5" r="0.5" transform="translate(12 4)" fill="black"/>
<circle cx="0.5" cy="0.5" r="0.5" transform="translate(14 6)" fill="black"/>
<circle cx="0.5" cy="0.5" r="0.5" transform="translate(14 8)" fill="black"/>
<circle cx="0.5" cy="0.5" r="0.5" transform="translate(14 10)" fill="black"/>
<circle cx="0.5" cy="0.5" r="0.5" transform="translate(14 12)" fill="black"/>
<circle cx="0.5" cy="0.5" r="0.5" transform="translate(14 14)" fill="black"/>
<circle cx="0.5" cy="0.5" r="0.5" transform="translate(10 2)" fill="black"/>
<circle cx="0.5" cy="0.5" r="0.5" transform="translate(8 2)" fill="black"/>
<circle cx="0.5" cy="0.5" r="0.5" transform="translate(6 2)" fill="black"/>
<circle cx="0.5" cy="0.5" r="0.5" transform="translate(12 16)" fill="black"/>
<circle cx="0.5" cy="0.5" r="0.5" transform="translate(10 16)" fill="black"/>
<circle cx="0.5" cy="0.5" r="0.5" transform="translate(8 16)" fill="black"/>
<circle cx="0.5" cy="0.5" r="0.5" transform="translate(6 16)" fill="black"/>
</svg>
