<svg width="20" height="20" viewBox="0 0 20 20" fill="none" xmlns="http://www.w3.org/2000/svg">
<rect width="20" height="20" fill="white"/>
<path d="M3.564 11.374V10.164C3.564 9.84133 3.57867 9.57 3.608 9.35C3.652 9.11533 3.718 8.91 3.806 8.734C3.90867 8.54333 4.03333 8.36733 4.18 8.206C4.34133 8.03 4.532 7.82467 4.752 7.59L6.446 5.874C6.81267 5.50733 6.996 5.03067 6.996 4.444C6.996 3.872 6.80533 3.41 6.424 3.058C6.05733 2.69133 5.588 2.508 5.016 2.508C4.4 2.508 3.894 2.72067 3.498 3.146C3.102 3.55667 2.87467 4.06267 2.816 4.664L0 4.444C0.088 3.74 0.271333 3.11667 0.55 2.574C0.828667 2.01667 1.188 1.54733 1.628 1.166C2.08267 0.784667 2.60333 0.498666 3.19 0.308C3.77667 0.102666 4.422 0 5.126 0C5.786 0 6.39467 0.0953334 6.952 0.286C7.524 0.476667 8.01533 0.755333 8.426 1.122C8.85133 1.474 9.18133 1.92133 9.416 2.464C9.65067 2.992 9.768 3.60067 9.768 4.29C9.768 4.774 9.702 5.19933 9.57 5.566C9.438 5.93267 9.262 6.27 9.042 6.578C8.822 6.886 8.56533 7.17933 8.272 7.458C7.99333 7.73667 7.69267 8.03 7.37 8.338C7.16467 8.52867 6.98867 8.69733 6.842 8.844C6.69533 8.99067 6.57067 9.14467 6.468 9.306C6.38 9.45267 6.314 9.62867 6.27 9.834C6.226 10.0247 6.204 10.2593 6.204 10.538V11.374H3.564ZM3.124 14.432C3.124 13.9627 3.29267 13.5593 3.63 13.222C3.982 12.8847 4.4 12.716 4.884 12.716C5.35333 12.716 5.764 12.8773 6.116 13.2C6.468 13.5227 6.644 13.9187 6.644 14.388C6.644 14.8573 6.468 15.2607 6.116 15.598C5.77867 15.9353 5.368 16.104 4.884 16.104C4.64933 16.104 4.422 16.06 4.202 15.972C3.99667 15.884 3.81333 15.7667 3.652 15.62C3.49067 15.4733 3.35867 15.2973 3.256 15.092C3.168 14.8867 3.124 14.6667 3.124 14.432Z" transform="translate(5.05591 2.02808)" fill="url(#paint0_linear)"/>
<defs>
<linearGradient id="paint0_linear" x2="1" gradientUnits="userSpaceOnUse" gradientTransform="matrix(-5.14286 25.3636 -9.81818 -2.39118 14.996 0.80388)">
<stop stop-color="#FE0D73"/>
<stop offset="1" stop-color="#FB3DDF"/>
</linearGradient>
</defs>
</svg>
