<?xml version="1.0" encoding="UTF-8"?>
<svg width="20px" height="20px" viewBox="0 0 20 20" version="1.1" xmlns="http://www.w3.org/2000/svg" xmlns:xlink="http://www.w3.org/1999/xlink">
    <!-- Generator: Sketch 49.3 (51167) - http://www.bohemiancoding.com/sketch -->
    <title>i-20-warning</title>
    <desc>Created with Sketch.</desc>
    <defs></defs>
    <g id="i-20-warning" stroke="none" stroke-width="1" fill="none" fill-rule="evenodd">
        <g id="Group-7">
            <path d="M11.7698364,3.36268925 L18.457109,16.0685071 C18.9715583,17.0459608 18.5962191,18.2553871 17.6187654,18.7698364 C17.331544,18.9210056 17.0118466,19 16.6872726,19 L3.31272743,19 C2.20815793,19 1.31272743,18.1045695 1.31272743,17 C1.31272743,16.675426 1.3917218,16.3557286 1.54289098,16.0685071 L8.23016356,3.36268925 C8.74461286,2.38523557 9.95403919,2.00989636 10.9314929,2.52434567 C11.2892497,2.71263872 11.5815434,3.00493243 11.7698364,3.36268925 Z" id="Rectangle-7" fill="#FFD42A"></path>
            <circle id="Oval-2" fill="#000000" cx="10" cy="15" r="1"></circle>
            <path d="M10,13 C10.5522847,13 11,8.05228475 11,7.5 C11,6.94771525 10.5522847,6 10,6 C9.44771525,6 9,6.94771525 9,7.5 C9,8.05228475 9.44771525,13 10,13 Z" id="Oval-2" fill="#000000"></path>
        </g>
    </g>
</svg>