<svg width="24" height="24" viewBox="0 0 24 24" fill="none" xmlns="http://www.w3.org/2000/svg">
<rect width="21.99" height="19" fill="black" fill-opacity="0" transform="translate(1 2.5)"/>
<path d="M12 6.5C14.76 6.5 17 8.74 17 11.5C17 12.15 16.87 12.76 16.64 13.33L19.56 16.25C21.07 14.99 22.26 13.36 22.99 11.5C21.26 7.11 16.99 4 11.99 4C10.59 4 9.25 4.25 8.01 4.7L10.17 6.86C10.74 6.63 11.35 6.5 12 6.5ZM2 3.77L4.28 6.05L4.74 6.51C3.08 7.8 1.78 9.52 1 11.5C2.73 15.89 7 19 12 19C13.55 19 15.03 18.7 16.38 18.16L16.8 18.58L19.73 21.5L21 20.23L3.27 2.5L2 3.77ZM7.53 9.3L9.08 10.85C9.03 11.06 9 11.28 9 11.5C9 13.16 10.34 14.5 12 14.5C12.22 14.5 12.44 14.47 12.65 14.42L14.2 15.97C13.53 16.3 12.79 16.5 12 16.5C9.24 16.5 7 14.26 7 11.5C7 10.71 7.2 9.97 7.53 9.3V9.3ZM11.84 8.52L14.99 11.67L15.01 11.51C15.01 9.85 13.67 8.51 12.01 8.51L11.84 8.52Z" fill="black"/>
</svg>
