<?xml version="1.0" encoding="UTF-8"?>
<svg width="24px" height="24px" viewBox="0 0 24 24" version="1.1" xmlns="http://www.w3.org/2000/svg" xmlns:xlink="http://www.w3.org/1999/xlink">
    <!-- Generator: Sketch 47.1 (45422) - http://www.bohemiancoding.com/sketch -->
    <title>i-24-upload-white</title>
    <desc>Created with Sketch.</desc>
    <defs></defs>
    <g id="Symbols" stroke="none" stroke-width="1" fill="none" fill-rule="evenodd">
        <g id="i-24-upload-white">
            <g id="Page-1">
                <polygon id="Stroke-1" stroke-opacity="0.00784313771" stroke="#000000" stroke-width="1.33333335e-11" points="0 0 24 0 24 24 0 24"></polygon>
                <path d="M19.3500003,10.0399999 C18.67,6.59000015 15.6400003,4 12,4 C9.10999965,4 6.5999999,5.63999986 5.3499999,8.03999996 C2.33999991,8.35999965 0,10.9099998 0,14 C0,17.3099994 2.69000005,20 6,20 L19,20 C21.7600002,20 24,17.7600002 24,15 C24,12.3599996 21.9500007,10.2200002 19.3500003,10.0399999 Z M14,13 L14,17 L10,17 L10,13 L7,13 L12,8 L17,13 L14,13 Z" id="Fill-2" fill="#FFFFFF"></path>
            </g>
        </g>
    </g>
</svg>