<svg width="25" height="24" viewBox="0 0 25 24" fill="none" xmlns="http://www.w3.org/2000/svg">
<path fill-rule="evenodd" clip-rule="evenodd" d="M1.75 6C1.75 4.48122 2.98122 3.25 4.5 3.25H20.5C22.0188 3.25 23.25 4.48122 23.25 6V16C23.25 17.5188 22.0188 18.75 20.5 18.75H4.5C2.98122 18.75 1.75 17.5188 1.75 16V6ZM4.5 4.75C3.80964 4.75 3.25 5.30964 3.25 6V16C3.25 16.6904 3.80964 17.25 4.5 17.25H20.5C21.1904 17.25 21.75 16.6904 21.75 16V6C21.75 5.30964 21.1904 4.75 20.5 4.75H4.5Z" fill="#025ECA"/>
<path fill-rule="evenodd" clip-rule="evenodd" d="M7.75 21C7.75 20.5858 8.08579 20.25 8.5 20.25L16.5 20.25C16.9142 20.25 17.25 20.5858 17.25 21C17.25 21.4142 16.9142 21.75 16.5 21.75L8.5 21.75C8.08579 21.75 7.75 21.4142 7.75 21Z" fill="#025ECA"/>
</svg>
