<svg width="24" height="24" viewBox="0 0 24 24" fill="none" xmlns="http://www.w3.org/2000/svg">
<path fill-rule="evenodd" clip-rule="evenodd" d="M4.25 4C4.25 2.48122 5.48122 1.25 7 1.25H17C18.5188 1.25 19.75 2.48122 19.75 4V17V20C19.75 21.5188 18.5188 22.75 17 22.75H7C5.48122 22.75 4.25 21.5188 4.25 20V17V4ZM18.25 4V16.25L5.75 16.25V4C5.75 3.30964 6.30964 2.75 7 2.75H17C17.6904 2.75 18.25 3.30964 18.25 4ZM18.25 17.75L5.75 17.75V20C5.75 20.6904 6.30964 21.25 7 21.25H17C17.6904 21.25 18.25 20.6904 18.25 20V17.75ZM11.5 18.75C11.0858 18.75 10.75 19.0858 10.75 19.5C10.75 19.9142 11.0858 20.25 11.5 20.25H12.5C12.9142 20.25 13.25 19.9142 13.25 19.5C13.25 19.0858 12.9142 18.75 12.5 18.75H11.5Z" fill="#9AC8FE"/>
</svg>
