<svg width="25" height="25" viewBox="0 0 25 25" fill="none" xmlns="http://www.w3.org/2000/svg">
<path d="M1 1L3 3M3 3H0M3 3V0" transform="translate(16.5 16.5)" stroke="#1475FB" stroke-linecap="round" stroke-linejoin="round"/>
<circle cx="0.5" cy="0.5" r="0.5" transform="translate(17 17) rotate(-180)" fill="#1475FB"/>
<circle cx="0.5" cy="0.5" r="0.5" transform="translate(15 15) rotate(-180)" fill="#1475FB"/>
<path d="M1 1L3 3M3 3H0M3 3V0" transform="translate(16.5 8.5) rotate(-90)" stroke="#1475FB" stroke-linecap="round" stroke-linejoin="round"/>
<circle cx="0.5" cy="0.5" r="0.5" transform="translate(17 8) rotate(90)" fill="#1475FB"/>
<circle cx="0.5" cy="0.5" r="0.5" transform="translate(15 10) rotate(90)" fill="#1475FB"/>
<path d="M1 1L3 3M3 3H0M3 3V0" transform="translate(8.5 16.5) rotate(90)" stroke="#1475FB" stroke-linecap="round" stroke-linejoin="round"/>
<circle cx="0.5" cy="0.5" r="0.5" transform="translate(8 17) rotate(-90)" fill="#1475FB"/>
<circle cx="0.5" cy="0.5" r="0.5" transform="translate(10 15) rotate(-90)" fill="#1475FB"/>
<path d="M1 1L3 3M3 3H0M3 3V0" transform="translate(8.5 8.5) rotate(-180)" stroke="#1475FB" stroke-linecap="round" stroke-linejoin="round"/>
<circle cx="0.5" cy="0.5" r="0.5" transform="translate(8 8)" fill="#1475FB"/>
<circle cx="0.5" cy="0.5" r="0.5" transform="translate(10 10)" fill="#1475FB"/>
</svg>
