<svg width="25" height="25" viewBox="0 0 25 25" fill="none" xmlns="http://www.w3.org/2000/svg">
<path fill-rule="evenodd" clip-rule="evenodd" d="M18.8796 5.8254C19.0593 5.61574 19.0351 5.30009 18.8254 5.12038C18.6157 4.94067 18.3001 4.96495 18.1204 5.17461L6.12038 19.1746C5.94067 19.3843 5.96495 19.6999 6.17461 19.8796C6.38428 20.0593 6.69993 20.0351 6.87964 19.8254L8.90358 17.4641C8.9036 17.4641 8.90361 17.4642 8.90363 17.4642L9.56786 16.6892C9.56784 16.6892 9.56783 16.6892 9.56781 16.6892L16.295 8.84078C16.295 8.84079 16.2951 8.8408 16.2951 8.84081L16.9492 8.07769C16.9492 8.07768 16.9492 8.07767 16.9491 8.07766L18.8796 5.8254ZM12.5001 6.5C13.0724 6.5 13.6267 6.58139 14.1585 6.72374L13.4218 7.58315C13.1191 7.52906 12.8115 7.5 12.5001 7.5C10.8419 7.5 9.29345 8.32353 8.00614 9.36363C6.72483 10.3989 5.75575 11.6057 5.26624 12.274C5.16565 12.4113 5.16565 12.5887 5.26624 12.726C5.64107 13.2377 6.29708 14.0652 7.15914 14.8896L6.50746 15.6499C5.56781 14.7575 4.85954 13.863 4.4595 13.3169C4.10123 12.8278 4.10123 12.1722 4.4595 11.6831C4.97508 10.9792 6.00264 9.69677 7.37768 8.58579C8.74672 7.47966 10.5143 6.5 12.5001 6.5ZM12.5001 17.5C12.1886 17.5 11.881 17.4709 11.5783 17.4169L10.8417 18.2763C11.3735 18.4186 11.9277 18.5 12.5001 18.5C14.4858 18.5 16.2534 17.5203 17.6224 16.4142C18.9975 15.3032 20.025 14.0208 20.5406 13.3169C20.8989 12.8278 20.8989 12.1722 20.5406 11.6831C20.1406 11.137 19.4323 10.2425 18.4927 9.35011L17.841 10.1104C18.7031 10.9348 19.3591 11.7623 19.7339 12.274C19.8345 12.4113 19.8345 12.5887 19.7339 12.726C19.2444 13.3943 18.2753 14.6011 16.994 15.6364C15.7067 16.6765 14.1582 17.5 12.5001 17.5Z" fill="black"/>
</svg>
