<svg width="25" height="25" viewBox="0 0 25 25" fill="none" xmlns="http://www.w3.org/2000/svg">
<path fill-rule="evenodd" clip-rule="evenodd" d="M7.37682 8.58579C8.74586 7.47966 10.5135 6.5 12.4992 6.5C14.485 6.5 16.2525 7.47966 17.6216 8.58579C18.9966 9.69677 20.0242 10.9792 20.5398 11.6831C20.898 12.1722 20.898 12.8278 20.5398 13.3169C20.0242 14.0208 18.9966 15.3032 17.6216 16.4142C16.2525 17.5203 14.485 18.5 12.4992 18.5C10.5135 18.5 8.74586 17.5203 7.37682 16.4142C6.00179 15.3032 4.97423 14.0208 4.45865 13.3169C4.10037 12.8278 4.10037 12.1722 4.45865 11.6831C4.97423 10.9792 6.00179 9.69677 7.37682 8.58579Z" fill="white"/>
<path fill-rule="evenodd" clip-rule="evenodd" d="M8.00614 9.36363C6.72483 10.3989 5.75575 11.6057 5.26624 12.274C5.16565 12.4113 5.16565 12.5887 5.26624 12.726C5.75575 13.3943 6.72483 14.6011 8.00614 15.6364C9.29345 16.6765 10.8419 17.5 12.5001 17.5C14.1582 17.5 15.7067 16.6765 16.994 15.6364C18.2753 14.6011 19.2444 13.3943 19.7339 12.726C19.8345 12.5887 19.8345 12.4113 19.7339 12.274C19.2444 11.6057 18.2753 10.3989 16.994 9.36363C15.7067 8.32353 14.1582 7.5 12.5001 7.5C10.8419 7.5 9.29345 8.32353 8.00614 9.36363ZM7.37768 8.58579C8.74672 7.47966 10.5143 6.5 12.5001 6.5C14.4858 6.5 16.2534 7.47966 17.6224 8.58579C18.9975 9.69677 20.025 10.9792 20.5406 11.6831C20.8989 12.1722 20.8989 12.8278 20.5406 13.3169C20.025 14.0208 18.9975 15.3032 17.6224 16.4142C16.2534 17.5203 14.4858 18.5 12.5001 18.5C10.5143 18.5 8.74672 17.5203 7.37768 16.4142C6.00265 15.3032 4.97508 14.0208 4.4595 13.3169C4.10123 12.8278 4.10123 12.1722 4.4595 11.6831C4.97508 10.9792 6.00264 9.69677 7.37768 8.58579Z" fill="#333333"/>
<path fill-rule="evenodd" clip-rule="evenodd" d="M11.7406 9.08261L12.5 12.5L9.08261 11.7406C9.02852 11.9851 9 12.2392 9 12.5C9 14.433 10.567 16 12.5 16C14.433 16 16 14.433 16 12.5C16 10.567 14.433 9 12.5 9C12.2392 9 11.9851 9.02852 11.7406 9.08261Z" fill="#333333"/>
<path d="M12.5 12.5L12.4458 12.744L12.8293 12.8293L12.744 12.4458L12.5 12.5ZM11.7406 9.08261L11.6866 8.83852L11.4423 8.89257L11.4965 9.13685L11.7406 9.08261ZM9.08261 11.7406L9.13685 11.4965L8.89257 11.4423L8.83852 11.6866L9.08261 11.7406ZM12.744 12.4458L11.9846 9.02838L11.4965 9.13685L12.256 12.5542L12.744 12.4458ZM9.02838 11.9846L12.4458 12.744L12.5542 12.256L9.13685 11.4965L9.02838 11.9846ZM9.25 12.5C9.25 12.2575 9.27652 12.0215 9.32671 11.7946L8.83852 11.6866C8.78053 11.9487 8.75 12.2209 8.75 12.5H9.25ZM12.5 15.75C10.7051 15.75 9.25 14.2949 9.25 12.5H8.75C8.75 14.5711 10.4289 16.25 12.5 16.25V15.75ZM15.75 12.5C15.75 14.2949 14.2949 15.75 12.5 15.75V16.25C14.5711 16.25 16.25 14.5711 16.25 12.5H15.75ZM12.5 9.25C14.2949 9.25 15.75 10.7051 15.75 12.5H16.25C16.25 10.4289 14.5711 8.75 12.5 8.75V9.25ZM11.7946 9.32671C12.0215 9.27652 12.2575 9.25 12.5 9.25V8.75C12.2209 8.75 11.9487 8.78053 11.6866 8.83852L11.7946 9.32671Z" fill="#333333"/>
</svg>
