<svg width="25" height="25" viewBox="0 0 25 25" fill="none" xmlns="http://www.w3.org/2000/svg">
<path d="M0 2C0 0.895431 0.895431 0 2 0H9.17157C9.70201 0 10.2107 0.210714 10.5858 0.585786L13.4142 3.41421C13.7893 3.78929 14 4.29799 14 4.82843V16C14 17.1046 13.1046 18 12 18H2C0.895431 18 0 17.1046 0 16V2Z" transform="translate(5.5 3.5)" fill="none"/>
<path fill-rule="evenodd" clip-rule="evenodd" d="M2.5 1C1.67157 1 1 1.67157 1 2.5V16.5C1 17.3284 1.67157 18 2.5 18H12.5C13.3284 18 14 17.3284 14 16.5V5.32843C14 4.9306 13.842 4.54907 13.5607 4.26777L10.7322 1.43934C10.4509 1.15804 10.0694 1 9.67157 1H2.5ZM0 2.5C0 1.11929 1.11929 0 2.5 0H9.67157C10.3346 0 10.9705 0.263392 11.4393 0.732233L14.2678 3.56066C14.7366 4.0295 15 4.66539 15 5.32843V16.5C15 17.8807 13.8807 19 12.5 19H2.5C1.11929 19 0 17.8807 0 16.5V2.5Z" transform="translate(5 3)" fill="black"/>
</svg>
