<svg width="25" height="25" viewBox="0 0 25 25" fill="none" xmlns="http://www.w3.org/2000/svg">
<path d="M15.5 7H17.2929L14.1464 10.1464L14.8536 10.8536L18 7.70711V9.5H19V6H15.5V7Z" fill="#111111"/>
<path d="M7 17.2929L10.1464 14.1464L10.8536 14.8536L7.70711 18H9.5V19H6V15.5H7L7 17.2929Z" fill="#111111"/>
<path d="M18 17.2929V15.5H19V19H15.5V18H17.2929L14.1464 14.8536L14.8536 14.1464L18 17.2929Z" fill="#111111"/>
<path d="M7 9.5L7 7.70711L10.1464 10.8536L10.8536 10.1464L7.70711 7L9.5 7V6H6V9.5H7Z" fill="#111111"/>
</svg>
