<svg width="34" height="14" viewBox="0 0 34 14" fill="none" xmlns="http://www.w3.org/2000/svg">
<rect x="0.5" y="0.5" width="33" height="13" rx="1.5" stroke="black" stroke-opacity="0.9"/>
<path d="M4.5 3C4.22386 3 4 3.22386 4 3.5C4 3.77614 4.22386 4 4.5 4V3ZM6.5 4C6.77614 4 7 3.77614 7 3.5C7 3.22386 6.77614 3 6.5 3V4ZM5.5 10.5V11H6V10.5H5.5ZM4.5 10C4.22386 10 4 10.2239 4 10.5C4 10.7761 4.22386 11 4.5 11V10ZM6.5 11C6.77614 11 7 10.7761 7 10.5C7 10.2239 6.77614 10 6.5 10V11ZM4.5 4H5.5V3H4.5V4ZM5.5 4H6.5V3H5.5V4ZM5 3.5V10.5H6V3.5H5ZM5.5 10H4.5V11H5.5V10ZM4.5 11H6.5V10H4.5V11Z" fill="black"/>
</svg>
