<svg width="25" height="25" viewBox="0 0 25 25" fill="none" xmlns="http://www.w3.org/2000/svg">
<path fill-rule="evenodd" clip-rule="evenodd" d="M7.5 7C6.67157 7 6 7.67157 6 8.5V19.5C6 20.3284 6.67157 21 7.5 21H14.5C15.3284 21 16 20.3284 16 19.5V19H10.5C9.11929 19 8 17.8807 8 16.5V7H7.5ZM5 8.5C5 7.11929 6.11929 6 7.5 6H9V16.5C9 17.3284 9.67157 18 10.5 18H17V19.5C17 20.8807 15.8807 22 14.5 22H7.5C6.11929 22 5 20.8807 5 19.5V8.5Z" fill="black"/>
<path fill-rule="evenodd" clip-rule="evenodd" d="M10.5 4C9.67157 4 9 4.67157 9 5.5V16.5C9 17.3284 9.67157 18 10.5 18H17.5C18.3284 18 19 17.3284 19 16.5V7.32843C19 6.9306 18.842 6.54907 18.5607 6.26777L16.7322 4.43934C16.4509 4.15804 16.0694 4 15.6716 4H10.5ZM8 5.5C8 4.11929 9.11929 3 10.5 3H15.6716C16.3346 3 16.9705 3.26339 17.4393 3.73223L19.2678 5.56066C19.7366 6.0295 20 6.66539 20 7.32843V16.5C20 17.8807 18.8807 19 17.5 19H10.5C9.11929 19 8 17.8807 8 16.5V5.5Z" fill="black"/>
</svg>
