<svg width="25" height="25" viewBox="0 0 25 25" fill="none" xmlns="http://www.w3.org/2000/svg">
<path d="M20.9872 9.78311C20.9833 9.76253 20.9799 9.74194 20.9744 9.72175C20.9709 9.7096 20.9668 9.69818 20.9629 9.68623C20.9574 9.66828 20.9511 9.65056 20.9442 9.6331C20.9391 9.62101 20.9334 9.60933 20.9279 9.59764C20.9202 9.58114 20.9119 9.56496 20.9029 9.54916C20.8965 9.53747 20.8892 9.52645 20.8821 9.51529C20.8651 9.48884 20.8465 9.46351 20.8262 9.43946C20.8147 9.42583 20.8026 9.41263 20.7901 9.39988C20.7805 9.39025 20.7708 9.38062 20.7607 9.37126C20.7474 9.35913 20.7336 9.34761 20.7193 9.33673C20.7083 9.32823 20.6976 9.31946 20.6861 9.31169C20.682 9.30877 20.6783 9.30532 20.674 9.30253L12.905 4.12278C12.7851 4.04272 12.6441 4 12.4999 4C12.3557 4 12.2147 4.04272 12.0948 4.12278L4.32526 9.30239C4.32094 9.30512 4.31756 9.30857 4.31317 9.31156C4.30175 9.31953 4.29099 9.32803 4.27997 9.33653C4.26586 9.34761 4.25204 9.35906 4.23853 9.37086C4.2285 9.38003 4.2188 9.38955 4.20944 9.39941C4.19663 9.4123 4.18474 9.42531 4.17305 9.43906C4.16442 9.44935 4.15612 9.45965 4.14809 9.47113C4.13713 9.48554 4.12703 9.50022 4.11721 9.51556C4.1101 9.52678 4.103 9.53774 4.09636 9.54943C4.08744 9.5651 4.0792 9.58114 4.07165 9.59751C4.06614 9.60919 4.06023 9.62108 4.05538 9.63297C4.04828 9.65037 4.0421 9.66823 4.03639 9.68609C4.03254 9.69805 4.02842 9.70967 4.02517 9.72043C4.01986 9.74055 4.016 9.76093 4.01235 9.78179C4.01036 9.79234 4.00777 9.80264 4.00637 9.8134C4.00226 9.84494 4 9.87655 4 9.90882V15.0896C4 15.1216 4.00226 15.1537 4.00684 15.1851C4.0085 15.1965 4.01149 15.2056 4.01375 15.2167C4.0174 15.2373 4.02059 15.2578 4.02749 15.2785C4.03068 15.2899 4.03433 15.3014 4.03891 15.314C4.04462 15.3323 4.05034 15.3506 4.05724 15.3673C4.06202 15.3788 4.06866 15.3902 4.07325 15.4017C4.08082 15.4177 4.08932 15.4337 4.09848 15.4504C4.10486 15.4618 4.11216 15.4733 4.11907 15.4838C4.12889 15.4999 4.13965 15.5136 4.15107 15.5273C4.15911 15.5388 4.16714 15.5479 4.17631 15.5589C4.18793 15.5727 4.19915 15.5864 4.2129 15.5986C4.22226 15.6077 4.23123 15.6192 4.24265 15.626C4.25593 15.6375 4.27014 15.6489 4.28382 15.6608C4.29484 15.67 4.3068 15.6769 4.31589 15.6858C4.32028 15.688 4.3228 15.6926 4.32738 15.6947L12.0948 20.8771C12.2144 20.9578 12.3556 21.0007 12.5 21C12.6442 20.9997 12.7851 20.957 12.9052 20.8771L20.6747 15.6974C20.6791 15.6947 20.6827 15.6915 20.6868 15.6885C20.6982 15.6805 20.709 15.672 20.72 15.6636C20.7342 15.6523 20.7482 15.6407 20.7615 15.6288C20.7715 15.6198 20.7811 15.61 20.7908 15.6004C20.8128 15.5781 20.8332 15.5543 20.8518 15.5292C20.8629 15.5148 20.873 15.4999 20.8828 15.4848C20.8899 15.4738 20.897 15.4626 20.9036 15.4514C20.9128 15.4353 20.9208 15.4191 20.9285 15.4026C20.9341 15.3909 20.9398 15.3792 20.9448 15.3673C20.9519 15.3497 20.9579 15.3318 20.9636 15.314C20.9675 15.3021 20.9716 15.2904 20.975 15.2785C20.9803 15.2584 20.984 15.2377 20.9878 15.2171C20.9897 15.2066 20.9925 15.1963 20.9936 15.1855C20.9977 15.154 21 15.1224 21 15.0901V9.91015C21 9.87788 20.9975 9.84627 20.9936 9.81466C20.9918 9.80343 20.9883 9.79434 20.9861 9.78311H20.9872ZM12.4998 14.2281L9.91627 12.5001L12.4998 10.7719L15.0835 12.5001L12.4998 14.2281ZM11.7695 9.50288L8.60242 11.6213L6.04598 9.91101L11.7695 6.0954V9.50288H11.7695ZM7.28857 12.4998L5.46127 13.7221V11.2776L7.28857 12.4998ZM8.60242 13.3794L11.7695 15.4975V18.905L6.04598 15.0889L8.60248 13.3789V13.3794H8.60242ZM13.2303 15.4971L16.3973 13.379L18.954 15.0889L13.2303 18.9045V15.497V15.4971ZM17.7112 12.5003L19.5387 11.2778V13.7226L17.7112 12.4998V12.5003ZM16.3973 11.6212L13.2303 9.50308V6.0954L18.954 9.91108L16.3974 11.6212H16.3973Z" fill="white"/>
</svg>
