<svg width="25" height="25" viewBox="0 0 25 25" fill="none" xmlns="http://www.w3.org/2000/svg">
<path d="M9.5 0C4.25312 0 0 4.25312 0 9.5C0 14.7469 4.25312 19 9.5 19C14.7469 19 19 14.7469 19 9.5C19 4.25377 14.7469 0.000648243 9.5 0ZM13.8568 13.7013C13.6864 13.9813 13.3214 14.0688 13.0426 13.8983C10.812 12.5351 8.00386 12.2272 4.69717 12.9824C4.37823 13.0556 4.06059 12.856 3.98799 12.537C3.91474 12.2181 4.11375 11.9004 4.43333 11.8278C8.05183 11.0013 11.1563 11.3572 13.6604 12.8871C13.9392 13.0589 14.028 13.4225 13.8568 13.7013V13.7013ZM15.0191 11.1154C14.8046 11.4642 14.3482 11.5731 14.0001 11.3592C11.4473 9.78976 7.55397 9.33535 4.53381 10.252C4.14227 10.3706 3.72869 10.1495 3.60942 9.75865C3.49144 9.36711 3.71249 8.95418 4.10338 8.8349C7.55333 7.78799 11.8427 8.29492 14.7748 10.097C15.1235 10.3116 15.2337 10.7673 15.0191 11.1154ZM15.119 8.42132C12.0567 6.603 7.00556 6.43576 4.08199 7.32255C3.61266 7.46517 3.1161 7.20003 2.97414 6.73071C2.83217 6.26138 3.09666 5.76482 3.56663 5.62221C6.92259 4.60382 12.5007 4.80024 16.0259 6.89277C16.4479 7.14364 16.5866 7.68881 16.3364 8.11017C16.0868 8.53282 15.5403 8.67219 15.119 8.42132Z" transform="translate(3 3)" fill="#2EBD59"/>
</svg>
