<?xml version="1.0" encoding="UTF-8"?>
<svg width="25px" height="25px" viewBox="0 0 25 25" version="1.1" xmlns="http://www.w3.org/2000/svg" xmlns:xlink="http://www.w3.org/1999/xlink">
    <!-- Generator: Sketch 42 (36781) - http://www.bohemiancoding.com/sketch -->
    <title>i-25-brightness</title>
    <desc>Created with Sketch.</desc>
    <defs></defs>
    <g id="Symbols" stroke="none" stroke-width="1" fill="none" fill-rule="evenodd">
        <g id="i-25-brightness">
            <g>
                <rect id="Rectangle-4" x="0" y="0" width="25" height="25"></rect>
                <path d="M12.5,17 C14.9852814,17 17,14.9852814 17,12.5 C17,10.0147186 14.9852814,8 12.5,8 C10.0147186,8 8,10.0147186 8,12.5 C8,14.9852814 10.0147186,17 12.5,17 Z M12.5,18 C9.46243388,18 7,15.5375661 7,12.5 C7,9.46243388 9.46243388,7 12.5,7 C15.5375661,7 18,9.46243388 18,12.5 C18,15.5375661 15.5375661,18 12.5,18 Z" id="Oval-12" fill="#757575" fill-rule="nonzero"></path>
                <path d="M13,4.5 C13,4.77614237 12.7761424,5 12.5,5 C12.2238576,5 12,4.77614237 12,4.5 L12,2.5 C12,2.22385763 12.2238576,2 12.5,2 C12.7761424,2 13,2.22385763 13,2.5 L13,4.5 Z M13,22.5 C13,22.7761424 12.7761424,23 12.5,23 C12.2238576,23 12,22.7761424 12,22.5 L12,20.5 C12,20.2238576 12.2238576,20 12.5,20 C12.7761424,20 13,20.2238576 13,20.5 L13,22.5 Z M7.19669914,6.48959236 C7.39196129,6.68485451 7.39196129,7.001437 7.19669914,7.19669914 C7.001437,7.39196129 6.68485451,7.39196129 6.48959236,7.19669914 L5.0753788,5.78248558 C4.88011665,5.58722343 4.88011665,5.27064094 5.0753788,5.0753788 C5.27064094,4.88011665 5.58722343,4.88011665 5.78248558,5.0753788 L7.19669914,6.48959236 Z M19.9246212,19.2175144 C20.1198833,19.4127766 20.1198833,19.7293591 19.9246212,19.9246212 C19.7293591,20.1198833 19.4127766,20.1198833 19.2175144,19.9246212 L17.8033009,18.5104076 C17.6080387,18.3151455 17.6080387,17.998563 17.8033009,17.8033009 C17.998563,17.6080387 18.3151455,17.6080387 18.5104076,17.8033009 L19.9246212,19.2175144 Z M20.5,13 C20.2238576,13 20,12.7761424 20,12.5 C20,12.2238576 20.2238576,12 20.5,12 L22.5,12 C22.7761424,12 23,12.2238576 23,12.5 C23,12.7761424 22.7761424,13 22.5,13 L20.5,13 Z M2.5,13 C2.22385763,13 2,12.7761424 2,12.5 C2,12.2238576 2.22385763,12 2.5,12 L4.5,12 C4.77614237,12 5,12.2238576 5,12.5 C5,12.7761424 4.77614237,13 4.5,13 L2.5,13 Z M18.5104076,7.19669914 C18.3151455,7.39196129 17.998563,7.39196129 17.8033009,7.19669914 C17.6080387,7.001437 17.6080387,6.68485451 17.8033009,6.48959236 L19.2175144,5.0753788 C19.4127766,4.88011665 19.7293591,4.88011665 19.9246212,5.0753788 C20.1198833,5.27064094 20.1198833,5.58722343 19.9246212,5.78248558 L18.5104076,7.19669914 Z M5.78248558,19.9246212 C5.58722343,20.1198833 5.27064094,20.1198833 5.0753788,19.9246212 C4.88011665,19.7293591 4.88011665,19.4127766 5.0753788,19.2175144 L6.48959236,17.8033009 C6.68485451,17.6080387 7.001437,17.6080387 7.19669914,17.8033009 C7.39196129,17.998563 7.39196129,18.3151455 7.19669914,18.5104076 L5.78248558,19.9246212 Z" id="Combined-Shape" fill="#757575" fill-rule="nonzero"></path>
            </g>
        </g>
    </g>
</svg>