<svg width="25" height="25" viewBox="0 0 25 25" fill="none" xmlns="http://www.w3.org/2000/svg">
<path d="M3.24996 6.49992C5.04394 6.49992 6.49992 5.04394 6.49992 3.24996V0H3.24996C1.45598 0 0 1.45598 0 3.24996C0 5.04394 1.45598 6.49992 3.24996 6.49992Z" transform="translate(6 16)" fill="#0ACF83"/>
<path d="M0 3.24996C0 1.45598 1.45598 0 3.24996 0H6.49992V6.49992H3.24996C1.45598 6.49992 0 5.04394 0 3.24996Z" transform="translate(6 9.49991)" fill="#A259FF"/>
<path d="M0 3.24996C0 1.45598 1.45598 0 3.24996 0H6.49992V6.49992H3.24996C1.45598 6.49992 0 5.04394 0 3.24996Z" transform="translate(6 3)" fill="#F24E1E"/>
<path d="M0 0H3.24996C5.04394 0 6.49992 1.45598 6.49992 3.24996C6.49992 5.04394 5.04394 6.49992 3.24996 6.49992H0V0Z" transform="translate(12.5 3)" fill="#FF7262"/>
<path d="M6.49992 3.24996C6.49992 5.04394 5.04394 6.49992 3.24996 6.49992C1.45598 6.49992 0 5.04394 0 3.24996C0 1.45598 1.45598 0 3.24996 0C5.04394 0 6.49992 1.45598 6.49992 3.24996Z" transform="translate(12.5 9.49991)" fill="#1ABCFE"/>
</svg>
