<?xml version="1.0" encoding="UTF-8"?>
<svg width="25px" height="25px" viewBox="0 0 25 25" version="1.1" xmlns="http://www.w3.org/2000/svg" xmlns:xlink="http://www.w3.org/1999/xlink">
    <!-- Generator: Sketch 42 (36781) - http://www.bohemiancoding.com/sketch -->
    <title>i-25-contrast-active</title>
    <desc>Created with Sketch.</desc>
    <defs>
        <linearGradient x1="0%" y1="0%" x2="100%" y2="100%" id="linearGradient-1">
            <stop stop-color="#EC396A" offset="0%"></stop>
            <stop stop-color="#D375F1" offset="100%"></stop>
        </linearGradient>
    </defs>
    <g id="Symbols" stroke="none" stroke-width="1" fill="none" fill-rule="evenodd">
        <g id="i-25-contrast-active">
            <g id="i-25-contrast">
                <rect id="Rectangle-2" x="0" y="0" width="25" height="25"></rect>
                <path d="M12.5,21 C17.1944204,21 21,17.1944204 21,12.5 C21,7.80557963 17.1944204,4 12.5,4 C7.80557963,4 4,7.80557963 4,12.5 C4,17.1944204 7.80557963,21 12.5,21 Z M12.5,22 C7.25329488,22 3,17.7467051 3,12.5 C3,7.25329488 7.25329488,3 12.5,3 C17.7467051,3 22,7.25329488 22,12.5 C22,17.7467051 17.7467051,22 12.5,22 Z" id="Oval-2" fill="url(#linearGradient-1)" fill-rule="nonzero"></path>
                <path d="M12.5,22 C17.7467051,22 22,17.7467051 22,12.5 C22,7.25329488 17.7467051,3 12.5,3 L12.5,22 Z" id="Oval-2" fill-opacity="0.3" fill="url(#linearGradient-1)"></path>
                <polygon id="Line" fill="url(#linearGradient-1)" fill-rule="nonzero" points="12 3 12 22 13 22 13 3"></polygon>
            </g>
        </g>
    </g>
</svg>