<svg width="25" height="25" viewBox="0 0 25 25" fill="none" xmlns="http://www.w3.org/2000/svg">
<g clip-path="url(#clip0)">
<rect x="7.5" y="7.5" width="10" height="10" rx="1.5" fill="white" stroke="#006BFF"/>
<path fill-rule="evenodd" clip-rule="evenodd" d="M9.5 -4C9.3649 -4 9.23472 -3.98227 9.11129 -3.94927C8.84452 -3.87796 8.57044 -4.03642 8.49913 -4.3032C8.42782 -4.56997 8.58628 -4.84404 8.85305 -4.91536C9.05996 -4.97066 9.27694 -5 9.5 -5H10C10.2761 -5 10.5 -4.77614 10.5 -4.5C10.5 -4.22386 10.2761 -4 10 -4H9.5ZM11.5 -4.5C11.5 -4.77614 11.7239 -5 12 -5H13C13.2761 -5 13.5 -4.77614 13.5 -4.5C13.5 -4.22386 13.2761 -4 13 -4H12C11.7239 -4 11.5 -4.22386 11.5 -4.5ZM14.5 -4.5C14.5 -4.77614 14.7239 -5 15 -5H15.5C15.7231 -5 15.94 -4.97066 16.1469 -4.91536C16.4137 -4.84404 16.5722 -4.56997 16.5009 -4.3032C16.4296 -4.03642 16.1555 -3.87796 15.8887 -3.94927C15.7653 -3.98227 15.6351 -4 15.5 -4H15C14.7239 -4 14.5 -4.22386 14.5 -4.5ZM7.6968 -3.50087C7.96358 -3.42956 8.12204 -3.15548 8.05073 -2.88871C8.01773 -2.76528 8 -2.6351 8 -2.5V-2C8 -1.72386 7.77614 -1.5 7.5 -1.5C7.22386 -1.5 7 -1.72386 7 -2V-2.5C7 -2.72306 7.02934 -2.94004 7.08464 -3.14695C7.15596 -3.41372 7.43003 -3.57218 7.6968 -3.50087ZM17.3032 -3.50087C17.57 -3.57218 17.844 -3.41372 17.9154 -3.14695C17.9707 -2.94004 18 -2.72306 18 -2.5V-2C18 -1.72386 17.7761 -1.5 17.5 -1.5C17.2239 -1.5 17 -1.72386 17 -2V-2.5C17 -2.6351 16.9823 -2.76528 16.9493 -2.88871C16.878 -3.15548 17.0364 -3.42956 17.3032 -3.50087ZM7.5 -0.5C7.77614 -0.5 8 -0.276142 8 0V1C8 1.27614 7.77614 1.5 7.5 1.5C7.22386 1.5 7 1.27614 7 1V0C7 -0.276142 7.22386 -0.5 7.5 -0.5ZM17.5 -0.5C17.7761 -0.5 18 -0.276143 18 0V1C18 1.27614 17.7761 1.5 17.5 1.5C17.2239 1.5 17 1.27614 17 1V0C17 -0.276143 17.2239 -0.5 17.5 -0.5ZM7.5 2.5C7.77614 2.5 8 2.72386 8 3V3.5C8 3.6351 8.01773 3.76528 8.05073 3.88871C8.12204 4.15548 7.96358 4.42956 7.6968 4.50087C7.43003 4.57218 7.15596 4.41372 7.08464 4.14694C7.02934 3.94004 7 3.72306 7 3.5V3C7 2.72386 7.22386 2.5 7.5 2.5ZM17.5 2.5C17.7761 2.5 18 2.72386 18 3V3.5C18 3.72306 17.9707 3.94004 17.9154 4.14695C17.844 4.41372 17.57 4.57218 17.3032 4.50087C17.0364 4.42956 16.878 4.15548 16.9493 3.88871C16.9823 3.76528 17 3.6351 17 3.5V3C17 2.72386 17.2239 2.5 17.5 2.5ZM8.49913 5.30319C8.57044 5.03642 8.84452 4.87796 9.11129 4.94927C9.23472 4.98227 9.3649 5 9.5 5H10C10.2761 5 10.5 5.22386 10.5 5.5C10.5 5.77614 10.2761 6 10 6H9.5C9.27694 6 9.05996 5.97066 8.85305 5.91536C8.58628 5.84404 8.42782 5.56997 8.49913 5.30319ZM16.5009 5.3032C16.5722 5.56997 16.4137 5.84404 16.1469 5.91536C15.94 5.97066 15.7231 6 15.5 6H15C14.7239 6 14.5 5.77614 14.5 5.5C14.5 5.22386 14.7239 5 15 5H15.5C15.6351 5 15.7653 4.98227 15.8887 4.94927C16.1555 4.87796 16.4296 5.03642 16.5009 5.3032ZM11.5 5.5C11.5 5.22386 11.7239 5 12 5H13C13.2761 5 13.5 5.22386 13.5 5.5C13.5 5.77614 13.2761 6 13 6H12C11.7239 6 11.5 5.77614 11.5 5.5Z" fill="#006BFF"/>
</g>
<defs>
<clipPath id="clip0">
<rect width="25" height="25" fill="white"/>
</clipPath>
</defs>
</svg>
