<svg width="25" height="25" viewBox="0 0 25 25" fill="none" xmlns="http://www.w3.org/2000/svg">
<circle cx="0.5" cy="0.5" r="0.5" transform="translate(6 6)" fill="#1475FB"/>
<circle cx="0.5" cy="0.5" r="0.5" transform="translate(6 8)" fill="#1475FB"/>
<circle cx="0.5" cy="0.5" r="0.5" transform="translate(6 10)" fill="#1475FB"/>
<circle cx="0.5" cy="0.5" r="0.5" transform="translate(6 12)" fill="#1475FB"/>
<circle cx="0.5" cy="0.5" r="0.5" transform="translate(6 14)" fill="#1475FB"/>
<circle cx="0.5" cy="0.5" r="0.5" transform="translate(6 16)" fill="#1475FB"/>
<circle cx="0.5" cy="0.5" r="0.5" transform="translate(6 18)" fill="#1475FB"/>
<circle cx="0.5" cy="0.5" r="0.5" transform="translate(8 18)" fill="#1475FB"/>
<circle cx="0.5" cy="0.5" r="0.5" transform="translate(10 18)" fill="#1475FB"/>
<circle cx="0.5" cy="0.5" r="0.5" transform="translate(12 18)" fill="#1475FB"/>
<circle cx="0.5" cy="0.5" r="0.5" transform="translate(14 18)" fill="#1475FB"/>
<circle cx="0.5" cy="0.5" r="0.5" transform="translate(16 18)" fill="#1475FB"/>
<circle cx="0.5" cy="0.5" r="0.5" transform="translate(18 18)" fill="#1475FB"/>
<circle cx="0.5" cy="0.5" r="0.5" transform="translate(18 16)" fill="#1475FB"/>
<circle cx="0.5" cy="0.5" r="0.5" transform="translate(18 14)" fill="#1475FB"/>
<circle cx="0.5" cy="0.5" r="0.5" transform="translate(18 12)" fill="#1475FB"/>
<circle cx="0.5" cy="0.5" r="0.5" transform="translate(18 10)" fill="#1475FB"/>
<circle cx="0.5" cy="0.5" r="0.5" transform="translate(18 8)" fill="#1475FB"/>
<circle cx="0.5" cy="0.5" r="0.5" transform="translate(18 6)" fill="#1475FB"/>
<circle cx="0.5" cy="0.5" r="0.5" transform="translate(16 6)" fill="#1475FB"/>
<circle cx="0.5" cy="0.5" r="0.5" transform="translate(14 6)" fill="#1475FB"/>
<circle cx="0.5" cy="0.5" r="0.5" transform="translate(12 6)" fill="#1475FB"/>
<circle cx="0.5" cy="0.5" r="0.5" transform="translate(10 6)" fill="#1475FB"/>
<circle cx="0.5" cy="0.5" r="0.5" transform="translate(8 6)" fill="#1475FB"/>
</svg>
