<?xml version="1.0" encoding="UTF-8"?>
<svg width="25px" height="25px" viewBox="0 0 25 25" version="1.1" xmlns="http://www.w3.org/2000/svg" xmlns:xlink="http://www.w3.org/1999/xlink">
    <!-- Generator: Sketch 42 (36781) - http://www.bohemiancoding.com/sketch -->
    <title>i-25-sepia-active</title>
    <desc>Created with Sketch.</desc>
    <defs>
        <linearGradient x1="0%" y1="0%" x2="100%" y2="100%" id="linearGradient-1">
            <stop stop-color="#EC396A" offset="0%"></stop>
            <stop stop-color="#D375F1" offset="100%"></stop>
        </linearGradient>
        <linearGradient x1="-20.7106781%" y1="50%" x2="120.710678%" y2="50%" id="linearGradient-2">
            <stop stop-color="#EC396A" offset="0%"></stop>
            <stop stop-color="#D375F1" offset="100%"></stop>
        </linearGradient>
    </defs>
    <g id="Symbols" stroke="none" stroke-width="1" fill="none" fill-rule="evenodd">
        <g id="i-25-sepia-active">
            <g id="i-25-sepia">
                <rect id="Rectangle-5" opacity="0.459295743" x="0" y="0" width="25" height="25"></rect>
                <path d="M12.5,22 C7.25329488,22 3,17.7467051 3,12.5 C3,7.25329488 7.25329488,3 12.5,3 C17.7467051,3 22,7.25329488 22,12.5 C22,17.7467051 17.7467051,22 12.5,22 Z M12.5,21 C17.1944204,21 21,17.1944204 21,12.5 C21,7.80557963 17.1944204,4 12.5,4 C7.80557963,4 4,7.80557963 4,12.5 C4,17.1944204 7.80557963,21 12.5,21 Z" id="Oval-6" fill="url(#linearGradient-1)" fill-rule="nonzero"></path>
                <path d="M5.78248558,6.48959236 C5.58722343,6.29433021 5.58722343,5.97774772 5.78248558,5.78248558 C5.97774772,5.58722343 6.29433021,5.58722343 6.48959236,5.78248558 L19.2175144,18.5104076 C19.4127766,18.7056698 19.4127766,19.0222523 19.2175144,19.2175144 C19.0222523,19.4127766 18.7056698,19.4127766 18.5104076,19.2175144 L5.78248558,6.48959236 Z M3.64644661,11.3535534 C3.45118446,11.1582912 3.45118446,10.8417088 3.64644661,10.6464466 C3.84170876,10.4511845 4.15829124,10.4511845 4.35355339,10.6464466 L14.3535534,20.6464466 C14.5488155,20.8417088 14.5488155,21.1582912 14.3535534,21.3535534 C14.1582912,21.5488155 13.8417088,21.5488155 13.6464466,21.3535534 L3.64644661,11.3535534 Z M10.6464466,4.35355339 C10.4511845,4.15829124 10.4511845,3.84170876 10.6464466,3.64644661 C10.8417088,3.45118446 11.1582912,3.45118446 11.3535534,3.64644661 L21.3535534,13.6464466 C21.5488155,13.8417088 21.5488155,14.1582912 21.3535534,14.3535534 C21.1582912,14.5488155 20.8417088,14.5488155 20.6464466,14.3535534 L10.6464466,4.35355339 Z" id="Combined-Shape" fill="url(#linearGradient-2)" fill-rule="nonzero"></path>
            </g>
        </g>
    </g>
</svg>