<svg width="25" height="25" viewBox="0 0 25 25" fill="none" xmlns="http://www.w3.org/2000/svg">
<path d="M19.644 9.195H8.46338L9.43223 4H20.426C20.51 4.00014 20.5931 4.01871 20.6692 4.05441C20.7453 4.0901 20.8127 4.14206 20.8665 4.20661C20.9204 4.27116 20.9594 4.34674 20.9809 4.42802C21.0024 4.5093 21.0058 4.59431 20.9909 4.67705L20.2305 8.70195C20.2062 8.83991 20.1341 8.96493 20.0268 9.05507C19.9196 9.14522 19.7841 9.19476 19.644 9.195V9.195Z" fill="#34A4DD"/>
<path d="M15.1216 15.5587H7.22705L8.1959 10.3637H15.9021C15.9857 10.3647 16.0681 10.3839 16.1435 10.4199C16.2189 10.456 16.2856 10.5081 16.3388 10.5725C16.392 10.637 16.4306 10.7122 16.4517 10.7931C16.4729 10.874 16.4762 10.9585 16.4613 11.0408L15.7009 15.0657C15.6768 15.2024 15.6058 15.3265 15.5 15.4165C15.3943 15.5065 15.2605 15.5568 15.1216 15.5587Z" fill="#99C955"/>
<path d="M4.68141 20.4575C4.58078 20.4577 4.48136 20.4356 4.39032 20.3928C4.29927 20.3499 4.21888 20.2874 4.15494 20.2097C4.09099 20.132 4.04509 20.0411 4.02054 19.9435C3.99599 19.8459 3.99341 19.7441 4.01299 19.6454L6.94829 4.46574C6.97367 4.33456 7.04395 4.21632 7.14704 4.13133C7.25013 4.04634 7.3796 3.9999 7.51321 4H8.44756L5.37426 19.884C5.34299 20.045 5.25684 20.1902 5.13049 20.2948C5.00414 20.3994 4.84543 20.4569 4.68141 20.4575Z" fill="#AEB3B5"/>
</svg>
