<svg width="25" height="25" viewBox="0 0 25 25" fill="none" xmlns="http://www.w3.org/2000/svg">
<path d="M14.5678 3.456C13.9518 3.2614 13.2966 3.155 12.6162 3.155C10.631 3.155 8.8544 4.0524 7.67 5.4622L10.722 8.0298L14.5678 3.456Z" fill="#1A73E8"/>
<path d="M7.6686 5.46219C6.725 6.58499 6.1552 8.03399 6.1552 9.61459C6.1552 10.8298 6.3974 11.814 6.795 12.696L10.7206 8.02979L7.6686 5.46219Z" fill="#EA4335"/>
<path d="M12.6162 7.14499C13.9812 7.14499 15.0872 8.25099 15.0872 9.61599C15.0872 10.2236 14.8674 10.7808 14.5034 11.2106C14.5034 11.2106 16.455 8.88939 18.3492 6.63819C17.5666 5.13319 16.21 3.97539 14.5692 3.45599L10.7206 8.02979C11.1742 7.48799 11.8546 7.14499 12.6162 7.14499Z" fill="#4285F4"/>
<path d="M12.6162 12.0856C11.2512 12.0856 10.1452 10.9796 10.1452 9.61461C10.1452 9.01121 10.3622 8.45821 10.7206 8.02841L6.795 12.696C7.4656 14.1842 8.5814 15.3784 9.7308 16.8834L14.502 11.2106C14.0498 11.7454 13.3722 12.0856 12.6162 12.0856Z" fill="#FBBC04"/>
<path d="M14.4082 18.4318C16.5628 15.062 19.0758 13.5318 19.0758 9.61458C19.0758 8.54078 18.8126 7.52858 18.3492 6.63818L9.7322 16.8834C10.0976 17.3622 10.4658 17.8718 10.8256 18.4332C12.136 20.4576 11.772 21.6714 12.6176 21.6714C13.4604 21.6714 13.0978 20.4562 14.4082 18.4318Z" fill="#34A853"/>
</svg>
