<svg width="25" height="25" viewBox="0 0 25 25" fill="none" xmlns="http://www.w3.org/2000/svg">
<path d="M13.9896 17H3.01042C1.34583 17 0 15.6197 0 13.9124V3.08761C0 1.38034 1.34583 0 3.01042 0H13.9896C15.6542 0 17 1.38034 17 3.08761V13.9124C17 15.6197 15.6542 17 13.9896 17Z" transform="translate(4 4)" fill="#FF26BE"/>
<path d="M12.5307 15H2.47612C1.11187 15 0 13.8575 0 12.4556V2.54439C0 1.14252 1.11187 0 2.47612 0H12.5238C13.8949 0 15 1.14252 15 2.54439V12.4486C15.0068 13.8575 13.8949 15 12.5307 15Z" transform="translate(5 5)" fill="#2E001F"/>
<path d="M3.5483 3.82137L5.53163 7.72991C5.56705 7.78803 5.5458 7.84615 5.48913 7.84615H4.25663C4.17871 7.84615 4.1433 7.82436 4.10788 7.75171C3.65455 6.79273 3.19413 5.83376 2.71955 4.80214H2.70538C2.28038 5.77564 1.81288 6.8 1.35955 7.75897C1.32413 7.81709 1.28871 7.83889 1.23205 7.83889H0.0632981C-0.00753527 7.83889 -0.0146188 7.78077 0.0207979 7.73718L1.96163 3.94487L0.084548 0.108974C0.042048 0.0508548 0.0845479 0.00726496 0.127048 0.00726496H1.34538C1.41621 0.00726496 1.44455 0.0217948 1.47288 0.0871794C1.91913 1.04615 2.37246 2.03419 2.79746 3.00043H2.81163C3.22246 2.04145 3.6758 1.04615 4.11496 0.0944445C4.15038 0.0363248 4.17163 1.10854e-07 4.24246 1.10854e-07H5.38288C5.43955 1.10854e-07 5.4608 0.0435897 5.42538 0.101709L3.5483 3.82137ZM5.87871 5.00556C5.87871 3.31282 6.97663 1.9906 8.71913 1.9906C8.86788 1.9906 8.9458 1.9906 9.08746 2.00513V0.0799145C9.08746 0.0363248 9.12288 0.00726496 9.1583 0.00726496H10.2775C10.3341 0.00726496 10.3483 0.0290598 10.3483 0.0653846V6.73462C10.3483 6.93077 10.3483 7.17778 10.3837 7.44658C10.3837 7.49017 10.3695 7.5047 10.327 7.52649C9.73205 7.81709 9.10871 7.94786 8.51371 7.94786C6.97663 7.95513 5.87871 6.98162 5.87871 5.00556ZM9.08746 3.14573C8.9883 3.10214 8.84663 3.07308 8.67663 3.07308C7.78413 3.07308 7.1608 3.77778 7.1608 4.94744C7.1608 6.28419 7.7983 6.82179 8.59871 6.82179C8.76871 6.82179 8.95288 6.8 9.08746 6.74188V3.14573Z" transform="translate(7.17383 8.13376)" fill="#FFD9F2"/>
</svg>
