<svg width="25" height="25" viewBox="0 0 25 25" fill="none" xmlns="http://www.w3.org/2000/svg">
<path d="M17.5354 0.391845C16.0002 0 9.84375 0 9.84375 0C9.84375 0 3.68727 0 2.15198 0.391845C1.30486 0.607455 0.637718 1.24275 0.411312 2.04951C0 3.51168 0 6.5625 0 6.5625C0 6.5625 0 9.61322 0.411312 11.0755C0.637718 11.8823 1.30486 12.5175 2.15198 12.7333C3.68727 13.125 9.84375 13.125 9.84375 13.125C9.84375 13.125 16.0002 13.125 17.5354 12.7333C18.3825 12.5175 19.0497 11.8823 19.2761 11.0755C19.6875 9.61322 19.6875 6.5625 19.6875 6.5625C19.6875 6.5625 19.6875 3.51168 19.2761 2.04951C19.0497 1.24275 18.3825 0.607455 17.5354 0.391845Z" transform="translate(2.65625 5.9375)" fill="#FF0000"/>
<path d="M1.21525e-07 5.83333V-1.41994e-07L5.30048 2.91678L1.21525e-07 5.83333Z" transform="translate(10.228 9.5834)" fill="#FEFEFE"/>
</svg>
