<svg width="25" height="25" viewBox="0 0 25 25" fill="none" xmlns="http://www.w3.org/2000/svg">
  <path fill-rule="evenodd" clip-rule="evenodd" d="M16.5294 16.9465C14.9805 16.9465 13.7241 15.7035 13.7241 14.1708C13.7241 12.6374 14.9805 11.3952 16.5294 11.3952C18.0791 11.3952 19.3347 12.6374 19.3347 14.1708C19.3347 15.7042 18.0791 16.9465 16.5294 16.9465ZM17.3695 8.82692V6.3572C18.0213 6.05274 18.4769 5.40087 18.4769 4.6438V4.58676C18.4769 3.54228 17.6132 2.68818 16.5583 2.68818H16.5005C15.4457 2.68818 14.5819 3.54228 14.5819 4.58676V4.6438C14.5819 5.40087 15.0383 6.05274 15.6894 6.3572V8.82692C14.7197 8.97507 13.8338 9.37064 13.1026 9.95289L6.25201 4.67936C6.2972 4.50824 6.32905 4.3312 6.32979 4.14527C6.32979 2.96152 5.36235 2.00148 4.16675 2C2.97189 1.99852 2.00148 2.95559 2 4.13934C1.99852 5.32235 2.96596 6.28164 4.16156 6.28386C4.55121 6.28386 4.91196 6.17497 5.22827 5.99645L11.967 11.1855C11.374 12.0681 11.0576 13.1075 11.0581 14.1708C11.0581 15.3264 11.427 16.3961 12.0507 17.2746L10.0003 19.3043C9.83578 19.2526 9.66459 19.2251 9.49213 19.2229C8.50987 19.2229 7.71429 20.0103 7.71429 20.9822C7.71429 21.9541 8.50987 22.7415 9.49213 22.7415C10.4744 22.7415 11.2707 21.9533 11.2707 20.9814C11.2685 20.8106 11.2407 20.6411 11.1885 20.4785L13.2152 18.4725C14.1686 19.1951 15.3324 19.5859 16.5287 19.5851C19.551 19.5851 22 17.1613 22 14.1708C22 11.4641 19.9903 9.22767 17.3687 8.82692" fill="#FF7A59"/>
  </svg>
