<svg width="25" height="25" viewBox="0 0 25 25" fill="none" xmlns="http://www.w3.org/2000/svg">
<rect width="25" height="25"/>
<path fill-rule="evenodd" clip-rule="evenodd" d="M18.8537 6.14644C18.1062 5.3989 16.8941 5.3989 16.1466 6.14645L13.0002 9.29289L11.8537 8.14645C11.6584 7.95118 11.3419 7.95118 11.1466 8.14645L10.6466 8.64645C10.4513 8.84171 10.4513 9.15829 10.6466 9.35355L11.793 10.5L6.1466 16.1464C5.39905 16.894 5.39905 18.106 6.1466 18.8536C6.89414 19.6011 8.10616 19.6011 8.8537 18.8536L14.5002 13.2071L15.6466 14.3536C15.8419 14.5488 16.1584 14.5488 16.3537 14.3536L16.8537 13.8536C17.049 13.6583 17.049 13.3417 16.8537 13.1464L15.7073 12L18.8537 8.85355C19.6013 8.106 19.6013 6.89399 18.8537 6.14644ZM6.8537 16.8536L12.5002 11.2071L13.793 12.5L8.1466 18.1464C7.78958 18.5035 7.21073 18.5035 6.8537 18.1464C6.49668 17.7894 6.49668 17.2106 6.8537 16.8536Z" fill="var(--text-color-2)"/>
</svg>
