<svg width="25" height="25" viewBox="0 0 25 25" fill="none" xmlns="http://www.w3.org/2000/svg">
<path d="M6.6001 17.5852H7.87425V14.1122H7.95095C8.18106 14.5298 8.64981 15.2585 9.843 15.2585C11.4282 15.2585 12.5788 13.9886 12.5788 11.8707C12.5788 9.74858 11.4112 8.5 9.83021 8.5C8.61572 8.5 8.1768 9.24148 7.95095 9.64631H7.84442V8.58523H6.6001V17.5852ZM7.84868 11.858C7.84868 10.4901 8.44527 9.58239 9.55748 9.58239C10.7123 9.58239 11.2919 10.5582 11.2919 11.858C11.2919 13.1705 10.6953 14.1719 9.55748 14.1719C8.46231 14.1719 7.84868 13.2344 7.84868 11.858Z" fill="black"/>
<path d="M14.2025 8.58523H12.8048L14.8161 11.858L12.7792 15.1307H14.1769L15.6471 12.6847L17.1215 15.1307H18.515L16.4568 11.858L18.498 8.58523H17.1045L15.6471 11.1335L14.2025 8.58523Z" fill="black"/>
</svg>
