<?xml version="1.0" encoding="UTF-8"?>
<svg width="25px" height="25px" viewBox="0 0 25 25" version="1.1" xmlns="http://www.w3.org/2000/svg" xmlns:xlink="http://www.w3.org/1999/xlink">
    <!-- Generator: Sketch 42 (36781) - http://www.bohemiancoding.com/sketch -->
    <title>i-25-blur</title>
    <desc>Created with Sketch.</desc>
    <defs></defs>
    <g id="Symbols" stroke="none" stroke-width="1" fill="none" fill-rule="evenodd">
        <g id="i-25-blur">
            <g>
                <rect id="Rectangle-3" opacity="0" x="0" y="0" width="25" height="25"></rect>
                <path d="M12.5,22.5 C13.5712985,22.5 14.6203928,22.3313314 15.6184924,22.0040209 C15.880886,21.9179732 16.0238426,21.6355057 15.9377949,21.3731121 C15.8517472,21.1107185 15.5692797,20.9677619 15.3068861,21.0538096 C14.4090565,21.3482382 13.46512,21.5 12.5,21.5 C12.2238576,21.5 12,21.7238576 12,22 C12,22.2761424 12.2238576,22.5 12.5,22.5 Z M18.4257751,20.5559109 C19.2778931,19.928111 20.0265339,19.1685295 20.6418323,18.3073547 C20.8023667,18.0826698 20.7503626,17.7703879 20.5256777,17.6098534 C20.3009928,17.4493189 19.9887108,17.5013231 19.8281764,17.7260079 C19.2741403,18.5014397 18.5999216,19.1855114 17.8326229,19.7508206 C17.6103033,19.9146151 17.5628594,20.2276223 17.7266538,20.4499419 C17.8904483,20.6722614 18.2034556,20.7197054 18.4257751,20.5559109 Z M22.0484807,15.4794729 C22.3430872,14.5343814 22.4963236,13.5453978 22.4999346,12.5365237 C22.4999985,12.4452767 22.4995446,12.3841768 22.4984117,12.3200421 C22.4935346,12.0439428 22.2657582,11.8240738 21.9896589,11.8289509 C21.7135596,11.833828 21.4936905,12.0616044 21.4985677,12.3377037 C21.4995857,12.3953347 21.4999948,12.4504051 21.499938,12.5343959 C21.4966879,13.4418157 21.3588044,14.3317124 21.0937897,15.181874 C21.01161,15.4455046 21.1587051,15.7258392 21.4223357,15.8080189 C21.6859663,15.8901986 21.966301,15.7431035 22.0484807,15.4794729 Z M21.9453724,9.20808313 C21.5963282,8.20648809 21.0894793,7.26876676 20.4462289,6.42815524 C20.2784154,6.2088535 19.9645965,6.16711401 19.7452948,6.33492748 C19.525993,6.50274095 19.4842536,6.81655982 19.652067,7.03586156 C20.2310574,7.79249683 20.6871075,8.63623532 21.0010698,9.53716153 C21.0919423,9.7979235 21.3769983,9.93564612 21.6377603,9.84477363 C21.8985222,9.75390114 22.0362449,9.46884509 21.9453724,9.20808313 Z M18.1136304,4.22317148 C17.2385382,3.62855562 16.2739768,3.1756465 15.2530016,2.88387114 C14.9874888,2.8079926 14.7107364,2.96172157 14.6348579,3.22723439 C14.5589794,3.49274721 14.7127083,3.76949959 14.9782211,3.84537813 C15.8964536,4.10779156 16.7641198,4.51520362 17.5516092,5.05029432 C17.7800129,5.20549219 18.0909834,5.14614716 18.2461812,4.91774349 C18.4013791,4.68933983 18.3420341,4.37836935 18.1136304,4.22317148 Z M12.1393194,2.50638953 C11.069999,2.54433262 10.0269728,2.75090323 9.03986447,3.11495322 C8.78078041,3.21050458 8.64821096,3.49799339 8.74376233,3.75707744 C8.83931369,4.0161615 9.12680249,4.14873095 9.38588655,4.05317958 C10.2737296,3.72573909 11.2119508,3.53992503 12.1747805,3.50576059 C12.4507492,3.49596829 12.6665278,3.26431323 12.6567355,2.98834453 C12.6469432,2.71237584 12.4152881,2.49659723 12.1393194,2.50638953 Z M6.28428536,4.66594976 C5.45557075,5.32430798 4.73496534,6.11042529 4.15146204,6.99337742 C3.99921399,7.22375785 4.06255279,7.53393952 4.29293322,7.68618757 C4.52331365,7.83843562 4.83349532,7.77509681 4.98574337,7.54471638 C5.5111021,6.74974812 6.16005635,6.04179594 6.90631891,5.44894036 C7.12253579,5.27717053 7.15856725,4.96264517 6.98679743,4.74642829 C6.81502761,4.5302114 6.50050225,4.49417994 6.28428536,4.66594976 Z M2.84932159,9.8709278 C2.6213518,10.7096299 2.50317175,11.5793736 2.50006298,12.4641459 C2.49999895,12.6759802 2.50457125,12.8566982 2.51437751,13.0406226 C2.52907966,13.3163733 2.76453824,13.527995 3.04028895,13.5132928 C3.31603967,13.4985907 3.52766134,13.2631321 3.51295919,12.9873814 C3.50412554,12.821699 3.50000398,12.6587962 3.50005987,12.4660477 C3.50285771,11.6705082 3.60921715,10.887758 3.81430912,10.1332236 C3.8867401,9.86674962 3.72943719,9.5920129 3.46296324,9.51958192 C3.1964893,9.44715094 2.92175257,9.60445385 2.84932159,9.8709278 Z M3.18143913,16.1353019 C3.56693031,17.1227569 4.10776937,18.0414677 4.78129997,18.8582231 C4.95698685,19.0712694 5.27211736,19.1015552 5.48516368,18.9258684 C5.69820999,18.7501815 5.7284958,18.435051 5.55280892,18.2220047 C4.94648015,17.4867414 4.45976174,16.6599641 4.11297109,15.7716424 C4.0125493,15.514407 3.72261082,15.3872844 3.46537538,15.4877062 C3.20813993,15.588128 3.08101734,15.8780665 3.18143913,16.1353019 Z M7.19841334,20.9804783 C8.09460288,21.5418572 9.07514642,21.9583365 10.1072478,22.2118038 C10.3754216,22.2776629 10.6462088,22.1136545 10.7120679,21.8454807 C10.777927,21.5773069 10.6139186,21.3065197 10.3457448,21.2406606 C9.41753611,21.0127076 8.53562077,20.63812 7.7292691,20.1330161 C7.49524888,19.9864243 7.1867019,20.0572991 7.04011013,20.2913193 C6.89351836,20.5253395 6.96439312,20.8338865 7.19841334,20.9804783 Z" id="Oval-4" fill="#757575" fill-rule="nonzero"></path>
                <circle id="Oval-5" fill="#757575" cx="12.5" cy="12.5" r="2.5"></circle>
            </g>
        </g>
    </g>
</svg>