<svg width="25" height="25" viewBox="0 0 25 25" fill="none" xmlns="http://www.w3.org/2000/svg">
<path d="M17.9912 3.53965C17.9105 5.26104 16.687 7.61864 14.3205 10.6117C11.8734 13.7368 9.80218 15.3 8.10835 15.3C7.05979 15.3 6.17183 14.3467 5.4459 12.4395L3.99404 7.19521C3.45536 5.28729 2.87706 4.33403 2.25916 4.33403C2.12449 4.33403 1.65422 4.61206 0.846916 5.16813L0 4.09572C0.880043 3.33397 1.75361 2.56583 2.62213 1.79131C3.80536 0.784862 4.6926 0.25504 5.28458 0.202554C6.68314 0.0699213 7.54374 1.01041 7.86638 3.02331C8.21566 5.19508 8.45835 6.54623 8.5923 7.07535C8.9956 8.87617 9.43922 9.77694 9.92317 9.77694C10.2998 9.77694 10.8644 9.19392 11.6177 8.0286C12.371 6.86328 12.7743 5.97598 12.8276 5.36672C12.9349 4.36027 12.5316 3.85669 11.6177 3.85669C11.1878 3.85669 10.7434 3.94961 10.2869 4.13473C11.1741 1.3005 12.8687 -0.0761876 15.3698 0.00325023C17.2249 0.0564452 18.0985 1.23525 17.9912 3.53965Z" transform="translate(3 5)" fill="#1AB7EA"/>
</svg>
