<svg width="25" height="25" viewBox="0 0 25 25" fill="none" xmlns="http://www.w3.org/2000/svg">
<path d="M22 12.5C22 7.25369 17.7463 3 12.5 3C7.25369 3 3 7.25369 3 12.5C3 17.2413 6.47349 21.1717 11.0158 21.8851V15.2467H8.60301V12.5H11.0158V10.4065C11.0158 8.02587 12.4345 6.70995 14.6041 6.70995C15.6435 6.70995 16.731 6.89565 16.731 6.89565V9.23357H15.5326C14.353 9.23357 13.9842 9.96568 13.9842 10.7178V12.5H16.6188L16.1979 15.2467H13.9842V21.8851C18.5265 21.173 22 17.2426 22 12.5Z" fill="#1977F3"/>
<path d="M16.1977 15.2468L16.6185 12.5001H13.984V10.7179C13.984 9.96709 14.3514 9.23364 15.5324 9.23364H16.7308V6.89572C16.7308 6.89572 15.6433 6.71002 14.6039 6.71002C12.4343 6.71002 11.0155 8.0246 11.0155 10.4066V12.5001H8.60278V15.2468H11.0155V21.8852C11.4991 21.9613 11.9948 22.0001 12.4998 22.0001C13.0048 22.0001 13.5004 21.96 13.984 21.8852V15.2468H16.1977Z" fill="white"/>
</svg>
