<svg width="25" height="26" viewBox="0 0 25 26" fill="none" xmlns="http://www.w3.org/2000/svg">
<path fill-rule="evenodd" clip-rule="evenodd" d="M12.5001 0.839844C19.2154 0.839844 24.6601 6.28456 24.6601 12.9998C24.6601 19.0704 20.214 24.1013 14.3999 25.0127V16.5157H17.2335L17.7721 12.9998L17.7721 12.9998H14.3999V10.7187C14.3999 9.87677 14.7608 9.05192 15.8666 8.86036C16.0231 8.83326 16.1945 8.81883 16.3819 8.81883H17.9158V5.82629C17.9158 5.82629 17.9158 5.82628 17.9157 5.82628C17.9157 5.82628 17.6759 5.78531 17.3001 5.7374C16.7707 5.66989 15.9715 5.58858 15.1934 5.58858C15.0551 5.58858 14.9191 5.59276 14.7857 5.60108C12.4086 5.74909 10.8216 7.20923 10.6217 9.76056C10.6075 9.94165 10.6002 10.1282 10.6002 10.3202V12.9998H7.51194V16.5156H7.51196V16.5157H10.6002V25.0128C4.78616 24.0996 0.340088 19.0687 0.340088 12.9998C0.340088 6.28456 5.78481 0.839844 12.5001 0.839844Z" fill="white"/>
</svg>
