<svg width="25" height="25" viewBox="0 0 25 25" fill="none" xmlns="http://www.w3.org/2000/svg">
<path d="M16.9872 5.78311C16.9833 5.76253 16.9799 5.74194 16.9744 5.72175C16.9709 5.7096 16.9668 5.69818 16.9629 5.68623C16.9574 5.66828 16.9511 5.65056 16.9442 5.6331C16.9391 5.62101 16.9334 5.60933 16.9279 5.59764C16.9202 5.58114 16.9119 5.56496 16.9029 5.54916C16.8965 5.53747 16.8892 5.52645 16.8821 5.51529C16.8651 5.48884 16.8465 5.46351 16.8262 5.43946C16.8147 5.42583 16.8026 5.41263 16.7901 5.39988C16.7805 5.39025 16.7708 5.38062 16.7607 5.37126C16.7474 5.35913 16.7336 5.34761 16.7193 5.33673C16.7083 5.32823 16.6976 5.31946 16.6861 5.31169C16.682 5.30877 16.6783 5.30532 16.674 5.30253L8.90501 0.122778C8.78507 0.0427238 8.6441 0 8.4999 0C8.3557 0 8.21473 0.0427238 8.09479 0.122778L0.325258 5.30239C0.320941 5.30512 0.317555 5.30857 0.313172 5.31156C0.30175 5.31953 0.290992 5.32803 0.279969 5.33653C0.26586 5.34761 0.252043 5.35906 0.238531 5.37086C0.228499 5.38003 0.218798 5.38955 0.209445 5.39941C0.196629 5.4123 0.184742 5.42531 0.173055 5.43906C0.164422 5.44935 0.156121 5.45965 0.148086 5.47113C0.137129 5.48554 0.127035 5.50022 0.117207 5.51556C0.110102 5.52678 0.102996 5.53774 0.0963555 5.54943C0.0874446 5.5651 0.0792028 5.58114 0.0716523 5.59751C0.0661406 5.60919 0.0602305 5.62108 0.0553828 5.63297C0.0482773 5.65037 0.0421016 5.66823 0.0363906 5.68609C0.0325391 5.69805 0.0284219 5.70967 0.025168 5.72043C0.0198555 5.74055 0.0160039 5.76093 0.0123516 5.78179C0.0103594 5.79234 0.00776953 5.80264 0.006375 5.8134C0.00225781 5.84494 0 5.87655 0 5.90882V11.0896C0 11.1216 0.00225781 11.1537 0.00683984 11.1851C0.0085 11.1965 0.0114883 11.2056 0.0137461 11.2167C0.0173984 11.2373 0.0205859 11.2578 0.0274922 11.2785C0.0306797 11.2899 0.034332 11.3014 0.0389141 11.314C0.044625 11.3323 0.0503359 11.3506 0.0572422 11.3673C0.0620234 11.3788 0.0686641 11.3902 0.0732461 11.4017C0.0808164 11.4177 0.0893164 11.4337 0.0984805 11.4504C0.104855 11.4618 0.11216 11.4733 0.119066 11.4838C0.128895 11.4999 0.139652 11.5136 0.151074 11.5273C0.159109 11.5388 0.167145 11.5479 0.176309 11.5589C0.18793 11.5727 0.199152 11.5864 0.212898 11.5986C0.222262 11.6077 0.231227 11.6192 0.242648 11.626C0.25593 11.6375 0.270141 11.6489 0.28382 11.6608C0.294844 11.67 0.306797 11.6769 0.315895 11.6858C0.320277 11.688 0.322801 11.6926 0.327383 11.6947L8.09479 16.8771C8.21444 16.9578 8.35565 17.0007 8.5 17C8.6442 16.9997 8.78513 16.957 8.90521 16.8771L16.6747 11.6974C16.6791 11.6947 16.6827 11.6915 16.6868 11.6885C16.6982 11.6805 16.709 11.672 16.72 11.6636C16.7342 11.6523 16.7482 11.6407 16.7615 11.6288C16.7715 11.6198 16.7811 11.61 16.7908 11.6004C16.8128 11.5781 16.8332 11.5543 16.8518 11.5292C16.8629 11.5148 16.873 11.4999 16.8828 11.4848C16.8899 11.4738 16.897 11.4626 16.9036 11.4514C16.9128 11.4353 16.9208 11.4191 16.9285 11.4026C16.9341 11.3909 16.9398 11.3792 16.9448 11.3673C16.9519 11.3497 16.9579 11.3318 16.9636 11.314C16.9675 11.3021 16.9716 11.2904 16.975 11.2785C16.9803 11.2584 16.984 11.2377 16.9878 11.2171C16.9897 11.2066 16.9925 11.1963 16.9936 11.1855C16.9977 11.154 17 11.1224 17 11.0901V5.91015C17 5.87788 16.9975 5.84627 16.9936 5.81466C16.9918 5.80343 16.9883 5.79434 16.9861 5.78311H16.9872ZM8.4998 10.2281L5.91627 8.50009L8.4998 6.77185L11.0835 8.50009L8.4998 10.2281V10.2281ZM7.76946 5.50288L4.60242 7.62126L2.04598 5.91101L7.76953 2.0954V5.50288H7.76946ZM3.28857 8.49983L1.46127 9.72211V7.2776L3.28857 8.49983ZM4.60242 9.37939L7.76953 11.4975V14.905L2.04598 11.0889L4.60248 9.37892V9.37939H4.60242ZM9.23027 11.4971L12.3973 9.37899L14.954 11.0889L9.23027 14.9045V11.497V11.4971ZM13.7112 8.50029L15.5387 7.2778V9.72258L13.7112 8.49983V8.50029H13.7112ZM12.3973 7.62119L9.23027 5.50308V2.0954L14.954 5.91108L12.3974 7.62119H12.3973Z" transform="translate(4 4)" fill="black"/>
</svg>
