<svg width="40" height="16" viewBox="0 0 40 16" fill="none" xmlns="http://www.w3.org/2000/svg">
<rect x="0.5" y="0.5" width="39" height="15" rx="7.5" stroke="black" stroke-opacity="0.9"/>
<path d="M11.1784 10.26C11.3891 10.26 11.5664 10.236 11.7104 10.188C11.8571 10.1373 11.9758 10.0693 12.0664 9.984C12.1598 9.89867 12.2264 9.79867 12.2664 9.684C12.3091 9.56667 12.3304 9.44133 12.3304 9.308C12.3304 9.036 12.2371 8.82267 12.0504 8.668C11.8664 8.51067 11.5744 8.432 11.1744 8.432H10.0184V10.26H11.1784ZM10.0184 5.972V7.772H10.9544C11.3544 7.772 11.6531 7.69467 11.8504 7.54C12.0478 7.38533 12.1464 7.16267 12.1464 6.872C12.1464 6.55467 12.0531 6.32533 11.8664 6.184C11.6824 6.04267 11.3931 5.972 10.9984 5.972H10.0184ZM10.9984 5.24C11.3664 5.24 11.6811 5.276 11.9424 5.348C12.2038 5.41733 12.4184 5.51733 12.5864 5.648C12.7544 5.77867 12.8771 5.93867 12.9544 6.128C13.0344 6.31467 13.0744 6.52533 13.0744 6.76C13.0744 6.896 13.0531 7.028 13.0104 7.156C12.9704 7.28133 12.9064 7.4 12.8184 7.512C12.7331 7.62133 12.6251 7.72 12.4944 7.808C12.3638 7.896 12.2091 7.96933 12.0304 8.028C12.8464 8.20133 13.2544 8.63467 13.2544 9.328C13.2544 9.57333 13.2078 9.79867 13.1144 10.004C13.0238 10.2067 12.8904 10.3827 12.7144 10.532C12.5411 10.6787 12.3264 10.7933 12.0704 10.876C11.8144 10.9587 11.5224 11 11.1944 11H9.08244V5.24H10.9984ZM17.5109 6.92V11H16.9909C16.8762 11 16.8029 10.9453 16.7709 10.836L16.7069 10.456C16.6215 10.5467 16.5309 10.6293 16.4349 10.704C16.3415 10.7787 16.2415 10.8427 16.1349 10.896C16.0282 10.9493 15.9135 10.9907 15.7909 11.02C15.6709 11.0493 15.5415 11.064 15.4029 11.064C15.1789 11.064 14.9815 11.0267 14.8109 10.952C14.6402 10.8773 14.4962 10.772 14.3789 10.636C14.2642 10.5 14.1775 10.3373 14.1189 10.148C14.0602 9.956 14.0309 9.74533 14.0309 9.516V6.92H14.8909V9.516C14.8909 9.79067 14.9535 10.004 15.0789 10.156C15.2069 10.308 15.4002 10.384 15.6589 10.384C15.8482 10.384 16.0242 10.3413 16.1869 10.256C16.3522 10.168 16.5069 10.048 16.6509 9.896V6.92H17.5109ZM19.8633 11.064C19.5246 11.064 19.2633 10.9693 19.0793 10.78C18.8979 10.588 18.8073 10.3187 18.8073 9.972V7.596H18.3593C18.3113 7.596 18.2699 7.58133 18.2353 7.552C18.2006 7.52 18.1833 7.47333 18.1833 7.412V7.064L18.8433 6.968L19.0312 5.788C19.0446 5.74267 19.0673 5.70667 19.0993 5.68C19.1313 5.65067 19.1739 5.636 19.2273 5.636H19.6673V6.976H21.4673L21.6593 5.788C21.6699 5.74267 21.6913 5.70667 21.7233 5.68C21.7553 5.65067 21.7979 5.636 21.8513 5.636H22.2913V6.976H23.4233V7.596H22.2913V9.912C22.2913 10.0587 22.3273 10.1707 22.3993 10.248C22.4713 10.3253 22.5673 10.364 22.6873 10.364C22.7539 10.364 22.8113 10.356 22.8593 10.34C22.9099 10.3213 22.9526 10.3027 22.9873 10.284C23.0219 10.2627 23.0513 10.244 23.0753 10.228C23.1019 10.2093 23.1259 10.2 23.1473 10.2C23.1766 10.2 23.1993 10.2067 23.2153 10.22C23.2313 10.2307 23.2486 10.2507 23.2673 10.28L23.5233 10.7C23.3873 10.8173 23.2286 10.908 23.0473 10.972C22.8686 11.0333 22.6833 11.064 22.4913 11.064C22.1499 11.064 21.8886 10.9693 21.7073 10.78C21.5259 10.588 21.4353 10.3187 21.4353 9.972V7.596H19.6673V9.912C19.6673 10.0587 19.7033 10.1707 19.7753 10.248C19.8473 10.3253 19.9433 10.364 20.0633 10.364C20.1299 10.364 20.1873 10.356 20.2352 10.34C20.2833 10.3213 20.3246 10.3027 20.3593 10.284C20.3939 10.2627 20.4233 10.244 20.4473 10.228C20.4739 10.2093 20.4993 10.2 20.5233 10.2C20.5713 10.2 20.6099 10.2267 20.6393 10.28L20.8953 10.7C20.7619 10.8173 20.6046 10.908 20.4233 10.972C20.2419 11.0333 20.0553 11.064 19.8633 11.064ZM25.8349 6.856C26.1362 6.856 26.4082 6.90533 26.6509 7.004C26.8962 7.10267 27.1042 7.24267 27.2749 7.424C27.4482 7.60533 27.5815 7.82533 27.6749 8.084C27.7682 8.34267 27.8149 8.63333 27.8149 8.956C27.8149 9.27867 27.7682 9.56933 27.6749 9.828C27.5815 10.0867 27.4482 10.308 27.2749 10.492C27.1042 10.6733 26.8962 10.8133 26.6509 10.912C26.4082 11.0107 26.1362 11.06 25.8349 11.06C25.5309 11.06 25.2562 11.0107 25.0109 10.912C24.7682 10.8133 24.5602 10.6733 24.3869 10.492C24.2135 10.308 24.0802 10.0867 23.9869 9.828C23.8935 9.56933 23.8469 9.27867 23.8469 8.956C23.8469 8.63333 23.8935 8.34267 23.9869 8.084C24.0802 7.82533 24.2135 7.60533 24.3869 7.424C24.5602 7.24267 24.7682 7.10267 25.0109 7.004C25.2562 6.90533 25.5309 6.856 25.8349 6.856ZM25.8349 10.388C26.2029 10.388 26.4762 10.2653 26.6549 10.02C26.8362 9.772 26.9269 9.41867 26.9269 8.96C26.9269 8.50133 26.8362 8.148 26.6549 7.9C26.4762 7.64933 26.2029 7.524 25.8349 7.524C25.4615 7.524 25.1842 7.64933 25.0029 7.9C24.8215 8.148 24.7309 8.50133 24.7309 8.96C24.7309 9.41867 24.8215 9.772 25.0029 10.02C25.1842 10.2653 25.4615 10.388 25.8349 10.388ZM29.4452 7.46C29.5332 7.36933 29.6239 7.288 29.7172 7.216C29.8132 7.14133 29.9145 7.07733 30.0212 7.024C30.1279 6.97067 30.2412 6.92933 30.3612 6.9C30.4812 6.87067 30.6119 6.856 30.7532 6.856C30.9772 6.856 31.1732 6.89333 31.3412 6.968C31.5119 7.04267 31.6545 7.148 31.7692 7.284C31.8865 7.42 31.9745 7.584 32.0332 7.776C32.0919 7.96533 32.1212 8.17467 32.1212 8.404V11H31.2652V8.404C31.2652 8.12933 31.2012 7.916 31.0732 7.764C30.9479 7.612 30.7559 7.536 30.4972 7.536C30.3052 7.536 30.1265 7.58 29.9612 7.668C29.7985 7.756 29.6452 7.876 29.5012 8.028V11H28.6412V6.92H29.1612C29.2785 6.92 29.3532 6.97467 29.3852 7.084L29.4452 7.46Z" fill="black"/>
</svg>
