<svg width="40" height="14" viewBox="0 0 40 14" fill="none" xmlns="http://www.w3.org/2000/svg">
<rect x="0.5" y="0.5" width="13" height="13" rx="1.5" stroke="black" stroke-opacity="0.9"/>
<path d="M4.39282 6.40494C4.22197 6.18799 3.9076 6.15062 3.69066 6.32147C3.47371 6.49231 3.43634 6.80668 3.60718 7.02363L4.39282 6.40494ZM5.8 9L5.40718 9.30934L5.74704 9.74091L6.14483 9.36207L5.8 9ZM10.3448 5.36207C10.5448 5.17163 10.5525 4.85514 10.3621 4.65517C10.1716 4.45521 9.85514 4.44749 9.65517 4.63793L10.3448 5.36207ZM3.60718 7.02363L5.40718 9.30934L6.19282 8.69066L4.39282 6.40494L3.60718 7.02363ZM6.14483 9.36207L10.3448 5.36207L9.65517 4.63793L5.45517 8.63793L6.14483 9.36207Z" fill="black"/>
<path d="M19 7C18.7239 7 18.5 7.22386 18.5 7.5C18.5 7.77614 18.7239 8 19 8V7ZM39 8C39.2761 8 39.5 7.77614 39.5 7.5C39.5 7.22386 39.2761 7 39 7V8ZM19 8H39V7H19V8Z" fill="black"/>
</svg>
