<svg width="25" height="25" viewBox="0 0 25 25" fill="none" xmlns="http://www.w3.org/2000/svg">
  <g clip-path="url(#clip0_2558_217)">
  <path d="M17.1806 3.06183H7.80334C5.15054 3.06183 3 5.19618 3 7.82904V17.1358C3 19.7686 5.15054 21.903 7.80334 21.903H17.1806C19.8334 21.903 21.9839 19.7686 21.9839 17.1358V7.82904C21.9839 5.19618 19.8334 3.06183 17.1806 3.06183Z" fill="#00DDB3"/>
  <path d="M17.4282 7.28174C14.1604 7.28174 12.9494 9.59742 11.9757 11.4577L11.3396 12.6479C10.3086 14.6208 9.53824 15.82 7.55304 15.82C7.42979 15.82 7.30774 15.8441 7.19389 15.8909C7.08002 15.9377 6.97654 16.0063 6.8894 16.0928C6.80224 16.1793 6.73308 16.282 6.68591 16.395C6.63876 16.508 6.6145 16.6292 6.6145 16.7515C6.61485 16.9984 6.71385 17.2351 6.88977 17.4097C7.06571 17.5843 7.30423 17.6826 7.55304 17.6829C10.8222 17.6829 12.0331 15.3672 13.0068 13.5069L13.6416 12.3167C14.6739 10.3439 15.4443 9.14464 17.4282 9.14464C17.5515 9.14481 17.6738 9.12084 17.7878 9.0741C17.9018 9.02737 18.0054 8.9588 18.0926 8.87228C18.18 8.78577 18.2492 8.68302 18.2964 8.56994C18.3436 8.45684 18.368 8.33561 18.368 8.21318C18.3677 7.96602 18.2685 7.72911 18.0923 7.55447C17.916 7.37982 17.6772 7.28174 17.4282 7.28174Z" fill="white"/>
  </g>
  <defs>
  <clipPath id="clip0_2558_217">
  <rect width="19" height="19" fill="white" transform="translate(3 3)"/>
  </clipPath>
  </defs>
  </svg>
