<svg width="25" height="25" viewBox="0 0 25 25" fill="none" xmlns="http://www.w3.org/2000/svg">
<path fill-rule="evenodd" clip-rule="evenodd" d="M7.5 4C6.67157 4 6 4.67157 6 5.5V19.5C6 20.3284 6.67157 21 7.5 21H17.5C18.3284 21 19 20.3284 19 19.5V8.32843C19 7.9306 18.842 7.54907 18.5607 7.26777L15.7322 4.43934C15.4509 4.15804 15.0694 4 14.6716 4H7.5ZM5 5.5C5 4.11929 6.11929 3 7.5 3H14.6716C15.3346 3 15.9705 3.26339 16.4393 3.73223L19.2678 6.56066C19.7366 7.0295 20 7.66539 20 8.32843V19.5C20 20.8807 18.8807 22 17.5 22H7.5C6.11929 22 5 20.8807 5 19.5V5.5Z" fill="black"/>
<path d="M15.5 13C15.7761 13 16 12.7761 16 12.5C16 12.2239 15.7761 12 15.5 12V13ZM9.5 12C9.22386 12 9 12.2239 9 12.5C9 12.7761 9.22386 13 9.5 13V12ZM15.5 12H9.5V13H15.5V12Z" fill="black"/>
<path d="M12 15.5C12 15.7761 12.2239 16 12.5 16C12.7761 16 13 15.7761 13 15.5H12ZM13 9.5C13 9.22386 12.7761 9 12.5 9C12.2239 9 12 9.22386 12 9.5H13ZM13 15.5V9.5H12V15.5H13Z" fill="black"/>
</svg>
