<svg width="25" height="25" viewBox="0 0 25 25" fill="none" xmlns="http://www.w3.org/2000/svg">
<path fill-rule="evenodd" clip-rule="evenodd" d="M8.5 6C6.31049 6 5 7.66484 5 9.50001C5 12.2768 6.85913 14.6499 8.82925 16.3737C9.80381 17.2265 10.7807 17.8983 11.515 18.3573C11.8816 18.5864 12.1864 18.7616 12.3984 18.879C12.4252 18.8938 12.4505 18.9077 12.4743 18.9207C12.5025 18.902 12.5329 18.8818 12.5655 18.8599C12.7795 18.7167 13.0865 18.5057 13.4554 18.2366C14.1942 17.6979 15.1772 16.9298 16.158 16.0102C17.1407 15.089 18.1091 14.027 18.8289 12.9024C19.5508 11.7744 20 10.6188 20 9.50001C20 8.5084 19.6643 7.63639 19.075 7.01591C18.4894 6.39941 17.6243 6.00001 16.5 6.00001C15.4572 6.00001 14.5814 6.62838 13.9311 7.33787C13.6118 7.68615 13.3634 8.03651 13.1948 8.30045C13.1108 8.43192 13.0474 8.54066 13.0057 8.61524C12.9848 8.6525 12.9694 8.68113 12.9596 8.69969L12.9492 8.71978L12.9472 8.72361C12.8625 8.89286 12.6893 9.00001 12.5 9.00001C12.3108 9.00001 12.1379 8.89325 12.0531 8.7242C12.0531 8.72418 12.0531 8.72422 12.0531 8.7242L12.5 8.50001C12.0528 8.72361 12.053 8.72408 12.0531 8.7242L12.0508 8.71978L12.0404 8.69969C12.0306 8.68113 12.0152 8.6525 11.9943 8.61524C11.9526 8.54066 11.8892 8.43192 11.8052 8.30045C11.6366 8.03651 11.3882 7.68615 11.0689 7.33786C10.4186 6.62837 9.54279 6 8.5 6ZM12.5 7.53865C12.321 7.27754 12.0887 6.97045 11.8061 6.66214C11.0814 5.87163 9.95721 5 8.5 5C5.68951 5 4 7.18384 4 9.50001C4 12.7232 6.14087 15.3502 8.17075 17.1263C9.19619 18.0236 10.2193 18.7267 10.985 19.2053C11.3684 19.4449 11.6886 19.629 11.9141 19.7539C12.0269 19.8163 12.1161 19.8639 12.1777 19.8963C12.2086 19.9125 12.2325 19.9249 12.2491 19.9334L12.2685 19.9432L12.2739 19.946L12.2755 19.9468C12.2757 19.9469 12.2764 19.9472 12.5 19.5L12.2755 19.9468C12.4313 20.0247 12.6173 20.0163 12.765 19.924L12.5 19.5C12.765 19.924 12.7648 19.9241 12.765 19.924L12.7672 19.9226L12.7723 19.9194L12.791 19.9076C12.8072 19.8973 12.8307 19.8823 12.8611 19.8627C12.9219 19.8234 13.0101 19.7657 13.122 19.6908C13.3455 19.5411 13.6635 19.3225 14.0446 19.0446C14.8058 18.4896 15.8228 17.6952 16.842 16.7398C17.8593 15.786 18.8909 14.6605 19.6711 13.4414C20.4492 12.2256 21 10.8812 21 9.50001C21 8.28247 20.5857 7.15448 19.8 6.32725C19.0106 5.49604 17.8757 5.00001 16.5 5.00001C15.0428 5.00001 13.9186 5.87164 13.1939 6.66214C12.9113 6.97045 12.679 7.27754 12.5 7.53865Z" fill="black"/>
</svg>
