<svg width="25" height="25" viewBox="0 0 25 25" fill="none" xmlns="http://www.w3.org/2000/svg">
<path d="M12.4846 14.8637C12.4888 15.912 13.1578 16.8026 14.4064 16.8026C15.6422 16.8026 16.3326 15.912 16.3283 14.8637V14.4035C16.3326 13.3466 15.6593 12.4645 14.4064 12.4645C13.1749 12.4645 12.4888 13.3552 12.4846 14.4035V14.8637ZM8.00586 9.86936C8.01012 10.9177 8.67915 11.7998 9.92347 11.7998C11.1635 11.7998 11.8539 10.9262 11.8496 9.86936V9.40914C11.8539 8.35232 11.1806 7.47021 9.92347 7.47021C8.70472 7.47021 8.01012 8.35232 8.00586 9.40914V9.86936ZM8.42347 16.5H9.53569L15.5357 7.77277H14.4235L8.42347 16.5ZM13.7246 14.4035C13.7289 13.9858 13.8951 13.5554 14.4064 13.5554C14.9434 13.5554 15.084 13.9858 15.0797 14.4035V14.8637C15.084 15.2813 14.9263 15.7032 14.4064 15.7032C13.8865 15.7032 13.7289 15.2685 13.7246 14.8637V14.4035ZM9.25444 9.40914C9.2587 9.00431 9.41637 8.56112 9.92347 8.56112C10.4604 8.56112 10.6053 8.99152 10.601 9.40914V9.86936C10.6053 10.287 10.4434 10.7089 9.92347 10.7089C9.42063 10.7089 9.2587 10.287 9.25444 9.86936V9.40914Z" fill="black"/>
</svg>
