<svg width="34" height="14" viewBox="0 0 34 14" fill="none" xmlns="http://www.w3.org/2000/svg">
<rect x="0.5" y="0.5" width="33" height="13" rx="1.5" stroke="black" stroke-opacity="0.9"/>
<path d="M23.8536 5.14645C23.6583 4.95118 23.3417 4.95118 23.1464 5.14645C22.9512 5.34171 22.9512 5.65829 23.1464 5.85355L23.8536 5.14645ZM26.5 8.5L26.1464 8.85355C26.3417 9.04882 26.6583 9.04882 26.8536 8.85355L26.5 8.5ZM29.8536 5.85355C30.0488 5.65829 30.0488 5.34171 29.8536 5.14645C29.6583 4.95118 29.3417 4.95118 29.1464 5.14645L29.8536 5.85355ZM23.1464 5.85355L26.1464 8.85355L26.8536 8.14645L23.8536 5.14645L23.1464 5.85355ZM26.8536 8.85355L29.8536 5.85355L29.1464 5.14645L26.1464 8.14645L26.8536 8.85355Z" fill="black"/>
</svg>
