<svg width="25" height="25" viewBox="0 0 25 25" fill="none" xmlns="http://www.w3.org/2000/svg">
<path d="M8.49053e-07 1.21779C8.49053e-07 0.545575 0.562717 -1.70102e-09 1.25647 -1.70102e-09H15.7435C16.4375 -1.70102e-09 17 0.545575 17 1.21779V15.7824C17 16.4549 16.4375 17 15.7435 17H1.25647C0.562717 17 8.49053e-07 16.4549 8.49053e-07 15.7827V1.21757V1.21779Z" transform="translate(4 4)" fill="#006699"/>
<path d="M2.71913 11.3768V3.70041H0.15145V11.3768H2.71935H2.71913ZM1.43574 2.65252C2.33097 2.65252 2.8883 2.06302 2.8883 1.32637C2.87148 0.572998 2.33097 4.08246e-08 1.45279 4.08246e-08C0.573935 4.08246e-08 6.29943e-07 0.572998 6.29943e-07 1.32637C6.29943e-07 2.06302 0.557107 2.65252 1.41891 2.65252H1.43551H1.43574ZM4.14028 11.3768H6.70774V7.09047C6.70774 6.86127 6.72457 6.63162 6.79233 6.46797C6.97788 6.00935 7.40037 5.53468 8.10982 5.53468C9.03871 5.53468 9.41049 6.23855 9.41049 7.27062V11.3768H11.9779V6.97542C11.9779 4.61766 10.7114 3.52049 9.0221 3.52049C7.63707 3.52049 7.02881 4.28969 6.69091 4.81363H6.70797V3.70063H4.14051C4.17394 4.42078 4.14028 11.377 4.14028 11.377V11.3768Z" transform="translate(6.43433 6.85385)" fill="white"/>
</svg>
