<svg width="28" height="28" viewBox="0 0 28 28" fill="none" xmlns="http://www.w3.org/2000/svg">
<path d="M12.707 16.4658L12.9478 15.8682H14.9897L15.2305 16.4658H12.707ZM12.2422 17.6611L12.4746 17.0635H15.4546L15.7119 17.6611H12.2422ZM11.7773 18.8564L12.0098 18.2588H15.9277L16.1768 18.8564H11.7773ZM6.92139 20.5H6.27393L11.7109 6.75391H12.3584L17.7871 20.5H17.1479L12.0347 7.55908L6.92139 20.5ZM12.1094 8.97852L12.4497 9.74219L8.19971 20.5H7.56055L12.1094 8.97852ZM12.7734 10.5557L13.0889 11.3774L9.49463 20.5H8.84717L12.7734 10.5557ZM13.4043 12.1992L13.7197 13.0376L10.7729 20.5H10.1338L13.4043 12.1992ZM21.647 20.5H20.9995L15.5708 6.75391H16.21L21.647 20.5ZM14.9233 6.75391L20.3604 20.5H19.7212L14.2842 6.75391H14.9233ZM13.6367 6.75391L19.0737 20.5H18.4263L12.9976 6.75391H13.6367Z" fill="black"/>
</svg>
