<svg width="28" height="28" viewBox="0 0 28 28" fill="none" xmlns="http://www.w3.org/2000/svg">
<path d="M7.89209 19.4061C8.19209 19.4061 8.43209 19.3401 8.61209 19.2081C8.79209 19.0641 8.93609 18.8841 9.04409 18.6681C9.16409 18.4401 9.30209 18.1041 9.45809 17.6601L9.63809 17.1561L13.3461 7.05811H13.7781L17.7921 17.3001C17.9241 17.6241 18.0381 17.9781 18.1341 18.3621C18.2301 18.7341 18.2721 19.0401 18.2601 19.2801L19.4841 19.2081V20.0001H15.3621V19.4061C16.0701 19.3941 16.4241 19.1061 16.4241 18.5421C16.4241 18.3141 16.3641 18.0321 16.2441 17.6961L15.6141 16.0041L10.9341 16.1121C10.7541 16.6041 10.5441 17.2461 10.3041 18.0381C10.1841 18.4341 10.0341 18.8481 9.85409 19.2801L11.2581 19.2081V20.0001H7.89209V19.4061ZM15.3621 15.3381L14.0841 11.9001L13.2741 9.68611H13.2381L12.4821 11.7201L11.5101 14.4561L11.2041 15.3381H15.3621Z" fill="black"/>
</svg>
