<svg width="28" height="28" viewBox="0 0 28 28" fill="none" xmlns="http://www.w3.org/2000/svg">
<path d="M12.4912 20C12.6553 20 12.7817 19.959 12.8706 19.877C12.9663 19.7881 13.0142 19.6821 13.0142 19.5591C13.0142 19.4429 12.9663 19.3403 12.8706 19.2515C12.7817 19.1626 12.6587 19.1182 12.5015 19.1182H10.8711L12.0195 15.9805H16.9722L18.0693 19.1182H16.1621C16.0049 19.1182 15.8818 19.1626 15.793 19.2515C15.7041 19.3335 15.6597 19.4326 15.6597 19.5488C15.6597 19.6719 15.7041 19.7778 15.793 19.8667C15.8887 19.9556 16.0186 20 16.1826 20H19.9355C20.0928 20 20.2158 19.9556 20.3047 19.8667C20.4004 19.7778 20.4482 19.6719 20.4482 19.5488C20.4482 19.4326 20.4038 19.3335 20.3149 19.2515C20.2329 19.1626 20.1133 19.1182 19.9561 19.1182H19.146L15.4341 8.65918C15.2769 8.21484 15 7.99268 14.6035 7.99268H11.4966C11.3394 7.99268 11.2163 8.03711 11.1274 8.12598C11.0386 8.21484 10.9941 8.31738 10.9941 8.43359C10.9941 8.55664 11.0386 8.6626 11.1274 8.75146C11.2163 8.8335 11.3428 8.87451 11.5068 8.87451H13.7319L9.78418 19.1182H8.9126C8.75537 19.1182 8.63232 19.1626 8.54346 19.2515C8.45459 19.3403 8.41016 19.4429 8.41016 19.5591C8.41016 19.6821 8.45459 19.7881 8.54346 19.877C8.63232 19.959 8.75879 20 8.92285 20H12.4912ZM14.624 9.00781L16.6646 15.1294H12.3579L14.624 9.00781Z" fill="black"/>
</svg>
