<svg width="28" height="28" viewBox="0 0 28 28" fill="none" xmlns="http://www.w3.org/2000/svg">
<path d="M8.874 21.653C8.29133 21.349 8 20.9563 8 20.475C8 19.9937 8.25333 19.2527 8.76 18.252C9.26667 17.2387 9.94433 16.0797 10.793 14.775C10.033 14.7243 9.102 14.699 8 14.699C8.304 13.8756 9.03867 13.464 10.204 13.464C10.4573 13.464 10.926 13.502 11.61 13.578C13.0287 11.526 14.3523 9.79698 15.581 8.39098C16.8097 6.98498 17.6267 6.28198 18.032 6.28198C18.3613 6.28198 18.792 6.52898 19.324 7.02298C19.0707 7.21298 18.697 8.00465 18.203 9.39798C17.7217 10.7786 17.291 12.2986 16.911 13.958C16.5437 15.6046 16.36 16.9347 16.36 17.948C16.36 18.4547 16.4107 18.8346 16.512 19.088C16.626 19.3286 16.797 19.449 17.025 19.449C17.3417 19.449 17.7153 19.221 18.146 18.765C18.5767 18.2963 19.0453 17.5807 19.552 16.618L19.894 16.979C19.4887 18.0557 18.9693 18.9233 18.336 19.582C17.7027 20.228 17.044 20.551 16.36 20.551C15.7773 20.551 15.353 20.2977 15.087 19.791C14.821 19.2843 14.688 18.556 14.688 17.606C14.688 16.9853 14.7703 16.2 14.935 15.25C14.289 15.1487 13.3833 15.0283 12.218 14.889C11.04 16.979 9.92533 19.2337 8.874 21.653ZM15.125 14.319C15.353 13.255 15.6507 12.153 16.018 11.013C16.3853 9.87298 16.759 8.85332 17.139 7.95398C16.5817 8.39732 15.9293 9.13198 15.182 10.158C14.4347 11.184 13.6493 12.4 12.826 13.806L14.251 14.11C14.631 14.2113 14.9223 14.281 15.125 14.319Z" fill="black"/>
</svg>
