<svg width="25" height="25" viewBox="0 0 25 25" fill="none" xmlns="http://www.w3.org/2000/svg">
<path fill-rule="evenodd" clip-rule="evenodd" d="M0.175736 21.9546L21.9546 0.175736C22.1889 -0.0585786 22.5688 -0.0585786 22.8032 0.175736L24.5002 1.87279C24.7345 2.10711 24.7345 2.48701 24.5002 2.72132L2.72132 24.5002C2.48701 24.7345 2.10711 24.7345 1.87279 24.5002L0.175736 22.8032C-0.0585786 22.5688 -0.0585786 22.1889 0.175736 21.9546Z" fill="white"/>
<path fill-rule="evenodd" clip-rule="evenodd" d="M24.5002 21.9546C24.7345 22.1889 24.7345 22.5688 24.5002 22.8032L22.8032 24.5002C22.5688 24.7345 22.1889 24.7345 21.9546 24.5002L0.175736 2.72132C-0.0585786 2.48701 -0.0585786 2.10711 0.175736 1.87279L1.87279 0.175736C2.10711 -0.0585786 2.48701 -0.0585786 2.72132 0.175736L24.5002 21.9546Z" fill="white"/>
</svg>
