<?xml version="1.0" encoding="UTF-8"?>
<svg width="32px" height="32px" viewBox="0 0 32 32" version="1.1" xmlns="http://www.w3.org/2000/svg" xmlns:xlink="http://www.w3.org/1999/xlink">
    <!-- Generator: Sketch 48.2 (47327) - http://www.bohemiancoding.com/sketch -->
    <title>i-32-close</title>
    <desc>Created with Sketch.</desc>
    <defs></defs>
    <g id="Pages" stroke="none" stroke-width="1" fill="none" fill-rule="evenodd">
        <g id="i-32-close" fill="#000000">
            <g id="Group">
                <path d="M3.83776341,25.6166644 L25.6166522,3.83777557 C25.8509668,3.60346099 26.2308658,3.60346099 26.4651804,3.83777557 L28.1622366,5.53483175 C28.3965512,5.76914633 28.3965512,6.14904533 28.1622366,6.38335992 L6.38334776,28.1622487 C6.14903317,28.3965633 5.76913417,28.3965633 5.53481959,28.1622487 L3.83776341,26.4651926 C3.60344883,26.230878 3.60344883,25.850979 3.83776341,25.6166644 Z" id="c3"></path>
                <path d="M28.1622366,25.6166644 C28.3965512,25.850979 28.3965512,26.230878 28.1622366,26.4651926 L26.4651804,28.1622487 C26.2308658,28.3965633 25.8509668,28.3965633 25.6166522,28.1622487 L3.83776341,6.38335992 C3.60344883,6.14904533 3.60344883,5.76914633 3.83776341,5.53483175 L5.53481959,3.83777557 C5.76913417,3.60346099 6.14903317,3.60346099 6.38334776,3.83777557 L28.1622366,25.6166644 Z" id="c3"></path>
            </g>
        </g>
    </g>
</svg>