<svg width="60" height="60" viewBox="0 0 60 60" fill="none" xmlns="http://www.w3.org/2000/svg">
<path fill-rule="evenodd" clip-rule="evenodd" d="M33.4739 13.0466L50.0276 42.0154C51.5514 44.6821 49.6259 48 46.5546 48H13.4473C10.376 48 8.45056 44.6821 9.97434 42.0154L26.528 13.0466C28.0636 10.3593 31.9384 10.3593 33.4739 13.0466ZM31.7374 14.0388C30.9697 12.6952 29.0323 12.6952 28.2645 14.0389L11.7108 43.0077C10.9489 44.341 11.9117 46 13.4473 46H46.5546C48.0902 46 49.053 44.341 48.2911 43.0077L31.7374 14.0388Z" fill="#FF4CA2"/>
<circle cx="30" cy="40" r="2" fill="#FF4CA2"/>
<path d="M32 23.8125C32 25.3658 31.1046 36 30 36C28.8954 36 28 25.3658 28 23.8125C28 22.2592 28.8954 21 30 21C31.1046 21 32 22.2592 32 23.8125Z" fill="#FF4CA2"/>
</svg>
