<svg width="21" height="15" viewBox="0 0 21 15" fill="none" xmlns="http://www.w3.org/2000/svg">
<line x1="9.5" y1="3" x2="9.5" y2="14" stroke="#C7C7C7"/>
<line x1="14.2" y1="3" x2="14.2" y2="14" stroke="#C7C7C7"/>
<path d="M6.608 10.276L5.033 6.195C4.98633 6.07367 4.93733 5.93367 4.886 5.775C4.83467 5.61167 4.78567 5.439 4.739 5.257C4.641 5.635 4.54067 5.95 4.438 6.202L2.863 10.276H6.608ZM9.436 14H8.386C8.26467 14 8.16667 13.9697 8.092 13.909C8.01733 13.8483 7.96133 13.7713 7.924 13.678L6.986 11.256H2.485L1.547 13.678C1.519 13.762 1.46533 13.8367 1.386 13.902C1.30667 13.9673 1.20867 14 1.092 14H0.042L4.053 3.969H5.425L9.436 14Z" fill="#515151"/>
<path d="M18.83 10.808C18.256 10.8267 17.766 10.8733 17.36 10.948C16.9587 11.018 16.6297 11.1113 16.373 11.228C16.121 11.3447 15.9367 11.4823 15.82 11.641C15.708 11.7997 15.652 11.977 15.652 12.173C15.652 12.3597 15.6823 12.5207 15.743 12.656C15.8037 12.7913 15.8853 12.9033 15.988 12.992C16.0953 13.076 16.219 13.139 16.359 13.181C16.5037 13.2183 16.6577 13.237 16.821 13.237C17.0403 13.237 17.241 13.216 17.423 13.174C17.605 13.1273 17.7753 13.062 17.934 12.978C18.0973 12.894 18.2513 12.7937 18.396 12.677C18.5453 12.5603 18.69 12.4273 18.83 12.278V10.808ZM14.805 7.91C15.197 7.532 15.6193 7.24967 16.072 7.063C16.5247 6.87633 17.0263 6.783 17.577 6.783C17.9737 6.783 18.326 6.84833 18.634 6.979C18.942 7.10967 19.201 7.29167 19.411 7.525C19.621 7.75833 19.7797 8.04067 19.887 8.372C19.9943 8.70333 20.048 9.06733 20.048 9.464V14H19.495C19.3737 14 19.2803 13.9813 19.215 13.944C19.1497 13.902 19.0983 13.8227 19.061 13.706L18.921 13.034C18.7343 13.2067 18.5523 13.3607 18.375 13.496C18.1977 13.6267 18.011 13.7387 17.815 13.832C17.619 13.9207 17.409 13.9883 17.185 14.035C16.9657 14.0863 16.7207 14.112 16.45 14.112C16.1747 14.112 15.9157 14.0747 15.673 14C15.4303 13.9207 15.218 13.804 15.036 13.65C14.8587 13.496 14.7163 13.3023 14.609 13.069C14.5063 12.831 14.455 12.551 14.455 12.229C14.455 11.949 14.532 11.6807 14.686 11.424C14.84 11.1627 15.0897 10.9317 15.435 10.731C15.7803 10.5303 16.2307 10.367 16.786 10.241C17.3413 10.1103 18.0227 10.0357 18.83 10.017V9.464C18.83 8.91333 18.711 8.498 18.473 8.218C18.235 7.93333 17.8873 7.791 17.43 7.791C17.122 7.791 16.863 7.83067 16.653 7.91C16.4477 7.98467 16.268 8.071 16.114 8.169C15.9647 8.26233 15.834 8.34867 15.722 8.428C15.6147 8.50267 15.5073 8.54 15.4 8.54C15.316 8.54 15.2437 8.519 15.183 8.477C15.1223 8.43033 15.071 8.37433 15.029 8.309L14.805 7.91Z" fill="#515151"/>
</svg>
