<svg width="21" height="17" viewBox="0 0 21 17" fill="none" xmlns="http://www.w3.org/2000/svg">
  <path d="M9.608 10.276L8.033 6.195C7.98633 6.07367 7.93733 5.93367 7.886 5.775C7.83467 5.61167 7.78567 5.439 7.739 5.257C7.641 5.635 7.54067 5.95 7.438 6.202L5.863 10.276H9.608ZM12.436 14H11.386C11.2647 14 11.1667 13.9697 11.092 13.909C11.0173 13.8483 10.9613 13.7713 10.924 13.678L9.986 11.256H5.485L4.547 13.678C4.519 13.762 4.46533 13.8367 4.386 13.902C4.30667 13.9673 4.20867 14 4.092 14H3.042L7.053 3.969H8.425L12.436 14ZM17.3046 10.808C16.7306 10.8267 16.2406 10.8733 15.8346 10.948C15.4333 11.018 15.1043 11.1113 14.8476 11.228C14.5956 11.3447 14.4113 11.4823 14.2946 11.641C14.1826 11.7997 14.1266 11.977 14.1266 12.173C14.1266 12.3597 14.1569 12.5207 14.2176 12.656C14.2783 12.7913 14.3599 12.9033 14.4626 12.992C14.5699 13.076 14.6936 13.139 14.8336 13.181C14.9783 13.2183 15.1323 13.237 15.2956 13.237C15.5149 13.237 15.7156 13.216 15.8976 13.174C16.0796 13.1273 16.2499 13.062 16.4086 12.978C16.5719 12.894 16.7259 12.7937 16.8706 12.677C17.0199 12.5603 17.1646 12.4273 17.3046 12.278V10.808ZM13.2796 7.91C13.6716 7.532 14.0939 7.24967 14.5466 7.063C14.9993 6.87633 15.5009 6.783 16.0516 6.783C16.4483 6.783 16.8006 6.84833 17.1086 6.979C17.4166 7.10967 17.6756 7.29167 17.8856 7.525C18.0956 7.75833 18.2543 8.04067 18.3616 8.372C18.4689 8.70333 18.5226 9.06733 18.5226 9.464V14H17.9696C17.8483 14 17.7549 13.9813 17.6896 13.944C17.6243 13.902 17.5729 13.8227 17.5356 13.706L17.3956 13.034C17.2089 13.2067 17.0269 13.3607 16.8496 13.496C16.6723 13.6267 16.4856 13.7387 16.2896 13.832C16.0936 13.9207 15.8836 13.9883 15.6596 14.035C15.4403 14.0863 15.1953 14.112 14.9246 14.112C14.6493 14.112 14.3903 14.0747 14.1476 14C13.9049 13.9207 13.6926 13.804 13.5106 13.65C13.3333 13.496 13.1909 13.3023 13.0836 13.069C12.9809 12.831 12.9296 12.551 12.9296 12.229C12.9296 11.949 13.0066 11.6807 13.1606 11.424C13.3146 11.1627 13.5643 10.9317 13.9096 10.731C14.2549 10.5303 14.7053 10.367 15.2606 10.241C15.8159 10.1103 16.4973 10.0357 17.3046 10.017V9.464C17.3046 8.91333 17.1856 8.498 16.9476 8.218C16.7096 7.93333 16.3619 7.791 15.9046 7.791C15.5966 7.791 15.3376 7.83067 15.1276 7.91C14.9223 7.98467 14.7426 8.071 14.5886 8.169C14.4393 8.26233 14.3086 8.34867 14.1966 8.428C14.0893 8.50267 13.9819 8.54 13.8746 8.54C13.7906 8.54 13.7183 8.519 13.6576 8.477C13.5969 8.43033 13.5456 8.37433 13.5036 8.309L13.2796 7.91Z" fill="black"/>
  <line x1="0.998453" y1="14.5767" x2="20.9982" y2="14.5037" stroke="#C7C7C7"/>
  <path d="M0.995941 3.4H21.0008" stroke="#C7C7C7"/>
</svg>
