<svg width="20" height="18" viewBox="0 0 20 18" fill="none" xmlns="http://www.w3.org/2000/svg">
<path fill-rule="evenodd" clip-rule="evenodd" d="M10.0053 2.68852C9.25933 1.75845 8.34938 1.14028 7.36444 0.820491C5.98804 0.373597 4.5419 0.53465 3.32189 1.12533C0.855822 2.3193 -0.738857 5.3034 0.788809 8.71622C1.56672 10.4541 2.78646 11.7292 4.24496 12.9795C4.84821 13.4966 5.5089 14.023 6.20353 14.5764C6.34445 14.6887 6.48677 14.8021 6.63029 14.9167C7.48755 15.6016 8.40412 16.3442 9.37777 17.2037C9.72989 17.5145 10.2577 17.5168 10.6125 17.209C11.5951 16.3566 12.4699 15.6453 13.2668 14.9973C15.6443 13.064 17.3278 11.6951 19.1119 8.82858C19.1318 8.79654 19.1498 8.76333 19.1658 8.72912C19.9423 7.06247 19.9785 5.45697 19.4668 4.09837C18.9605 2.75394 17.9423 1.71718 16.7235 1.12577C15.504 0.53404 14.0551 0.374394 12.6728 0.819916C11.6821 1.13923 10.7629 1.75717 10.0053 2.68852Z" fill="url(#paint0_linear_2826_17830)"/>
<defs>
<linearGradient id="paint0_linear_2826_17830" x1="0.189941" y1="17.4383" x2="16.8741" y2="-1.95886" gradientUnits="userSpaceOnUse">
<stop stop-color="#FF0055"/>
<stop offset="1" stop-color="#F94CFF"/>
</linearGradient>
</defs>
</svg>
