<svg width="14" height="12" viewBox="0 0 14 12" fill="none" xmlns="http://www.w3.org/2000/svg">
<path fill-rule="evenodd" clip-rule="evenodd" d="M3.09264 1.87472C2.01115 2.39833 1.27803 3.68638 2.00012 5.29954C2.40719 6.20893 3.0569 6.91475 3.97687 7.70341C4.36037 8.03218 4.7796 8.36622 5.24244 8.73501C5.33766 8.81088 5.43472 8.88822 5.5337 8.96729C5.99066 9.33232 6.48183 9.72905 7.00123 10.174C7.55773 9.70049 8.04725 9.30208 8.48742 8.94384C10.0001 7.71271 10.9299 6.95593 11.9928 5.25753C12.3652 4.43863 12.3512 3.72928 12.1414 3.17223C11.9252 2.59818 11.4839 2.14009 10.9366 1.87455C10.3898 1.60923 9.75626 1.54531 9.16531 1.73577C8.58306 1.92344 7.99327 2.37404 7.55485 3.22841C7.44736 3.43788 7.23128 3.56917 6.99584 3.56806C6.76041 3.56695 6.54557 3.43363 6.44006 3.22315C6.01249 2.37022 5.43174 1.92195 4.85695 1.73533C4.27307 1.54575 3.64206 1.60871 3.09264 1.87472ZM7.00352 1.79178C6.50622 1.17173 5.89958 0.759618 5.24296 0.546424C4.32536 0.248495 3.36127 0.355864 2.54793 0.74965C0.903881 1.54563 -0.159238 3.53503 0.859206 5.81024C1.37782 6.96882 2.19098 7.81887 3.16331 8.65243C3.56547 8.99719 4.00594 9.34811 4.46902 9.71706C4.56297 9.79191 4.65785 9.8675 4.75352 9.94393C5.32503 10.4005 5.93608 10.8956 6.58518 11.4685C6.81993 11.6757 7.17178 11.6773 7.40832 11.4721C8.06343 10.9039 8.64663 10.4296 9.17785 9.99766C10.7628 8.7088 11.8852 7.79616 13.0746 5.88515C13.0879 5.86379 13.0999 5.84165 13.1105 5.81884C13.6282 4.70774 13.6523 3.63741 13.3112 2.73168C12.9737 1.83539 12.2949 1.14422 11.4823 0.749944C10.6693 0.355457 9.70338 0.249026 8.78185 0.546041C8.12138 0.758917 7.50858 1.17088 7.00352 1.79178Z" fill="#111111"/>
</svg>
