<?xml version="1.0" encoding="UTF-8"?>
<svg width="42px" height="37px" viewBox="0 0 42 37" version="1.1" xmlns="http://www.w3.org/2000/svg" xmlns:xlink="http://www.w3.org/1999/xlink">
    <!-- Generator: Sketch 52.5 (67469) - http://www.bohemiancoding.com/sketch -->
    <title>Group</title>
    <desc>Created with Sketch.</desc>
    <g id="Page-1" stroke="none" stroke-width="1" fill="none" fill-rule="evenodd">
        <g id="04_os_alert_icon" transform="translate(-142.000000, 0.000000)">
            <g id="Group" transform="translate(142.000000, 0.000000)">
                <path d="M22.118,12.274 L22.118,24.274 C22.118,24.827 21.671,25.274 21.118,25.274 C20.566,25.274 20.118,24.827 20.118,24.274 L20.118,12.274 C20.118,11.722 20.566,11.274 21.118,11.274 C21.671,11.274 22.118,11.722 22.118,12.274 Z M23.843,29.774 C23.843,31.276 22.621,32.499 21.118,32.499 C19.616,32.499 18.395,31.276 18.395,29.774 C18.395,28.272 19.616,27.05 21.118,27.05 C22.621,27.05 23.843,28.272 23.843,29.774 Z M3.013,34.574 L39.224,34.574 L21.118,3.215 L3.013,34.574 Z" id="Fill-6" fill-opacity="0.2" fill="#FC32A9"></path>
                <path d="M20.395,29.774 C20.395,30.174 20.72,30.499 21.118,30.499 C21.518,30.499 21.843,30.174 21.843,29.774 C21.843,29.375 21.518,29.05 21.118,29.05 C20.72,29.05 20.395,29.375 20.395,29.774" id="Fill-7" fill="#1A1919"></path>
                <path d="M3.013,34.574 L21.118,3.215 L39.224,34.574 L3.013,34.574 Z M21.984,0.715 C21.628,0.096 20.609,0.096 20.253,0.715 L0.415,35.074 C0.236,35.384 0.236,35.765 0.415,36.074 C0.594,36.384 0.924,36.574 1.281,36.574 L40.956,36.574 C40.963,36.574 40.969,36.574 40.976,36.574 C41.528,36.574 41.976,36.127 41.976,35.574 C41.976,35.325 41.885,35.098 41.734,34.922 L21.984,0.715 Z" id="Fill-20" fill="#FC32A9"></path>
                <path d="M20.118,12.274 L20.118,24.274 C20.118,24.827 20.566,25.274 21.118,25.274 C21.671,25.274 22.118,24.827 22.118,24.274 L22.118,12.274 C22.118,11.722 21.671,11.274 21.118,11.274 C20.566,11.274 20.118,11.722 20.118,12.274" id="Fill-22" fill="#FC32A9"></path>
                <path d="M21.118,32.499 C22.621,32.499 23.843,31.276 23.843,29.774 C23.843,28.272 22.621,27.05 21.118,27.05 C19.616,27.05 18.395,28.272 18.395,29.774 C18.395,31.276 19.616,32.499 21.118,32.499 Z" id="Fill-23" fill="#FC32A9"></path>
            </g>
        </g>
    </g>
</svg>