<svg xmlns="http://www.w3.org/2000/svg" viewBox="0 0 43.22 40">
    <g fill="none" fill-rule="evenodd">
        <path fill="#ffffff" d="M4.39 10.239L27.16.559c3.63-1.544 7.794.221 9.3 3.941a7.459 7.459 0 0 1 .474 3.81L33.45 33.712c-.547 3.989-4.145 6.768-8.037 6.207a7.03 7.03 0 0 1-3.44-1.515L2.686 22.682c-3.075-2.508-3.585-7.095-1.138-10.247a7.136 7.136 0 0 1 2.842-2.196zm16.667 11.944c-.487.53-1.294.884-1.735.884-1.348 0-1.888-1.125-2.234-2.513 1.772-.543 2.85-2.08 2.85-3.937 0-2.306-1.521-4.312-4.295-4.312h-5.99v13.124h2.966V20.76h1.791c.154 1.387 1.137 4.874 4.334 4.874 1.368 0 2.513-.595 3.564-1.444.958.892 2.37 1.444 4.19 1.444 1.329 0 3.197-.394 4.603-1.893l-1.656-1.538c-.694.638-1.714 1.144-2.735 1.144-1.83 0-2.966-.881-3.024-2.081h7.954c0-3.825-2.619-5.662-5.354-5.662-3.178 0-5.45 2.23-5.45 5.062 0 .528.074 1.038.22 1.516zm-8.438-3.747v-3.694h2.639c1.06 0 1.695.75 1.695 1.856 0 1.088-.636 1.838-1.695 1.838h-2.639zm13.629-.563c.963 0 2.253.469 2.446 1.706h-4.95c.346-1.293 1.579-1.706 2.504-1.706z"/>
    </g>
</svg>
