<svg width="44" height="44" viewBox="0 0 44 44" fill="none" xmlns="http://www.w3.org/2000/svg">
<path d="M8.195 38.5002H35.805C38.6283 38.5002 40.3883 35.4386 38.9767 33.0002L25.1717 9.14857C23.76 6.71024 20.24 6.71024 18.8283 9.14857L5.02333 33.0002C3.61167 35.4386 5.37166 38.5002 8.195 38.5002V38.5002ZM22 25.6669C20.9917 25.6669 20.1667 24.8419 20.1667 23.8336V20.1669C20.1667 19.1586 20.9917 18.3336 22 18.3336C23.0083 18.3336 23.8333 19.1586 23.8333 20.1669V23.8336C23.8333 24.8419 23.0083 25.6669 22 25.6669ZM23.8333 33.0002H20.1667V29.3336H23.8333V33.0002Z" fill="#F5BE0A"/>
</svg>
