<svg width="30" height="30" viewBox="0 0 30 30" fill="none" xmlns="http://www.w3.org/2000/svg">
<path d="M23.125 28.125H6.875C5.83937 28.125 5 27.2856 5 26.25V3.75C5 2.71438 5.83937 1.875 6.875 1.875H18.75L25 8.125V26.25C25 27.2856 24.1606 28.125 23.125 28.125Z" fill="#43A047"/>
<path d="M25 8.125H18.75V1.875L25 8.125Z" fill="#C8E6C9"/>
<path d="M18.75 8.12518L25 14.3752V8.12518H18.75Z" fill="#2E7D32"/>
<path d="M19.375 14.3748H10.625H9.375V15.6248V16.8748V18.1248V19.3748V20.6248V21.8748V23.1248H20.625V21.8748V20.6248V19.3748V18.1248V16.8748V15.6248V14.3748H19.375ZM10.625 15.6248H13.125V16.8748H10.625V15.6248ZM10.625 18.1248H13.125V19.3748H10.625V18.1248ZM10.625 20.6248H13.125V21.8748H10.625V20.6248ZM19.375 21.8748H14.375V20.6248H19.375V21.8748ZM19.375 19.3748H14.375V18.1248H19.375V19.3748ZM19.375 16.8748H14.375V15.6248H19.375V16.8748Z" fill="#E8F5E9"/>
</svg>
