<svg width="190" height="44" viewBox="0 0 190 44" fill="none" xmlns="http://www.w3.org/2000/svg">
<path fill-rule="evenodd" clip-rule="evenodd" d="M168.338 32.3377C162.815 32.3377 158.338 27.8606 158.338 22.3377C158.338 16.8149 162.815 12.3377 168.338 12.3377C173.861 12.3377 178.338 16.8149 178.338 22.3377C178.338 27.8606 173.861 32.3377 168.338 32.3377ZM168.338 29.3377C172.204 29.3377 175.338 26.2037 175.338 22.3377C175.338 18.4717 172.204 15.3377 168.338 15.3377C164.472 15.3377 161.338 18.4717 161.338 22.3377C161.338 26.2037 164.472 29.3377 168.338 29.3377Z" fill="black"/>
<path d="M149.838 12.3377H147.838C147.562 12.3377 147.338 12.5616 147.338 12.8377V31.8377C147.338 32.1139 147.562 32.3377 147.838 32.3377H149.838C150.114 32.3377 150.338 32.1139 150.338 31.8377V12.8377C150.338 12.5616 150.114 12.3377 149.838 12.3377Z" fill="black"/>
<path fill-rule="evenodd" clip-rule="evenodd" d="M129.338 32.3377C127.171 32.3377 125.005 32.3377 122.838 32.3377C122.562 32.3377 122.338 32.1139 122.338 31.8377V12.8377C122.338 12.5616 122.562 12.3377 122.838 12.3377C125.005 12.3377 127.171 12.3377 129.338 12.3377C134.861 12.3377 139.338 16.8149 139.338 22.3377C139.338 27.8606 134.861 32.3377 129.338 32.3377ZM129.338 29.3377C133.204 29.3377 136.338 26.2037 136.338 22.3377C136.338 18.4717 133.204 15.3377 129.338 15.3377C126.761 15.3377 125.427 15.3377 125.338 15.3377V29.3377C126.896 29.3377 128.229 29.3377 129.338 29.3377Z" fill="black"/>
<path fill-rule="evenodd" clip-rule="evenodd" d="M97.8381 12.3377H99.8381C100.114 12.3377 100.338 12.5616 100.338 12.8377C100.338 16.6711 100.338 20.5044 100.338 24.3377C100.338 27.0977 102.578 29.3377 105.338 29.3377C108.098 29.3377 110.338 27.0977 110.338 24.3377C110.338 20.5044 110.338 16.6711 110.338 12.8377C110.338 12.5616 110.562 12.3377 110.838 12.3377H112.838C113.114 12.3377 113.338 12.5616 113.338 12.8377C113.338 16.6711 113.338 20.5044 113.338 24.3377C113.338 28.7578 109.758 32.3547 105.338 32.3377C100.918 32.3207 97.3381 28.7578 97.3381 24.3377C97.3381 20.5044 97.3381 16.6711 97.3381 12.8377C97.3381 12.5616 97.5619 12.3377 97.8381 12.3377Z" fill="black"/>
<path fill-rule="evenodd" clip-rule="evenodd" d="M75.8381 12.3377H89.8381C90.1143 12.3377 90.3381 12.5616 90.3381 12.8377V14.8377C90.3381 15.1139 90.1143 15.3377 89.8381 15.3377H84.3381V31.8377C84.3381 32.1139 84.1143 32.3377 83.8381 32.3377H81.8381C81.562 32.3377 81.3381 32.1139 81.3381 31.8377V15.3377H75.8381C75.562 15.3377 75.3381 15.1139 75.3381 14.8377V12.8377C75.3381 12.5616 75.562 12.3377 75.8381 12.3377Z" fill="black"/>
<path d="M68.1399 14.3905C67.8384 14.1437 67.5959 13.9581 67.4125 13.8337C65.9534 12.8434 64.3339 12.3377 62.585 12.3377C58.9548 12.3377 56.135 14.5068 56.135 17.8377C56.135 20.9501 57.765 22.1649 61.896 23.6675C62.0365 23.7186 62.0365 23.7186 62.176 23.7694C63.6723 24.3145 64.4036 24.6363 65.0309 25.0708C65.7681 25.5815 66.035 26.1274 66.035 26.8377C66.035 28.0198 64.4629 29.3377 62.585 29.3377C61.3733 29.3377 59.9827 28.8482 58.421 27.8323C58.2771 27.7387 58.0814 27.6034 57.834 27.4265L57.834 27.4265C57.6136 27.2689 57.3077 27.3155 57.1443 27.5317L55.9393 29.1258L55.9393 29.1258C55.7728 29.346 55.8164 29.6596 56.0367 29.8261C56.0405 29.829 56.0443 29.8318 56.0482 29.8346C56.4592 30.1273 56.78 30.3461 57.0106 30.4911C58.9501 31.7107 60.8057 32.3377 62.585 32.3377C66.0142 32.3377 69.035 29.8053 69.035 26.8377C69.035 25.1726 68.3124 23.6943 66.7391 22.6046C65.8312 21.9758 64.9379 21.5827 63.2029 20.9506C63.0615 20.8991 63.0615 20.8991 62.9215 20.8482C59.9312 19.7606 59.135 19.1672 59.135 17.8377C59.135 16.361 60.4652 15.3377 62.585 15.3377C63.6535 15.3377 64.6358 15.6207 65.557 16.2036C65.7098 16.3002 65.9119 16.4491 66.1634 16.6503L66.1635 16.6502C66.3695 16.815 66.6682 16.7913 66.8456 16.5961L68.1932 15.1137L68.1932 15.1137C68.3789 14.9094 68.3639 14.5932 68.1595 14.4075C68.1531 14.4016 68.1466 14.396 68.1399 14.3905Z" fill="black"/>
<path fill-rule="evenodd" clip-rule="evenodd" d="M12.1757 31.9546L33.9546 10.1757C34.1889 9.94142 34.5688 9.94142 34.8032 10.1757L36.5002 11.8728C36.7345 12.1071 36.7345 12.487 36.5002 12.7213L14.7213 34.5002C14.487 34.7345 14.1071 34.7345 13.8728 34.5002L12.1757 32.8032C11.9414 32.5688 11.9414 32.1889 12.1757 31.9546Z" fill="url(#paint0_linear_1_177)"/>
<defs>
<linearGradient id="paint0_linear_1_177" x1="12" y1="34.6759" x2="36.6759" y2="10" gradientUnits="userSpaceOnUse">
<stop stop-color="#FF0055"/>
<stop offset="1" stop-color="#F94CFF"/>
</linearGradient>
</defs>
</svg>
